<?xml version="1.0" encoding="utf-8"?>
<!-- Generator: Adobe Illustrator 24.0.2, SVG Export Plug-In . SVG Version: 6.00 Build 0)  -->
<svg version="1.1" id="Layer_1" xmlns="http://www.w3.org/2000/svg" xmlns:xlink="http://www.w3.org/1999/xlink" x="0px" y="0px"
	 viewBox="0 0 413.4 388.3" style="enable-background:new 0 0 413.4 388.3;" xml:space="preserve">
<style type="text/css">
	.st0{fill:#FFFFFF;}
</style>
<g>
	<path class="st0" d="M205.8,10C95.6,10,6.3,54.2,6.3,108.8c0,26.7,21.5,51,56.3,68.8v210.8H349V177.5c34.8-17.8,56.3-42,56.3-68.8
		C405.3,54.2,316,10,205.8,10z M344.5,168.6l-5.5,2.8v206.9H72.6V171.4l-5.5-2.8c-32.8-16.7-50.8-38-50.8-59.9
		c0-22.1,19.3-44.3,52.9-60.9C105.5,29.9,154,20,205.8,20s100.3,9.9,136.7,27.9c33.6,16.6,52.9,38.8,52.9,60.9
		C395.3,130.6,377.3,151.9,344.5,168.6z"/>
</g>
</svg>
