<?xml version="1.0" encoding="utf-8"?>
<!-- Generator: Adobe Illustrator 24.0.2, SVG Export Plug-In . SVG Version: 6.00 Build 0)  -->
<svg version="1.1" id="Layer_1" xmlns="http://www.w3.org/2000/svg" xmlns:xlink="http://www.w3.org/1999/xlink" x="0px" y="0px"
	 viewBox="0 0 20 20" style="enable-background:new 0 0 20 20;" xml:space="preserve">
<style type="text/css">
	.st0{fill:#FFFFFF;}
	.st1{fill:none;stroke:#FFFFFF;stroke-width:0.25;stroke-miterlimit:10;}
	.st2{fill:none;stroke:#CCCCCC;stroke-width:0.25;stroke-miterlimit:10;}
	.st3{fill:#CCCCCC;}
</style>
<rect x="14.7" y="38.2" class="st0" width="20" height="20"/>
<g>
	<path class="st1" d="M43,21.3c0.3-0.1,0.4-0.4,0.3-0.7s-0.3-0.4-0.6-0.5c-0.2-0.1-0.5-0.2-0.7-0.3c0.9-0.2,1.7-0.7,2.4-1.3
		c-0.5-0.4-0.9-0.8-1.4-1.1c0.5-0.1,1-0.4,1.2-0.9s0-1.2-0.5-1.3c-0.2-0.1-0.6,0-0.6-0.3c0-0.1,0-0.2,0-0.2c0.1-0.4,0.1-0.8,0.2-1.1
		c-0.2-0.1-0.5-0.1-0.8-0.2c-0.3-0.1-0.5-0.3-0.5-0.6c0-0.1,0.1-0.2,0.1-0.3c0-0.2-0.2-0.3-0.4-0.4c-0.3-0.1-0.6,0-0.9,0.1
		c0-0.3,0.1-0.6,0.1-0.9c-0.6-0.3-0.9,0-0.9,0.3s0.2,0.6,0.4,0.8s0.5,0.4,0.6,0.7c-0.3,0-0.6,0.2-0.7,0.4s0,0.6,0.2,0.8
		c0.1,0.1,0.3,0.2,0.4,0.3C41,14.8,41,15,41,15.1s-0.1,0.1-0.2,0.2c-0.3,0.2-0.6,0.4-0.9,0.5c0.3,0.3,0.5,0.7,0.4,1.1
		s-0.4,0.8-0.7,0.9c0.3,0.2,0.7,0.5,0.6,0.9c0,0.2-0.2,0.4-0.3,0.6c-0.2,0.6,0.8,1.2,0.6,1.8C40.4,21.4,40,21.6,40,22
		c0,0.2,0.2,0.3,0.2,0.5c0.1,0.4-0.5,0.8-0.4,1.2c0.3,0,0.6,0,0.9,0c0.1,0,0.2,0,0.2-0.1s0-0.1,0-0.2c-0.1-0.2-0.3-0.3-0.4-0.5
		c-0.1-0.1-0.3-0.4-0.2-0.6s0.3-0.3,0.4-0.3c0.4-0.1,0.8-0.3,1.1-0.4c0.1,0,0.1-0.1,0.2-0.1c0.1-0.1,0-0.2,0-0.3
		c-0.1-0.3-0.3-0.5-0.4-0.8c-0.1-0.1-0.2-0.3-0.2-0.4s0.1-0.2,0.1-0.3c0.4-0.5,0.8-0.9,1.4-1.3c-0.4-0.6-0.7-1.2-1-1.8
		c-0.2-0.4-0.3-0.9,0-1.2c0.1-0.1,0.3-0.2,0.3-0.3s-0.1-0.3-0.2-0.4c-0.5-0.4-0.5-1.2-0.1-1.7c0.5,0.1,0.8,0.6,0.9,1
		c0.1,0.5,0,1-0.4,1.3c0.6,0.4,1.1,0.8,1.7,1.1c0.3,0.2,0.6,0.4,0.5,0.7c0,0.3-0.4,0.5-0.7,0.7c0.1-0.2-0.1-0.4-0.4-0.4
		c-0.2,0.1-0.3,0.3-0.4,0.5c-0.3-0.4-0.5-0.8-0.7-1.2c-0.2,0.1-0.4,0.4-0.5,0.6c-0.6-0.2-1.1-0.5-1.4-0.9c-0.2,0.5-0.4,1-0.7,1.4
		c-0.1-0.1-0.3-0.3-0.4-0.4c-0.1,0.5-0.2,1-0.1,1.5c0,0.1,0,0.1,0,0.1c0.1,0.1,0.2,0,0.2-0.1c0.1-0.1,0.3-0.2,0.4-0.3
		c0.4,0.4,0.8,0.9,1.2,1.3c0.5-0.5,1.1-0.9,1.8-1.1c-0.2,0.3,0.2,0.7,0.5,0.6s0.6-0.4,0.7-0.7c0.1-0.3,0.2-0.6,0.3-0.9"/>
	<path class="st1" d="M43.8,22.4c0.3-0.1,0.4-0.4,0.3-0.7c-0.1-0.2-0.3-0.4-0.6-0.5S43,21,42.8,20.9c0.9-0.2,1.7-0.7,2.4-1.3
		c-0.5-0.4-0.9-0.8-1.4-1.1c0.5-0.1,1-0.4,1.2-0.9s0-1.2-0.5-1.3c-0.2-0.1-0.6,0-0.6-0.3c0-0.1,0-0.2,0-0.2c0.1-0.4,0.1-0.8,0.2-1.1
		c-0.2-0.1-0.5-0.1-0.8-0.2c-0.3-0.1-0.5-0.3-0.5-0.6c0-0.1,0.1-0.2,0.1-0.3c0-0.2-0.2-0.3-0.4-0.4c-0.3-0.1-0.6,0-0.9,0.1
		c0-0.3,0.1-0.6,0.1-0.9c-0.3-0.2-0.6,0.1-0.6,0.4c0,0.3,0.2,0.6,0.4,0.8s0.5,0.4,0.6,0.7c-0.3,0-0.6,0.2-0.7,0.4
		c-0.1,0.3,0,0.6,0.2,0.8c0.1,0.1,0.3,0.2,0.4,0.3s0.2,0.3,0.1,0.4c0,0.1-0.1,0.1-0.2,0.2c-0.3,0.2-0.6,0.4-0.9,0.5
		c0.3,0.3,0.5,0.7,0.4,1.1s-0.4,0.8-0.7,0.9c0.3,0.2,0.7,0.5,0.6,0.9c0,0.2-0.2,0.4-0.3,0.6c-0.2,0.6,0.8,1.2,0.6,1.8
		c-0.1,0.3-0.5,0.5-0.5,0.9c0,0.2,0.2,0.3,0.2,0.5c0.1,0.4-0.5,0.8-0.4,1.2c0.3,0,0.6,0,0.9,0c0.1,0,0.2,0,0.2-0.1s0-0.1,0-0.2
		c-0.1-0.2-0.3-0.3-0.4-0.5c-0.1-0.1-0.3-0.4-0.2-0.6s0.3-0.3,0.4-0.3c0.4-0.1,0.8-0.3,1.1-0.4c0.1,0,0.1-0.1,0.2-0.1
		c0.1-0.1,0-0.2,0-0.3c-0.1-0.3-0.3-0.5-0.4-0.8c-0.1-0.1-0.2-0.3-0.2-0.4s0.1-0.2,0.1-0.3c0.4-0.5,0.8-0.9,1.4-1.3
		c-0.4-0.6-0.7-1.2-1-1.8c-0.2-0.4-0.3-0.9,0-1.2c0.1-0.1,0.3-0.2,0.3-0.3c0-0.1-0.1-0.3-0.2-0.4c-0.5-0.4-0.5-1.2-0.1-1.7
		c0.5,0.1,0.8,0.6,0.9,1c0.1,0.5,0,1-0.4,1.3c0.6,0.4,1.1,0.8,1.7,1.1c0.3,0.2,0.6,0.4,0.5,0.7c0,0.3-0.4,0.5-0.7,0.7
		c0.1-0.2-0.1-0.4-0.4-0.4s-0.3,0.3-0.4,0.5c-0.3-0.4-0.5-0.8-0.7-1.2c-0.2,0.1-0.4,0.4-0.5,0.6c-0.6-0.2-1.1-0.5-1.4-0.9
		c-0.2,0.5-0.4,1-0.7,1.4c-0.1-0.1-0.3-0.3-0.4-0.4c-0.1,0.5-0.2,1-0.1,1.5c0,0.1,0,0.1,0,0.1c0.1,0.1,0.2,0,0.2-0.1
		c0.1-0.1,0.3-0.2,0.4-0.3c0.4,0.4,0.8,0.9,1.2,1.3c0.5-0.5,1.1-0.9,1.8-1.1c-0.2,0.3,0.2,0.7,0.5,0.6s0.6-0.4,0.7-0.7
		c0.1-0.3,0.2-0.6,0.3-0.9"/>
	<path class="st1" d="M43.6,20.8c0.3-0.1,0.4-0.4,0.3-0.7c-0.1-0.2-0.3-0.4-0.6-0.5s-0.5-0.2-0.7-0.3c0.9-0.2,1.7-0.7,2.4-1.3
		c-0.5-0.4-0.9-0.8-1.4-1.1c0.5-0.1,1-0.4,1.2-0.9s0-1.2-0.5-1.3c-0.2-0.1-0.6,0-0.6-0.3c0-0.1,0-0.2,0-0.2c0.1-0.4,0.1-0.8,0.2-1.1
		c-0.2-0.1-0.5-0.1-0.8-0.2s-0.5-0.3-0.5-0.6c0-0.1,0.1-0.2,0.1-0.3c0-0.2-0.2-0.3-0.4-0.4c-0.3-0.1-0.6,0-0.9,0.1
		c0-0.3,0.1-0.6,0.1-0.9c-0.3-0.2-0.6,0.1-0.6,0.4c0,0.3,0.2,0.6,0.4,0.8s0.5,0.4,0.6,0.7c-0.3,0-0.6,0.2-0.7,0.4
		c-0.1,0.3,0,0.6,0.2,0.8c0.1,0.1,0.3,0.2,0.4,0.3s0.2,0.3,0.1,0.4c0,0.1-0.1,0.1-0.2,0.2c-0.3,0.2-0.6,0.4-0.9,0.5
		c0.3,0.3,0.5,0.7,0.4,1.1c-0.1,0.4-0.4,0.8-0.7,0.9c0.3,0.2,0.7,0.5,0.6,0.9c0,0.2-0.2,0.4-0.3,0.6c-0.2,0.6,0.8,1.2,0.6,1.8
		c-0.1,0.3-0.5,0.5-0.5,0.9c0,0.2,0.2,0.3,0.2,0.5c0.1,0.4-0.5,0.8-0.4,1.2c0.3,0,0.6,0,0.9,0c0.1,0,0.2,0,0.2-0.1s0-0.1,0-0.2
		c-0.1-0.2-0.3-0.3-0.4-0.5S41,22.1,41,21.9c0.1-0.2,0.3-0.3,0.4-0.3c0.4-0.1,0.8-0.3,1.1-0.4c0.1,0,0.1-0.1,0.2-0.1
		c0.1-0.1,0-0.2,0-0.3c-0.1-0.3-0.3-0.5-0.4-0.8c-0.1-0.1-0.2-0.3-0.2-0.4s0.1-0.2,0.1-0.3c0.4-0.5,0.8-0.9,1.4-1.3
		c-0.4-0.6-0.7-1.2-1-1.8c-0.2-0.4-0.3-0.9,0-1.2c0.1-0.1,0.3-0.2,0.3-0.3s-0.1-0.3-0.2-0.4c-0.5-0.4-0.5-1.2-0.1-1.7
		c0.5,0.1,0.8,0.6,0.9,1c0.1,0.5,0,1-0.4,1.3c0.6,0.4,1.1,0.8,1.7,1.1c0.3,0.2,0.6,0.4,0.5,0.7c0,0.3-0.4,0.5-0.7,0.7
		c0.1-0.2-0.1-0.4-0.4-0.4s-0.3,0.3-0.4,0.5c-0.3-0.4-0.5-0.8-0.7-1.2c-0.2,0.1-0.4,0.4-0.5,0.6c-0.6-0.2-1.1-0.5-1.4-0.9
		c-0.2,0.5-0.4,1-0.7,1.4c-0.1-0.1-0.3-0.3-0.4-0.4c-0.1,0.5-0.2,1-0.1,1.5c0,0.1,0,0.1,0,0.1c0.1,0.1,0.2,0,0.2-0.1
		c0.1-0.1,0.3-0.2,0.4-0.3c0.4,0.4,0.8,0.9,1.2,1.3c0.5-0.5,1.1-0.9,1.8-1.1c-0.2,0.3,0.2,0.7,0.5,0.6s0.6-0.4,0.7-0.7
		c0.1-0.3,0.2-0.6,0.3-0.9"/>
	<path class="st1" d="M45.9,18.7c0.3,0,0.4-0.3,0.3-0.6s-0.3-0.4-0.5-0.5s-0.5-0.2-0.5-0.5c0-0.1,0.2-0.2,0.2-0.4
		c0-0.2-0.1-0.3-0.2-0.4c-0.1-0.1-0.3-0.2-0.4-0.3c-0.2-0.2,0-0.6-0.2-0.8C44.4,15,44,15,43.7,14.8"/>
	<path class="st1" d="M42.3,21.2c-0.7-0.7-1.4-1.4-2-2.2c0.4-0.2,0.9-0.4,1.4-0.4c-0.3-1.3-0.9-2.5-1.8-3.5c0.3,0,0.8-0.2,1-0.1
		c0.2,0.1,0.4,0.5,0.6,0.7c0.5,0.4,1,0.8,1.6,0.9c-1,0.1-2.1,0.1-3.1,0.1c1.3,0.3,2.5,0.8,3.6,1.6c0.5,0.3,1,0.7,1.5,0.8
		c-0.8,0.2-1.5,0.5-2.3,0.8c0.6,0,1.2-0.4,1.6-0.9c0.4-0.5,0.8-1,1.1-1.6c-0.2,0-0.3,0.2-0.3,0.4c0,0.2,0.1,0.4,0.1,0.6
		c0,0.5-0.3,0.8-0.7,1.1c-1.7,1.7-3.5,3.3-5.2,5c-0.3-1.9,0.2-3.8,0.5-5.7c0.2-1.1,0.3-2.3,0.4-3.5c0-0.4,0.1-0.8,0-1.2
		c-0.1-0.6-0.3-1.2-0.1-1.7"/>
	<path class="st1" d="M40.9,21.2c-0.2,0-0.4,0-0.5,0c0.9-0.8,1.8-1.5,2.7-2.2c-0.8-0.2-1.5-0.3-2.3-0.5c1-0.7,1.8-1.5,2.3-2.6
		c-0.6-0.3-1.2-0.7-1.8-1.1c-0.1,0-0.2-0.1-0.2-0.2c-0.1-0.3,0.3-0.4,0.5-0.5c0.3-0.1,0.4-0.5,0.3-0.7s-0.4-0.5-0.7-0.4
		c0-0.2,0-0.4,0.1-0.6c-0.3-0.1-0.6-0.2-0.9-0.4c0.1-0.2,0.3-0.5,0.4-0.7c-0.4,0-0.8-0.1-1.1-0.2c0-0.1,0.1-0.2,0.1-0.2
		c-0.1,0-0.1,0-0.2-0.1c0-0.1,0-0.1,0.1-0.1"/>
	<path class="st1" d="M39.8,12.6c-0.1-0.1-0.2,0.1-0.2,0.2c0,1.1,0.3,2.3,0.9,3.2c-0.2-0.9-0.4-1.8-0.4-2.7c0-0.2,0-0.3,0.1-0.5
		c0-0.1,0.1-0.2,0.2-0.3c0-0.2-0.1-0.4-0.3-0.5s-0.4-0.1-0.6-0.1c0.3-0.2,0.5-0.5,0.5-0.9c-0.1,0-0.2,0-0.3,0
		c0.2,0.2,0.1,0.5,0.1,0.7s-0.2,0.5-0.2,0.7s0.1,0.3,0.2,0.5c0.3,0.5,0.6,1.1,0.3,1.6c-0.1,0.2-0.4,0.3-0.5,0.5
		c-0.2,0.4,0,0.8,0.2,1.1c0,0.1,0.1,0.2,0.1,0.3c0,0.2-0.3,0.4-0.5,0.3c0.5,1,1.1,2,1.7,2.9c0.2,0.2,0.3,0.5,0.5,0.7
		c0.3,0.4,0.5,0.8,0.8,1.2c0.2,0.3,0.6,0.4,0.9,0.2c0-0.4,0-0.8-0.2-1.2c0.5,0,1,0,1.5,0.1c-0.1-0.2-0.2-0.4-0.3-0.5
		c-0.1-0.2-0.3-0.5-0.1-0.7s0.5-0.2,0.8,0c0.2,0.1,0.5,0.3,0.7,0.3c0.1,0,0.1,0,0.2-0.1c0,0,0-0.1,0.1-0.2c0.1-0.4-0.1-0.9-0.4-1.2
		c0.3-0.2,0.9,0,1.1-0.4c0.1-0.2-0.1-0.4-0.2-0.5c-0.2-0.1-0.4-0.2-0.5-0.4c-0.2-0.3,0-0.9,0.4-0.9c-0.4-0.4-1-0.4-1.6-0.3"/>
	<path class="st1" d="M39.8,12.2c-0.1-0.1-0.2,0.1-0.2,0.2c0,1.1,0.3,2.3,0.9,3.2c-0.2-0.9-0.4-1.8-0.4-2.7c0-0.2,0-0.3,0.1-0.5
		c0-0.1,0.1-0.2,0.2-0.3c0-0.2-0.1-0.4-0.3-0.5s-0.4-0.1-0.6-0.1c0.3-0.2,0.5-0.5,0.5-0.9c-0.1,0-0.2,0-0.3,0
		c0.2,0.2,0.1,0.5,0.1,0.7c-0.1,0.2-0.2,0.5-0.2,0.7s0.1,0.3,0.2,0.5c0.3,0.5,0.6,1.1,0.3,1.6c-0.1,0.2-0.4,0.3-0.5,0.5
		c-0.2,0.4,0,0.8,0.2,1.1c0,0.1,0.1,0.2,0.1,0.3c0,0.2-0.3,0.4-0.5,0.3c0.5,1,1.1,2,1.7,2.9c0.2,0.2,0.3,0.5,0.5,0.7
		c0.3,0.4,0.5,0.8,0.8,1.2c0.2,0.3,0.6,0.4,0.9,0.2c0-0.4,0-0.8-0.2-1.2c0.5,0,1,0,1.5,0.1c-0.1-0.2-0.2-0.4-0.3-0.5
		c-0.1-0.2-0.3-0.5-0.1-0.7s0.5-0.2,0.8,0c0.2,0.1,0.5,0.3,0.7,0.3c0.1,0,0.1,0,0.2-0.1c0,0,0-0.1,0.1-0.2c0.1-0.4-0.1-0.9-0.4-1.2
		c0.3-0.2,0.9,0,1.1-0.4c0.1-0.2-0.1-0.4-0.2-0.5s-0.4-0.2-0.5-0.4c-0.2-0.3,0-0.9,0.4-0.9c-0.4-0.4-1-0.4-1.6-0.3"/>
	<path class="st1" d="M39.7,11c-0.1-0.1-0.2,0.1-0.2,0.2c0,1.1,0.2,2.3,0.7,3.2C40,13.6,40,12.7,40,11.8c0-0.2,0-0.3,0.1-0.5
		c0-0.1,0.1-0.2,0.1-0.3c0-0.2-0.1-0.4-0.2-0.5s-0.3-0.1-0.4-0.1c0.2-0.2,0.4-0.5,0.4-0.9c-0.1,0-0.2,0-0.2,0c0.1,0.2,0.1,0.5,0,0.7
		s-0.2,0.5-0.1,0.7c0,0.2,0.1,0.3,0.2,0.5c0.2,0.5,0.5,1.1,0.2,1.6c-0.1,0.2-0.3,0.3-0.4,0.5c-0.1,0.4,0,0.8,0.1,1.1
		c0,0.1,0.1,0.2,0,0.3c0,0.2-0.2,0.4-0.4,0.3c0.4,1,0.8,2,1.3,2.9c0.1,0.2,0.2,0.5,0.4,0.7c0.2,0.4,0.4,0.8,0.6,1.2
		c0.1,0.3,0.5,0.4,0.7,0.2c0-0.4,0-0.8-0.2-1.2c0.4,0,0.8,0,1.2,0.1c-0.1-0.2-0.2-0.4-0.3-0.5c-0.1-0.2-0.2-0.5-0.1-0.7
		c0.1-0.2,0.4-0.2,0.6,0c0.2,0.1,0.4,0.3,0.6,0.3c0.1,0,0.1,0,0.1-0.1c0,0,0-0.1,0-0.2c0-0.4-0.1-0.9-0.3-1.2c0.2-0.2,0.7,0,0.8-0.4
		c0.1-0.2,0-0.4-0.2-0.5c-0.1-0.1-0.3-0.2-0.4-0.4c-0.2-0.3,0-0.9,0.3-0.9c-0.3-0.4-0.8-0.4-1.2-0.3"/>
	<path class="st1" d="M42.2,22.7c-0.4-0.3-0.7-0.6-1.1-0.8L41,21.8c-0.1-0.1,0.1-0.3,0.2-0.3c0.5-0.3,0.9-0.6,1.3-0.9
		c0.1-0.1,0.2-0.2,0.2-0.4c0-0.1-0.1-0.2-0.1-0.3c-0.5-0.8-1.1-1.7-1.1-2.7c0.4-0.2,0.9-0.4,1.3-0.5c-0.4-0.6-0.9-1.1-1.5-1.4
		c0.3-0.4,0.7-0.8,1.1-1c-0.5-0.4-1-0.7-1.6-0.8"/>
	<path class="st1" d="M40.3,21.9c0.5,0.4,0.8,1.5,1.1,2.1c-0.3,0.1-0.5-0.2-0.7-0.5s-0.3-0.7-0.5-1c0.3,0.4,0.3,1,0.6,1.5
		c0.2,0.4,0.5,0.7,0.4,1.2c-0.3-0.6-0.7-1.2-1-1.8c0.2,0.4,0.3,0.8,0.3,1.3c0,0.2,0,0.4-0.1,0.4c-0.1,0.1-0.3-0.2-0.4-0.4
		c-0.1-0.3-0.2-0.7-0.3-1c0.4,0.3,0.6,1.2,0.4,1.8c-0.1-0.1-0.2-0.2-0.3-0.3c-0.1-0.1-0.2-0.3-0.2-0.5s0-0.4,0.1-0.5
		c0.1,0,0.2,0,0.3-0.1"/>
	<path class="st1" d="M43,23.4c-0.3,0-0.6-0.1-0.8-0.3c-0.3-0.2-0.5-0.5-0.5-0.9c0-0.3,0.4-0.7,0.7-0.5c0,0.3,0,0.6,0,0.9
		c0,0.1,0,0.2-0.1,0.3c-0.2,0.2-0.5,0.3-0.8,0.3c-0.2,0-0.3,0-0.4-0.1c-0.1-0.1-0.1-0.4,0-0.6c0.2-0.5,0.5-1,0.8-1.4
		c0.4,0,0.7,0.1,1,0.3c0.3,0.2,0.5,0.6,0.4,0.9c-1.1,0.1-2.3-0.2-3.2-0.8c-0.2-0.2-0.5-0.4-0.5-0.6c0-0.4,0.4-0.6,0.7-0.7
		c0.4,0,0.7,0.1,1.1,0.1c0-0.5-0.2-1.1-0.7-1.4c-0.1-0.1-0.3-0.2-0.3-0.3c-0.1-0.2,0.1-0.4,0.2-0.5c0.7-0.6,1.5-1.1,2.4-1.3"/>
	<path class="st1" d="M43,21.9c-0.3,0-0.6-0.1-0.8-0.3c-0.3-0.2-0.5-0.5-0.5-0.9c0-0.3,0.4-0.7,0.7-0.5c0,0.3,0,0.6,0,0.9
		c0,0.1,0,0.2-0.1,0.3c-0.2,0.2-0.5,0.3-0.8,0.3c-0.2,0-0.3,0-0.4-0.1c-0.1-0.1-0.1-0.4,0-0.6c0.2-0.5,0.5-1,0.8-1.4
		c0.4,0,0.7,0.1,1,0.3c0.3,0.2,0.5,0.6,0.4,0.9c-1.1,0.1-2.3-0.2-3.2-0.8c-0.2-0.2-0.5-0.4-0.5-0.6c0-0.4,0.4-0.6,0.7-0.7
		c0.4,0,0.7,0.1,1.1,0.1c0-0.5-0.2-1.1-0.7-1.4c-0.1-0.1-0.3-0.2-0.3-0.3c-0.1-0.2,0.1-0.4,0.2-0.5c0.7-0.6,1.5-1.1,2.4-1.3"/>
	<path class="st1" d="M43.4,21.7c-0.3,0-0.6-0.1-0.8-0.3c-0.3-0.2-0.5-0.5-0.5-0.9c0-0.3,0.4-0.7,0.7-0.5c0,0.3,0,0.6,0,0.9
		c0,0.1,0,0.2-0.1,0.3c-0.2,0.2-0.5,0.3-0.8,0.3c-0.2,0-0.3,0-0.4-0.1c-0.1-0.1-0.1-0.4,0-0.6c0.2-0.5,0.5-1,0.8-1.4
		c0.4,0,0.7,0.1,1,0.3c0.3,0.2,0.5,0.6,0.4,0.9c-1.1,0.1-2.3-0.2-3.2-0.8c-0.2-0.2-0.5-0.4-0.5-0.6c0-0.4,0.4-0.6,0.7-0.7
		c0.4,0,0.7,0.1,1.1,0.1c0-0.5-0.2-1.1-0.7-1.4c-0.1-0.1-0.3-0.2-0.3-0.3c-0.1-0.2,0.1-0.4,0.2-0.5c0.7-0.6,1.5-1.1,2.4-1.3"/>
	<path class="st0" d="M39.5,9.5c0.3,0.1,0.6,0.3,0.9,0.5l5.8,6.3c0.7,0.8,0.7,2.1,0,2.9l-5.8,6.3c-0.2,0.3-0.5,0.4-0.9,0.5v1
		c0.6-0.1,1.1-0.4,1.5-0.8l5.8-6.3c1.1-1.2,1.1-3.2,0-4.4L41,9.3c-0.4-0.5-1-0.7-1.5-0.8V9.5z"/>
</g>
<g>
	<path class="st2" d="M11.1,6.6c-0.3,0.1-0.4,0.4-0.3,0.7s0.3,0.4,0.6,0.5c0.2,0.1,0.5,0.2,0.7,0.3c-0.9,0.2-1.7,0.7-2.4,1.3
		c0.5,0.4,0.9,0.8,1.4,1.1c-0.5,0.1-1,0.4-1.2,0.9s0,1.2,0.5,1.3c0.2,0.1,0.6,0,0.6,0.3c0,0.1,0,0.2,0,0.2c0.1,0.4,0,0.8,0,1.2
		c0.2,0.1,0.5,0.1,0.8,0.2s0.5,0.3,0.5,0.6c0,0.1-0.1,0.2-0.1,0.3c0,0.2,0.2,0.3,0.4,0.4c0.3,0.1,0.6,0,0.9-0.1
		c0,0.3-0.1,0.6-0.1,0.9c0.3,0.2,0.6-0.1,0.6-0.4c0-0.3-0.2-0.6-0.4-0.8s-0.5-0.4-0.6-0.7c0.3,0,0.6-0.2,0.7-0.4
		c0.1-0.3,0-0.6-0.2-0.8c-0.1-0.1-0.3-0.2-0.4-0.3S12.9,13,13,12.9c0-0.1,0.1-0.1,0.2-0.2c0.3-0.2,0.6-0.4,0.9-0.5
		c-0.3-0.3-0.5-0.7-0.4-1.1c0.1-0.4,0.4-0.8,0.7-0.9c-0.3-0.2-0.7-0.5-0.6-0.9c0-0.2,0.2-0.4,0.3-0.6c0.2-0.6-0.8-1.2-0.6-1.8
		C13.6,6.6,14,6.4,14,6c0-0.2-0.2-0.3-0.2-0.5c-0.1-0.4,0.5-0.8,0.4-1.2c-0.3,0-0.6,0-0.9,0c-0.1,0-0.2,0-0.2,0.1s0,0.1,0,0.2
		c0.1,0.2,0.3,0.3,0.4,0.5c0.1,0.1,0.3,0.4,0.2,0.6S13.4,6,13.3,6c-0.4,0.1-0.8,0.3-1.1,0.4c-0.1,0-0.1,0.1-0.2,0.1
		c-0.1,0.1,0,0.2,0,0.3c0.1,0.3,0.3,0.5,0.4,0.8c0.1,0.1,0.2,0.3,0.2,0.4s-0.1,0.2-0.1,0.3c-0.4,0.5-0.8,0.9-1.4,1.3
		c0.4,0.6,0.7,1.2,1,1.8c0.2,0.4,0.3,0.9,0,1.2c-0.1,0.1-0.3,0.2-0.3,0.3s0.1,0.3,0.2,0.4c0.5,0.4,0.5,1.2,0.1,1.7
		c-0.5-0.1-0.8-0.6-0.9-1c-0.1-0.5,0-1,0.4-1.3c-0.6-0.4-1.1-0.8-1.7-1.1c-0.3-0.2-0.6-0.4-0.5-0.7c0-0.3,0.4-0.5,0.7-0.7
		c-0.1,0.2,0.1,0.4,0.4,0.4c0.2-0.1,0.3-0.3,0.4-0.5c0.3,0.4,0.5,0.8,0.7,1.2c0.2-0.1,0.4-0.4,0.5-0.6c0.6,0.2,1.1,0.5,1.4,0.9
		c0.2-0.5,0.4-1,0.7-1.4c0.1,0.1,0.3,0.3,0.4,0.4c0.1-0.5,0.2-1,0.1-1.5c0-0.1,0-0.1,0-0.1c-0.1-0.1-0.2,0-0.2,0.1
		c-0.4-0.3-0.5-0.1-0.6,0c-0.4-0.4-0.8-0.9-1.2-1.3c-0.5,0.5-1.1,0.9-1.8,1.1c0.2-0.3-0.2-0.7-0.5-0.6C10,8.2,9.8,8.6,9.7,8.9
		C9.5,9.2,9.4,9.5,9.3,9.8"/>
	<path class="st2" d="M10.3,5.4C10,5.5,9.9,5.8,10,6.1s0.3,0.4,0.6,0.5c0.2,0.1,0.5,0.2,0.7,0.3c-0.9,0.2-1.7,0.7-2.4,1.3
		c0.5,0.4,1,0.8,1.5,1.1c-0.5,0.1-1,0.4-1.2,0.9s0,1.2,0.5,1.3c0.2,0.1,0.6,0,0.6,0.3c0,0.1,0,0.2,0,0.2c-0.1,0.4-0.1,0.8-0.2,1.1
		c0.2,0.1,0.5,0.1,0.8,0.2s0.5,0.3,0.5,0.6c0,0.1-0.1,0.2-0.1,0.3c0,0.2,0.2,0.3,0.4,0.4c0.3,0.1,0.6,0,0.9-0.1
		c0,0.3-0.1,0.6-0.1,0.9c0.3,0.2,0.6-0.1,0.6-0.4c0-0.3-0.2-0.6-0.4-0.8s-0.5-0.4-0.6-0.7c0.3,0,0.6-0.2,0.7-0.4
		c0.1-0.3,0-0.6-0.2-0.8c-0.1-0.1-0.3-0.2-0.4-0.3s-0.2-0.3-0.1-0.4c0-0.1,0.1-0.1,0.2-0.2c0.3-0.2,0.6-0.4,0.9-0.5
		c-0.3-0.3-0.5-0.7-0.4-1.1c0.1-0.4,0.4-0.8,0.7-0.9C13.4,8.7,13,8.4,13.1,8c0-0.2,0.2-0.4,0.3-0.6c0.2-0.6-0.8-1.2-0.6-1.8
		c0.1-0.3,0.5-0.5,0.5-0.9c0-0.2-0.2-0.3-0.2-0.5C13,3.8,13.6,3.4,13.5,3c-0.3,0-0.6,0-0.9,0c-0.1,0-0.2,0-0.2,0.1s0,0.1,0,0.2
		c0.1,0.2,0.3,0.3,0.4,0.5c0.1,0.1,0.3,0.4,0.2,0.6s-0.3,0.3-0.4,0.3c-0.4,0.1-0.8,0.3-1.1,0.4c-0.1,0-0.1,0.1-0.2,0.1
		c-0.1,0.1,0,0.2,0,0.3c0.1,0.3,0.3,0.5,0.4,0.8c0.1,0.1,0.2,0.3,0.2,0.4S11.8,6.9,11.8,7c-0.4,0.5-0.8,0.9-1.4,1.3
		c0.4,0.6,0.7,1.2,1,1.8c0.2,0.4,0.3,0.9,0,1.2c-0.1,0.1-0.3,0.2-0.3,0.3s0.1,0.3,0.2,0.4c0.5,0.4,0.5,1.2,0.1,1.7
		c-0.5-0.1-0.8-0.6-0.9-1c-0.1-0.5,0-1,0.4-1.3c-0.6-0.4-1.1-0.8-1.7-1.1C8.7,9.9,8.4,9.7,8.4,9.4s0.4-0.5,0.7-0.7
		C8.9,8.9,9.2,9.2,9.4,9.1C9.7,9,9.8,8.8,9.9,8.6c0.3,0.4,0.5,0.8,0.7,1.2c0.2-0.1,0.4-0.4,0.5-0.6c0.6,0.2,1.1,0.5,1.4,0.9
		c0.2-0.5,0.4-1,0.7-1.4c0.1,0.1,0.3,0.3,0.4,0.4c0.1-0.5,0.2-1,0.1-1.5c0-0.1,0-0.1,0-0.1c-0.1-0.1-0.2,0-0.2,0.1
		c-0.1,0.1-0.3,0.2-0.4,0.3c-0.4-0.4-0.8-0.9-1.2-1.3c-0.5,0.5-1.1,0.9-1.8,1.1C10.3,7.4,9.9,7,9.6,7S9,7.4,8.9,7.7
		C8.7,8,8.6,8.3,8.6,8.6"/>
	<path class="st2" d="M10.4,7c-0.3,0.1-0.4,0.4-0.3,0.7s0.3,0.4,0.6,0.5c0.2,0.1,0.5,0.2,0.7,0.3C10.5,8.7,9.7,9.2,9,9.8
		c0.5,0.4,0.9,0.8,1.4,1.1c-0.5,0.1-1,0.4-1.2,0.9s0,1.2,0.5,1.3c0.2,0.1,0.6,0,0.6,0.3c0,0.1,0,0.2,0,0.2c-0.1,0.4-0.1,0.8-0.2,1.1
		c0.2,0.1,0.5,0.1,0.8,0.2c0.3,0.1,0.5,0.3,0.5,0.6c0,0.1-0.1,0.2-0.1,0.3c0,0.2,0.2,0.3,0.4,0.4c0.3,0.1,0.6,0,0.9-0.1
		c0,0.3-0.1,0.6-0.1,0.9c0.3,0.2,0.6-0.1,0.6-0.4s-0.2-0.6-0.4-0.8s-0.5-0.4-0.6-0.7c0.3,0,0.6-0.2,0.7-0.4c0.1-0.3,0-0.6-0.2-0.8
		c-0.1-0.1-0.3-0.2-0.4-0.3c-0.1-0.1-0.2-0.3-0.1-0.4c0-0.1,0.1-0.1,0.2-0.2c0.3-0.2,0.6-0.4,0.9-0.5c-0.3-0.3-0.5-0.7-0.4-1.1
		c0.1-0.4,0.4-0.8,0.7-0.9c-0.3-0.2-0.7-0.5-0.6-0.9c0-0.2,0.2-0.4,0.3-0.6c0.2-0.6-0.8-1.2-0.6-1.8c0.1-0.3,0.5-0.5,0.5-0.9
		c0-0.2-0.2-0.3-0.2-0.5c-0.1-0.4,0.5-0.8,0.4-1.2c-0.3,0-0.6,0-0.9,0c-0.1,0-0.2,0-0.2,0.1s0,0.1,0,0.2c0.1,0.2,0.3,0.3,0.4,0.5
		S13.1,5.8,13,6s-0.3,0.3-0.4,0.3c-0.4,0.1-0.8,0.3-1.1,0.4c-0.1,0-0.1,0.1-0.2,0.1c-0.1,0.1,0,0.2,0,0.3c0.1,0.3,0.3,0.5,0.4,0.8
		c0.1,0.1,0.2,0.3,0.2,0.4c0,0.1-0.1,0.2-0.1,0.3c-0.4,0.5-0.8,0.9-1.4,1.3c0.4,0.6,0.7,1.2,1,1.8c0.2,0.4,0.3,0.9,0,1.2
		C11.2,13,11.1,13,11,13.2c0,0.1,0.1,0.3,0.2,0.4c0.5,0.4,0.5,1.2,0.1,1.7c-0.5-0.1-0.8-0.6-0.9-1c-0.1-0.5,0-1,0.4-1.3
		c-0.6-0.4-1.1-0.8-1.7-1.1c-0.3-0.2-0.6-0.4-0.5-0.7c0-0.3,0.4-0.5,0.7-0.7c-0.1,0.2,0.1,0.4,0.4,0.4c0.2-0.1,0.3-0.3,0.4-0.5
		c0.3,0.4,0.5,0.8,0.7,1.2c0.2-0.1,0.4-0.4,0.5-0.6c0.6,0.2,1.1,0.5,1.4,0.9c0.2-0.5,0.4-1,0.7-1.4c0.1,0.1,0.3,0.3,0.4,0.4
		c0.1-0.5,0.2-1,0.1-1.5c0-0.1,0-0.1,0-0.1c-0.1-0.1-0.2,0-0.2,0.1c-0.1,0.1-0.3,0.2-0.4,0.3c-0.4-0.4-0.8-0.9-1.2-1.3
		c-0.5,0.5-1.1,0.9-1.8,1.1c0.2-0.3-0.2-0.7-0.5-0.6C9.4,8.7,9.2,9,9,9.4C8.9,9.7,8.8,10,8.7,10.3"/>
	<path class="st2" d="M8.2,9.1c-0.3,0-0.4,0.3-0.3,0.6c0.1,0.2,0.3,0.4,0.5,0.5s0.5,0.2,0.5,0.5c0,0.1-0.2,0.2-0.2,0.4
		s0.1,0.3,0.2,0.4s0.3,0.2,0.4,0.3c0.2,0.2,0,0.6,0.2,0.8s0.6,0.2,0.8,0.4"/>
	<path class="st2" d="M11.8,6.6c0.7,0.7,1.4,1.4,2,2.2c-0.4,0.2-0.9,0.4-1.4,0.4c0.3,1.3,0.9,2.5,1.8,3.5c-0.3,0-0.8,0.2-1,0.1
		c-0.2-0.1-0.4-0.5-0.6-0.7c-0.5-0.4-1-0.8-1.6-0.9c1-0.1,2.1-0.1,3.1-0.1c-1.3-0.3-2.5-0.8-3.6-1.6C10,9.2,9.5,8.8,9,8.7
		c0.8-0.2,1.5-0.5,2.3-0.8C10.6,8,10,8.4,9.5,8.9c-0.4,0.5-0.8,1-1.1,1.6c0.2,0,0.3-0.2,0.3-0.4S8.6,9.7,8.6,9.5
		C8.6,9,9,8.6,9.3,8.3c1.7-1.7,3.5-3.3,5.2-5C14.8,5.1,14.3,7,14,8.9c-0.2,1.1-0.3,2.3-0.4,3.5c0,0.4-0.1,0.8,0,1.2
		c0.1,0.6,0.3,1.2,0.1,1.7"/>
	<path class="st2" d="M13.1,6.6c0.2,0,0.4,0,0.5,0c-0.9,0.8-1.8,1.5-2.7,2.2c0.8,0.2,1.5,0.3,2.3,0.5c-1,0.7-1.8,1.5-2.3,2.6
		c0.6,0.3,1.2,0.7,1.8,1.1c0.1,0,0.2,0.1,0.2,0.2c0.1,0.3-0.3,0.4-0.5,0.5c-0.3,0.1-0.4,0.5-0.3,0.7c0.1,0.3,0.4,0.5,0.7,0.4
		c0,0.2,0,0.4-0.1,0.6c0.3,0.1,0.6,0.2,0.9,0.4c-0.1,0.2-0.3,0.5-0.4,0.7c0.4,0,0.8,0.1,1.1,0.2c0,0.1-0.1,0.2-0.1,0.2
		c0.1,0,0.1,0,0.2,0.1c0,0.1,0,0.1-0.1,0.1"/>
	<path class="st2" d="M14.3,15.2c0.1,0.1,0.2-0.1,0.2-0.2c0-1.1-0.3-2.3-0.9-3.2c0.2,0.9,0.4,1.8,0.4,2.7c0,0.2,0,0.3-0.1,0.5
		c0,0.1-0.1,0.2-0.2,0.3c0,0.2,0.1,0.4,0.3,0.5s0.4,0.1,0.6,0.1c-0.3,0.2-0.5,0.5-0.5,0.9c0.1,0,0.2,0,0.3,0
		c-0.2-0.2-0.1-0.5-0.1-0.7c0.1-0.2,0.2-0.5,0.2-0.7s-0.1-0.3-0.2-0.5c-0.3-0.5-0.6-1.1-0.3-1.6c0.1-0.2,0.4-0.3,0.5-0.5
		c0.2-0.4,0-0.8-0.2-1.1c0-0.1-0.1-0.2-0.1-0.3c0-0.2,0.3-0.4,0.5-0.3c-0.5-1-1.1-2-1.7-2.9c-0.2-0.2-0.3-0.5-0.5-0.7
		C12.3,7,12,6.6,11.7,6.2c-0.2-0.3-0.6-0.4-0.9-0.2c0,0.4,0,0.8,0.2,1.2c-0.5,0-1,0-1.5-0.1c0.1,0.2,0.2,0.4,0.3,0.5
		c0.1,0.2,0.3,0.5,0.1,0.7s-0.5,0.2-0.8,0S8.7,8.1,8.4,8.1c-0.1,0-0.1,0-0.2,0.1c0,0,0,0.1-0.1,0.2c0,0.3,0.2,0.8,0.5,1.1
		c-0.3,0.2-0.9,0-1.1,0.4c-0.1,0.2,0.1,0.4,0.2,0.5c0.2,0.1,0.4,0.2,0.5,0.4c0.2,0.3,0,0.9-0.4,0.9c0.4,0.4,1,0.4,1.6,0.3"/>
	<path class="st2" d="M14.2,15.6c0.1,0.1,0.2-0.1,0.2-0.2c0-1.1-0.3-2.3-0.9-3.2c0.2,0.9,0.4,1.8,0.4,2.7c0,0.2,0,0.3-0.1,0.5
		c0,0.1-0.1,0.2-0.2,0.3c0,0.2,0.1,0.4,0.3,0.5s0.4,0.1,0.6,0.1c-0.3,0.2-0.5,0.5-0.5,0.9c0.1,0,0.2,0,0.3,0
		c-0.2-0.2-0.1-0.5-0.1-0.7c0.1-0.2,0.2-0.5,0.2-0.7s-0.1-0.3-0.2-0.5c-0.3-0.5-0.6-1.1-0.3-1.6c0.1-0.2,0.4-0.3,0.5-0.5
		c0.2-0.4,0-0.8-0.2-1.1c0-0.1-0.1-0.2-0.1-0.3c0-0.2,0.3-0.4,0.5-0.3c-0.5-1-1.1-2-1.7-2.9c-0.2-0.2-0.3-0.5-0.5-0.7
		C12.3,7.4,12,7,11.7,6.6c-0.2-0.3-0.6-0.4-0.9-0.2c0,0.4,0,0.8,0.2,1.2c-0.5,0-1,0-1.5-0.1C9.6,7.7,9.7,7.8,9.8,8s0.3,0.5,0.1,0.7
		C9.8,9,9.4,8.9,9.2,8.8C8.9,8.7,8.7,8.5,8.4,8.5c-0.1,0-0.1,0-0.2,0.1c0,0,0,0.1-0.1,0.2c0,0.3,0.2,0.8,0.5,1.1
		c-0.3,0.2-0.9,0-1.1,0.4c-0.1,0.2,0.1,0.4,0.2,0.5s0.4,0.2,0.5,0.4c0.2,0.3,0,0.9-0.4,0.9c0.4,0.4,1,0.4,1.6,0.3"/>
	<path class="st2" d="M14.4,16.8c0.1,0.1,0.2-0.1,0.2-0.2c0-1.1-0.2-2.3-0.7-3.2c0.2,0.9,0.3,1.8,0.3,2.7c0,0.2,0,0.3-0.1,0.5
		c0,0.1-0.1,0.2-0.1,0.3c0,0.2,0.1,0.4,0.2,0.5c0.1,0.1,0.3,0.1,0.4,0.1c-0.2,0.2-0.4,0.5-0.4,0.9c0.1,0,0.2,0,0.2,0
		c-0.1-0.2-0.1-0.5,0-0.7s0.2-0.5,0.1-0.7c0-0.2-0.1-0.3-0.2-0.5c-0.2-0.5-0.5-1.1-0.2-1.6c0.1-0.2,0.3-0.3,0.4-0.5
		c0.1-0.4,0-0.8-0.1-1.1c0-0.1-0.1-0.2,0-0.3c0-0.2,0.2-0.4,0.4-0.3c-0.4-1-0.8-2-1.3-2.9c-0.1-0.2-0.2-0.5-0.4-0.7
		c-0.2-0.4-0.4-0.8-0.6-1.2c-0.1-0.3-0.5-0.4-0.7-0.2c0,0.4,0,0.8,0.2,1.2c-0.4,0-0.8,0-1.2-0.1C10.9,9,11,9.2,11.1,9.3
		c0.1,0.2,0.2,0.5,0.1,0.7c-0.1,0.2-0.4,0.2-0.6,0S10.2,9.7,10,9.7c-0.1,0-0.1,0-0.1,0.1c0,0,0,0.1,0,0.2c0,0.4,0.1,0.9,0.3,1.2
		c-0.2,0.2-0.7,0-0.8,0.4c-0.1,0.2,0,0.4,0.2,0.5c0.1,0.1,0.3,0.2,0.4,0.4c0.2,0.3,0,0.9-0.3,0.9c0.3,0.4,0.8,0.4,1.2,0.3"/>
	<path class="st2" d="M11.8,5.2c0.4,0.3,0.7,0.6,1.1,0.8C13,6,13,6.1,13,6.1c0.1,0.1-0.1,0.3-0.2,0.3c-0.5,0.3-0.9,0.6-1.3,0.9
		c-0.1,0.1-0.2,0.2-0.2,0.4c0,0.1,0.1,0.2,0.1,0.3c0.5,0.8,1.1,1.7,1.1,2.7c-0.4,0.2-0.9,0.4-1.3,0.5c0.4,0.6,0.9,1.1,1.5,1.4
		c-0.3,0.4-0.7,0.8-1.1,1c0.5,0.4,1,0.7,1.6,0.8"/>
	<path class="st2" d="M13.8,6c-0.5-0.4-0.8-1.5-1.1-2.1C13,3.8,13.2,4,13.4,4.3s0.3,0.7,0.5,1c-0.3-0.4-0.3-1-0.6-1.5
		c-0.2-0.4-0.5-0.7-0.4-1.2c0.3,0.6,0.7,1.2,1,1.8c-0.2-0.4-0.3-0.8-0.3-1.3c0-0.2,0-0.4,0.1-0.4c0.1-0.1,0.3,0.2,0.4,0.4
		c0.1,0.3,0.2,0.7,0.3,1C14,3.8,13.8,2.9,14,2.3c0.1,0.1,0.2,0.2,0.3,0.3s0.2,0.3,0.2,0.5s0,0.4-0.1,0.5c-0.1,0-0.2,0-0.3,0.1"/>
	<path class="st2" d="M11.1,4.4c0.3,0,0.6,0.1,0.8,0.3c0.3,0.2,0.5,0.5,0.5,0.9c0,0.3-0.4,0.7-0.7,0.5c0-0.3,0-0.6,0-0.9
		c0-0.1,0-0.2,0.1-0.3c0.2-0.2,0.5-0.3,0.8-0.3c0.2,0,0.3,0,0.4,0.1c0.1,0.1,0.1,0.4,0,0.6c-0.2,0.5-0.5,1-0.8,1.4
		c-0.4,0-0.7-0.1-1-0.3c-0.3-0.2-0.5-0.6-0.4-0.9c1.1-0.1,2.3,0.2,3.2,0.8c0.2,0.2,0.5,0.4,0.5,0.6c0,0.4-0.4,0.6-0.7,0.7
		c-0.4,0-0.7-0.1-1.1-0.1c0,0.5,0.2,1.1,0.7,1.4c0.1,0.1,0.3,0.2,0.3,0.3c0.1,0.2-0.1,0.4-0.2,0.5c-0.7,0.6-1.5,1.1-2.4,1.3"/>
	<path class="st2" d="M11.1,5.9c0.3,0,0.6,0.1,0.8,0.3c0.3,0.2,0.5,0.5,0.5,0.9c0,0.3-0.4,0.7-0.7,0.5c0-0.3,0-0.6,0-0.9
		c0-0.1,0-0.2,0.1-0.3c0.2-0.2,0.5-0.3,0.8-0.3c0.2,0,0.3,0,0.4,0.1c0.1,0.1,0.1,0.4,0,0.6c-0.2,0.5-0.5,1-0.8,1.4
		c-0.4,0-0.7-0.1-1-0.3S10.7,7.3,10.8,7c1.2,0,2.3,0.3,3.3,0.9c0.2,0.2,0.5,0.4,0.5,0.6c0,0.4-0.4,0.6-0.7,0.7
		c-0.4,0-0.7-0.1-1.1-0.1c0,0.5,0.2,1.1,0.7,1.4c0.1,0.1,0.3,0.2,0.3,0.3c0.1,0.2-0.1,0.4-0.2,0.5c-0.7,0.6-1.5,1.1-2.4,1.3"/>
	<path class="st2" d="M10.7,6.1c0.3,0,0.6,0.1,0.8,0.3C11.8,6.7,12,7,12,7.3S11.6,8,11.3,7.8c0-0.3,0-0.6,0-0.9c0-0.1,0-0.2,0.1-0.3
		c0.2-0.2,0.5-0.3,0.8-0.3c0.2,0,0.3,0,0.4,0.1c0.1,0.1,0.1,0.4,0,0.6c-0.2,0.5-0.5,1-0.8,1.4c-0.4,0-0.7-0.1-1-0.3
		s-0.5-0.6-0.4-0.9c1.1-0.1,2.3,0.2,3.2,0.8c0.2,0.2,0.5,0.4,0.5,0.6c0,0.4-0.4,0.6-0.7,0.7c-0.4,0-0.7-0.1-1.1-0.1
		c0,0.5,0.2,1.1,0.7,1.4c0.1,0.1,0.3,0.2,0.3,0.3c0.1,0.2-0.1,0.4-0.2,0.5c-0.7,0.6-1.5,1.1-2.4,1.3"/>
	<path class="st3" d="M14.6,18.3c-0.3-0.1-0.6-0.3-0.9-0.5l-5.8-6.3c-0.7-0.8-0.7-2.1,0-2.9l5.8-6.3c0.2-0.3,0.5-0.4,0.9-0.5v-1
		c-0.6,0.1-1.1,0.4-1.5,0.8L7.3,7.9c-1.1,1.2-1.1,3.2,0,4.4l5.8,6.3c0.4,0.5,1,0.7,1.5,0.8V18.3z"/>
</g>
</svg>
