<?xml version="1.0" encoding="utf-8"?>
<!-- Generator: Adobe Illustrator 23.0.2, SVG Export Plug-In . SVG Version: 6.00 Build 0)  -->
<svg version="1.1" id="Layer_1" xmlns="http://www.w3.org/2000/svg" xmlns:xlink="http://www.w3.org/1999/xlink" x="0px" y="0px"
	 viewBox="0 0 20 20" style="enable-background:new 0 0 20 20;" xml:space="preserve">
<style type="text/css">
	.st0{fill:#FFFFFF;}
	.st1{fill:none;stroke:#FCEF08;stroke-width:0.25;stroke-miterlimit:10;}
	.st2{fill:#E0800E;}
	.st3{fill:none;stroke:#FFFFFF;stroke-width:0.25;stroke-miterlimit:10;}
</style>
<rect x="34.5" y="24.1" class="st0" width="20" height="20"/>
<g>
	<path class="st1" d="M10.4,6.5c-0.3,0.1-0.4,0.4-0.3,0.7s0.3,0.4,0.6,0.5c0.2,0.1,0.5,0.2,0.7,0.3C10.5,8.2,9.7,8.7,9,9.3
		c0.5,0.4,0.9,0.8,1.4,1.1c-0.5,0.1-1,0.4-1.2,0.9s0,1.2,0.5,1.3c0.2,0.1,0.6,0,0.6,0.3c0,0.1,0,0.2,0,0.2c-0.1,0.4-0.1,0.8-0.2,1.1
		c0.5,0.2,0.7,0.2,1,0.3s0.5,0.3,0.5,0.6c0,0.1-0.1,0.2-0.1,0.3c0,0.2,0.2,0.3,0.4,0.4c0.4,0,0.7-0.1,1-0.1c0,0.3,0,0.6-0.1,0.9
		c0.3,0.1,0.6-0.2,0.6-0.5c0-0.3-0.2-0.6-0.4-0.8s-0.5-0.4-0.6-0.7c0.3,0,0.6-0.2,0.7-0.4c0.1-0.2,0-0.6-0.2-0.8
		c-0.1-0.1-0.3-0.2-0.4-0.3c-0.1-0.1-0.1-0.3-0.1-0.4c0-0.1,0.1-0.1,0.2-0.2c0.3-0.2,0.6-0.4,0.9-0.5c-0.3-0.3-0.5-0.7-0.4-1.1
		c0-0.4,0.3-0.7,0.7-0.9c-0.3-0.2-0.7-0.5-0.6-0.9c0-0.2,0.2-0.4,0.3-0.6c0.2-0.6-0.8-1.2-0.6-1.8c0.1-0.3,0.5-0.5,0.5-0.9
		c0-0.2-0.2-0.3-0.2-0.5c-0.1-0.4,0.5-0.8,0.4-1.2c-0.3,0-0.6,0-0.9,0c-0.1,0-0.2,0-0.2,0.1s0,0.1,0,0.2c0.1,0.2,0.3,0.3,0.4,0.5
		s0.3,0.4,0.2,0.6s-0.3,0.3-0.4,0.3c-0.4,0.1-0.8,0.3-1.1,0.4c-0.1,0-0.1,0.1-0.2,0.1c-0.1,0.1,0,0.2,0,0.3c0.1,0.3,0.3,0.5,0.4,0.8
		c0,0.1,0.1,0.3,0.1,0.4S11.8,8,11.8,8.1c-0.4,0.5-0.9,0.9-1.4,1.3c0.4,0.6,0.7,1.2,1,1.8c0.2,0.4,0.3,0.9,0,1.2
		c-0.1,0.1-0.3,0.2-0.3,0.3s0.1,0.3,0.2,0.4c0.4,0.3,0.5,1.2,0,1.6c-0.5-0.1-0.8-0.6-0.9-1c-0.1-0.5,0-1,0.4-1.3
		c-0.6-0.4-1.1-0.8-1.7-1.1c-0.3-0.2-0.6-0.4-0.5-0.7c0-0.3,0.4-0.5,0.7-0.7c-0.1,0.2,0.1,0.4,0.4,0.4S10,10,10.1,9.8
		c0.1,0.3,0.4,0.7,0.6,1.1c0.2-0.1,0.4-0.3,0.5-0.6c0.5,0.2,1,0.5,1.4,0.9c0.2-0.5,0.4-1,0.7-1.4c0.2,0.2,0.3,0.3,0.4,0.4
		c0.2-0.5,0.2-1,0.2-1.4c0-0.1,0-0.1,0-0.1c-0.1-0.1-0.2,0-0.2,0.1c-0.1,0.1-0.3,0.2-0.4,0.3c-0.4-0.4-0.8-0.9-1.2-1.3
		c-0.5,0.5-1.1,0.9-1.8,1.1c0.2-0.3-0.2-0.7-0.5-0.6S9.2,8.7,9.1,9C9,9.3,8.9,9.6,8.8,9.9"/>
	<path class="st1" d="M9.6,5.4C9.3,5.5,9.2,5.8,9.3,6.1s0.3,0.4,0.6,0.5c0.2,0.1,0.5,0.2,0.7,0.3C9.7,7.1,8.9,7.6,8.2,8.2
		C8.7,8.6,9.1,9,9.6,9.3c-0.5,0.1-1,0.4-1.2,0.9s0,1.2,0.5,1.3c0.2,0.1,0.6,0,0.6,0.3c0,0.1,0,0.2,0,0.2c-0.1,0.4-0.1,0.8-0.2,1.1
		c0.2,0.1,0.5,0.1,0.8,0.2c0.3,0.1,0.8,0.4,0.7,0.6c0,0.1-0.1,0.2-0.1,0.3c0,0.2,0.2,0.3,0.4,0.4c0.3,0.1,0.6,0,0.9-0.1
		c0,0.3-0.1,0.6-0.1,0.9c0.4,0.2,0.8-0.1,0.8-0.4s-0.2-0.6-0.4-0.8c-0.3-0.2-0.6-0.4-0.7-0.7c0.3,0,0.6-0.2,0.7-0.5
		c0.1-0.3,0-0.6-0.2-0.8c-0.1-0.1-0.2-0.1-0.3-0.2s-0.2-0.3-0.1-0.4c0-0.1,0.1-0.1,0.2-0.2c0.2-0.3,0.5-0.4,0.8-0.6
		c-0.3-0.3-0.5-0.7-0.4-1.1c0.1-0.4,0.4-0.8,0.7-0.9c-0.3-0.2-0.7-0.5-0.6-0.9c0-0.2,0.2-0.4,0.3-0.6c0.2-0.6-0.8-1.2-0.6-1.8
		c0.1-0.3,0.5-0.5,0.5-0.9c0-0.2-0.2-0.3-0.2-0.5c-0.1-0.4,0.5-0.8,0.4-1.2c-0.3,0-0.6,0-0.9,0c-0.1,0-0.2,0-0.2,0.1s0,0.1,0,0.2
		c0.1,0.2,0.3,0.3,0.4,0.5c0.1,0.2,0.3,0.4,0.2,0.6S12,4.6,11.9,4.6c-0.4,0.1-0.8,0.3-1.1,0.4c-0.1,0-0.1,0.1-0.2,0.1
		c-0.1,0.1,0,0.2,0,0.3c0,0.3,0.2,0.6,0.3,0.8c0.1,0.1,0.2,0.3,0.2,0.4S11,6.8,11,6.9c-0.4,0.5-0.8,0.9-1.4,1.3
		c0.4,0.6,0.7,1.2,1,1.8c0.2,0.4,0.3,0.9-0.1,1.2c-0.1,0.1-0.3,0.2-0.3,0.3s0.1,0.3,0.2,0.4c0.5,0.4,0.6,1.2,0.2,1.7
		c-0.5-0.1-0.8-0.6-0.9-1c-0.1-0.5,0-1,0.4-1.3c-0.6-0.4-1.1-0.8-1.7-1.1C8.1,10,7.8,9.8,7.9,9.5c0-0.3,0.4-0.5,0.7-0.7
		C8.5,9,8.7,9.2,9,9.2s0.3-0.3,0.4-0.5c0.3,0.4,0.5,0.8,0.7,1.2c0.2-0.1,0.4-0.4,0.5-0.6c0.3,0,0.8,0.3,1.2,0.8
		c0.2-0.5,0.4-1,0.7-1.4c0.1,0.1,0.3,0.3,0.4,0.4c0.1-0.5,0.2-1,0.1-1.5c0-0.1,0-0.1,0-0.1c-0.1-0.1-0.2,0-0.2,0.1
		c-0.1,0.1-0.3,0.2-0.4,0.3C12,7.5,11.6,7,11.2,6.6c-0.5,0.5-1.1,0.9-1.8,1.1C9.6,7.4,9.2,7,8.9,7.1C8.6,7.2,8.3,7.5,8.2,7.8
		C8.1,8.1,8,8.4,7.9,8.7"/>
	<path class="st1" d="M9.8,7C9.5,7.1,9.4,7.4,9.5,7.7s0.3,0.4,0.6,0.5c0.2,0.1,0.5,0.2,0.7,0.3C9.9,8.7,9.1,9.2,8.4,9.8
		c0.5,0.4,0.9,0.8,1.4,1.1c-0.5,0.1-1,0.4-1.2,0.9s0,1.2,0.5,1.3c0.2,0.1,0.6,0,0.6,0.3c0,0.1,0,0.2,0,0.2c-0.1,0.4-0.1,0.8-0.2,1.1
		c0.4,0.2,0.7,0.2,1,0.3c0.2,0.1,0.5,0.3,0.5,0.6c-0.1,0.1-0.1,0.1-0.1,0.2c0,0.2,0.2,0.4,0.4,0.4c0.3,0.1,0.6,0,0.9-0.1
		c0,0.3-0.1,0.6-0.1,0.9c0.4,0.2,0.7-0.1,0.7-0.4s-0.2-0.6-0.4-0.8c-0.3-0.2-0.5-0.4-0.6-0.7c0.3,0,0.6-0.2,0.7-0.4
		c0.1-0.2,0-0.6-0.2-0.8c-0.1-0.1-0.3-0.2-0.4-0.3c-0.1-0.1-0.2-0.3-0.1-0.4c0-0.1,0.1-0.2,0.2-0.2c0.2-0.2,0.5-0.4,0.8-0.5
		c-0.3-0.3-0.5-0.7-0.4-1.1c0.1-0.4,0.4-0.8,0.8-0.9c-0.3-0.2-0.7-0.5-0.6-0.9c0-0.2,0.2-0.4,0.3-0.6c0.2-0.6-0.8-1.2-0.6-1.8
		c0.1-0.3,0.5-0.5,0.5-0.9c0-0.2-0.2-0.3-0.2-0.5C12.4,5.4,13,5,12.9,4.6c-0.3,0-0.6,0-0.9,0c-0.1,0-0.2,0-0.2,0.1s0,0.1,0,0.2
		c0.1,0.2,0.3,0.3,0.4,0.5c0.1,0.2,0.3,0.4,0.2,0.6S12.1,6.3,12,6.3c-0.4,0.1-0.8,0.3-1.1,0.4c-0.1,0-0.1,0.1-0.2,0.1
		c-0.1,0.1,0,0.2,0,0.3c0.1,0.3,0.3,0.5,0.4,0.8c0.1,0.1,0.2,0.3,0.2,0.4s-0.1,0.2-0.1,0.3c-0.4,0.5-0.8,0.9-1.4,1.3
		c0.3,0.5,0.7,1.1,0.9,1.7c0.2,0.4,0.3,0.9,0,1.2c-0.1,0.1-0.3,0.2-0.3,0.3s0.1,0.3,0.2,0.4c0.5,0.4,0.5,1.2,0.1,1.7
		c-0.5-0.1-0.8-0.6-0.9-1c-0.1-0.5,0-1,0.4-1.3c-0.6-0.4-1.1-0.8-1.7-1.1c-0.3-0.3-0.6-0.5-0.6-0.8s0.4-0.5,0.7-0.7
		c-0.1,0.2,0.1,0.4,0.4,0.4c0.2-0.1,0.3-0.3,0.4-0.5c0.2,0.4,0.4,0.8,0.6,1.2c0.2-0.1,0.4-0.4,0.5-0.6c0.6,0.2,1.1,0.5,1.5,0.9
		c0.2-0.5,0.4-1,0.7-1.4c0.1,0.1,0.3,0.3,0.4,0.4c0.1-0.5,0.2-1,0.1-1.5c0-0.1,0-0.1,0-0.1C13.1,9,13,9.1,13,9.2
		c-0.1,0.1-0.3,0.2-0.4,0.3c-0.4-0.4-0.8-0.9-1.2-1.3c-0.5,0.5-1.1,0.9-1.8,1.1C9.8,9,9.4,8.6,9.1,8.7C8.8,8.8,8.5,9.1,8.4,9.4
		C8.3,9.7,8.2,10,8.1,10.3"/>
	<path class="st1" d="M7.5,9.1c-0.3,0-0.4,0.3-0.3,0.6s0.3,0.4,0.5,0.5s0.5,0.2,0.5,0.5c0,0.1-0.2,0.2-0.2,0.4s0.1,0.3,0.2,0.4
		s0.3,0.2,0.4,0.3c0.2,0.2,0,0.6,0.2,0.8s0.6,0.2,0.8,0.4"/>
	<path class="st1" d="M11.1,6.6c0.7,0.7,1.4,1.4,2,2.2c-0.4,0.2-0.9,0.4-1.4,0.4c0.3,1.3,0.9,2.5,1.7,3.5c-0.3,0-0.8,0.2-1,0.1
		c-0.2-0.1-0.4-0.5-0.5-0.7c-0.5-0.4-1-0.8-1.6-0.9c1-0.1,2.1-0.1,3.1-0.1c-1.3-0.3-2.5-0.8-3.6-1.6c-0.5-0.3-1-0.7-1.5-0.8
		c0.8-0.2,1.5-0.5,2.3-0.8C10,7.9,9.4,8.3,9,8.8s-0.8,1-1.1,1.6c0.2,0,0.3-0.2,0.3-0.4S8.1,9.6,8.1,9.4c0-0.5,0.3-0.8,0.7-1.1
		c1.7-1.7,3.5-3.3,5.2-5c0.3,1.9-0.2,3.8-0.5,5.7c-0.3,1-0.5,2.2-0.6,3.3c0,0.4-0.1,0.8,0,1.2c0,0.6,0.3,1.2,0.1,1.7"/>
	<path class="st1" d="M12.5,6.6c0.2,0,0.4,0,0.5,0c-0.9,0.8-1.8,1.5-2.7,2.2c0.8,0.2,1.5,0.3,2.3,0.5c-1,0.7-1.8,1.5-2.3,2.6
		c0.7,0.3,1.3,0.6,1.9,1c0.1,0,0.1,0.1,0.2,0.2c0,0.2-0.3,0.3-0.6,0.5c-0.2,0.1-0.4,0.4-0.3,0.7c0.1,0.3,0.4,0.5,0.7,0.4
		c0,0.2,0,0.4-0.1,0.6c0.2,0.1,0.6,0.2,0.9,0.4c-0.1,0.2-0.3,0.5-0.4,0.7c0.3,0,0.7,0.1,1.1,0.2c0,0.1-0.1,0.2-0.1,0.2
		c0.1,0,0.1,0,0.2,0.1c0,0.1,0,0.1-0.1,0.1"/>
	<path class="st1" d="M13.6,15.1c0.1,0.1,0.2,0,0.2-0.2c0-1.1-0.3-2.3-0.9-3.2c0.3,0.9,0.4,1.8,0.4,2.7c0,0.2,0,0.3-0.1,0.5
		c0,0.1-0.1,0.2-0.2,0.3c0,0.2,0.1,0.4,0.3,0.5s0.4,0.1,0.6,0.1c-0.3,0.2-0.5,0.6-0.5,0.9c0.1,0,0.2,0,0.3,0
		c-0.2-0.1-0.1-0.4-0.1-0.7c0.1-0.2,0.3-0.4,0.2-0.7c0-0.2-0.1-0.3-0.2-0.5c-0.3-0.5-0.6-1.1-0.3-1.6c0.2-0.1,0.4-0.2,0.5-0.4
		c0.2-0.4,0-0.8-0.2-1.2c0-0.1-0.1-0.2-0.1-0.3c0.1-0.2,0.3-0.3,0.6-0.3c-0.5-1-1.1-2-1.7-2.9c-0.2-0.2-0.3-0.5-0.5-0.7
		c-0.3-0.4-0.5-0.8-0.8-1.2c-0.2-0.3-0.6-0.4-0.9-0.2c0,0.4,0,0.8,0.2,1.2c-0.5,0-1,0-1.5-0.1C9,7.3,9.1,7.5,9.2,7.6
		c0.1,0.2,0.3,0.5,0.1,0.7s-0.5,0.2-0.8,0S8,8,7.8,8C7.7,8,7.7,8,7.6,8.1c0,0,0,0.1-0.1,0.2C7.4,8.7,7.6,9.2,7.9,9.5
		C7.6,9.7,7,9.5,6.8,9.9c-0.1,0.2,0.1,0.4,0.2,0.5s0.4,0.2,0.5,0.4c0.2,0.3,0,0.9-0.4,0.9c0.4,0.4,1,0.4,1.6,0.3"/>
	<path class="st1" d="M13.6,15.5c0,0.1,0.2,0,0.2-0.2c0-1.1-0.3-2.3-0.9-3.2c0.2,0.9,0.4,1.8,0.3,2.7c0,0.2,0,0.3-0.1,0.5
		c0,0.1-0.1,0.2-0.2,0.3c0,0.2,0.1,0.4,0.3,0.5c0.3,0.1,0.5,0.1,0.7,0.1c-0.3,0.2-0.5,0.5-0.5,0.9c0.1,0,0.2,0,0.3,0
		c-0.2-0.1-0.2-0.4-0.1-0.7c0.1-0.2,0.2-0.4,0.2-0.7c0-0.2-0.1-0.3-0.2-0.5c-0.3-0.5-0.6-1.1-0.3-1.6c0.1-0.1,0.4-0.2,0.5-0.4
		c0.2-0.4-0.1-0.8-0.2-1.2c0-0.1-0.1-0.2-0.1-0.3c0-0.2,0.3-0.4,0.5-0.3c-0.5-1-1.1-2-1.7-2.9C12.2,8.3,12,8,11.9,7.8
		c-0.3-0.4-0.5-0.8-0.8-1.2c-0.2-0.3-0.6-0.4-0.9-0.2c0,0.4,0,0.8,0.2,1.2c-0.5,0-1,0-1.5-0.1C9,7.7,9.1,7.9,9.2,8
		c0.1,0.2,0.3,0.5,0.1,0.7s-0.5,0.2-0.8,0C8.3,8.6,8,8.4,7.8,8.4c-0.1,0-0.1,0-0.2,0.1c0,0,0,0.1-0.1,0.2C7.4,9.1,7.6,9.6,7.9,9.9
		c-0.3,0.2-0.9,0-1.1,0.4c-0.1,0.2,0.1,0.4,0.2,0.5c0.2,0.1,0.4,0.2,0.5,0.4c0.2,0.3,0,0.9-0.4,0.9c0.4,0.4,1,0.4,1.6,0.3"/>
	<path class="st1" d="M13.7,16.8c0,0.1,0.1-0.1,0.1-0.2c0-1.1-0.2-2.3-0.7-3.2c0.3,0.8,0.3,1.7,0.3,2.6c0,0.2,0,0.3-0.1,0.5
		c0,0.1-0.1,0.2-0.1,0.3c0,0.2,0.1,0.4,0.2,0.5s0.3,0.1,0.5,0.1c-0.2,0.2-0.4,0.6-0.4,0.9c0.1,0,0.2,0,0.2,0c-0.1-0.2-0.1-0.5,0-0.7
		s0.2-0.4,0.2-0.7c0-0.2-0.1-0.3-0.2-0.5c-0.2-0.4-0.5-1-0.2-1.5c0.1-0.2,0.3-0.3,0.3-0.5c0.2-0.4,0-0.8-0.1-1.1
		c0-0.1-0.1-0.2,0-0.3c0-0.2,0.2-0.4,0.4-0.3c-0.4-1-0.8-2-1.3-2.9c-0.1-0.2-0.2-0.5-0.4-0.7c-0.2-0.4-0.4-0.8-0.6-1.2
		c-0.1-0.3-0.5-0.4-0.7-0.2c0,0.4,0,0.8,0.2,1.2c-0.4,0-0.8,0-1.2-0.1c0.1,0.2,0.2,0.4,0.3,0.5c0.1,0.2,0.2,0.5,0.1,0.7
		c-0.1,0.2-0.4,0.2-0.6,0S9.5,9.7,9.3,9.7c-0.1,0-0.1,0-0.1,0.1c0,0,0,0.1,0,0.2c0,0.4,0.1,0.9,0.3,1.2c-0.2,0.2-0.7,0-0.8,0.4
		c-0.1,0.2,0,0.4,0.2,0.5c0.1,0.1,0.3,0.2,0.4,0.4c0.2,0.3,0,0.9-0.3,0.9c0.3,0.4,0.8,0.4,1.2,0.3"/>
	<path class="st1" d="M11.2,5.1c0.4,0.3,0.7,0.6,1.1,0.8L12.4,6c0.1,0.1-0.1,0.3-0.2,0.3c-0.5,0.3-0.9,0.6-1.3,0.9
		c-0.1,0.1-0.2,0.2-0.2,0.4c0,0.1,0.1,0.2,0.1,0.3c0.5,0.8,1.1,1.7,1.1,2.7c-0.5,0.3-0.9,0.4-1.4,0.5c0.4,0.6,0.9,1.1,1.5,1.4
		c-0.3,0.4-0.7,0.8-1.1,1c0.5,0.4,1,0.7,1.6,0.8"/>
	<path class="st1" d="M13.1,5.9c-0.5-0.4-0.8-1.5-1.1-2.1c0.3-0.1,0.5,0.2,0.7,0.5s0.3,0.7,0.5,1c-0.3-0.4-0.3-1-0.6-1.5
		c-0.2-0.4-0.5-0.7-0.4-1.2c0.3,0.6,0.7,1.2,1,1.8C13,4,12.9,3.6,12.9,3.1c0-0.2,0-0.4,0.1-0.4c0.1-0.1,0.3,0.2,0.4,0.4
		c0.1,0.3,0.2,0.7,0.3,1c-0.4-0.3-0.6-1.2-0.4-1.8c0.1,0.1,0.2,0.2,0.3,0.3C13.9,2.6,14,2.8,14,3c0,0.2,0,0.4-0.1,0.5
		c-0.1,0-0.2,0-0.3,0.1"/>
	<path class="st1" d="M10.4,4.3c0.3,0,0.6,0.1,0.8,0.3c0.3,0.2,0.5,0.5,0.5,0.9c0,0.3-0.4,0.7-0.7,0.5c0-0.3,0-0.6,0-0.9
		c0-0.1,0-0.2,0.1-0.3c0.2-0.2,0.5-0.3,0.8-0.3c0.2,0,0.3,0,0.4,0.1c0.1,0.1,0.1,0.4,0,0.6c-0.2,0.5-0.5,1-0.8,1.4
		c-0.4,0-0.7-0.1-1-0.3S10,5.7,10.1,5.4c1.1-0.1,2.3,0.2,3.2,0.8c0.3,0.3,0.6,0.5,0.6,0.7c0,0.4-0.4,0.6-0.7,0.7
		c-0.4,0-0.7-0.1-1.1-0.1c0,0.5,0.2,1.1,0.7,1.4C12.9,9,13,9.1,13.1,9.2c0.1,0.2-0.1,0.4-0.2,0.5c-0.8,0.6-1.6,1.1-2.5,1.3"/>
	<path class="st1" d="M10.4,5.9c0.3,0,0.6,0.1,0.8,0.3c0.3,0.2,0.5,0.5,0.5,0.9c0,0.3-0.4,0.7-0.7,0.5c0-0.3,0-0.6,0-0.9
		c0-0.1,0-0.2,0.1-0.3c0.2-0.2,0.5-0.3,0.8-0.3c0.2,0,0.3,0,0.4,0.1c0.1,0.1,0.1,0.4,0,0.6c-0.2,0.5-0.5,1-0.8,1.4
		c-0.4,0-0.7-0.1-1-0.3C10.2,7.7,10,7.3,10.1,7c1.1-0.1,2.3,0.2,3.2,0.8c0.3,0.2,0.6,0.4,0.6,0.7c0,0.4-0.4,0.6-0.7,0.7
		c-0.4,0-0.7-0.1-1.1-0.1c0,0.5,0.2,1.1,0.7,1.4c0.1,0,0.2,0.1,0.3,0.3c0,0.1-0.1,0.3-0.3,0.4c-0.7,0.6-1.5,1.1-2.4,1.3"/>
	<path class="st1" d="M10,6.1c0.3,0,0.6,0.1,0.8,0.3c0.3,0.2,0.5,0.5,0.5,0.9c0,0.3-0.4,0.7-0.7,0.5c0-0.3,0-0.6,0-0.9
		c0-0.1,0-0.2,0.1-0.3c0.2-0.2,0.5-0.3,0.8-0.3c0.2,0,0.3,0,0.4,0.1C12,6.5,12,6.8,11.9,7c-0.2,0.5-0.5,1-0.8,1.4
		c-0.4,0-0.7-0.1-1-0.3C9.8,7.9,9.6,7.5,9.7,7.2C10.9,7.2,12,7.4,13,8c0.2,0.2,0.5,0.4,0.5,0.6c0,0.4-0.4,0.6-0.7,0.7
		c-0.3,0.1-0.7-0.1-1.1-0.1c0,0.5,0.2,1.1,0.7,1.4c0.1,0.1,0.2,0.2,0.3,0.4c0,0.1-0.1,0.3-0.3,0.4c-0.7,0.6-1.5,1.1-2.4,1.4"/>
	<path class="st2" d="M13.9,18.3c-0.3-0.1-0.6-0.3-0.8-0.6l-5.8-6.3c-0.7-0.8-0.7-2.1,0-2.9l5.8-6.3c0.2-0.2,0.5-0.4,0.8-0.5v-1
		c-0.6,0.1-1.1,0.4-1.5,0.8L6.6,7.8C5.5,9,5.5,11,6.6,12.2l5.8,6.3c0.4,0.4,0.9,0.7,1.5,0.8V18.3z"/>
</g>
<g>
	<path class="st3" d="M65.6,8.8c-0.3,0.1-0.4,0.4-0.3,0.7S65.7,9.9,66,10s0.5,0.2,0.7,0.3c-0.9,0.2-1.7,0.7-2.4,1.3
		c0.5,0.4,0.9,0.8,1.4,1.1c-0.5,0.1-1,0.4-1.2,0.9s0,1.2,0.5,1.3c0.2,0.1,0.6,0,0.6,0.3c0,0.1,0,0.2,0,0.2c-0.1,0.4-0.1,0.8-0.2,1.1
		c0.2,0.1,0.5,0.1,0.8,0.2s0.5,0.3,0.5,0.6c0,0.1-0.1,0.2-0.1,0.3c0,0.2,0.2,0.3,0.4,0.4c0.3,0.1,0.6,0,0.9-0.1
		c0,0.3-0.1,0.6-0.1,0.9c0.3,0.2,0.6-0.1,0.6-0.4s-0.2-0.6-0.4-0.8c-0.2-0.2-0.5-0.4-0.6-0.7c0.3,0,0.6-0.2,0.7-0.4
		c0.1-0.3,0-0.6-0.2-0.8c-0.1-0.1-0.3-0.2-0.4-0.3s-0.2-0.3-0.1-0.4c0-0.1,0.1-0.1,0.2-0.2c0.3-0.2,0.6-0.4,0.9-0.5
		c-0.3-0.3-0.5-0.7-0.4-1.1s0.4-0.8,0.7-0.9c-0.3-0.2-0.7-0.5-0.6-0.9c0-0.2,0.2-0.4,0.3-0.6c0.2-0.6-0.8-1.2-0.6-1.8
		c0.1-0.3,0.5-0.5,0.5-0.9c0-0.2-0.2-0.3-0.2-0.5c-0.1-0.4,0.5-0.8,0.4-1.2c-0.3,0-0.6,0-0.9,0c-0.1,0-0.2,0-0.2,0.1s0,0.1,0,0.2
		c0.1,0.2,0.3,0.3,0.4,0.5c0.1,0.1,0.3,0.4,0.2,0.6C68.2,7.9,68,8,67.8,8.1c-0.4,0.1-0.8,0.3-1.1,0.4c-0.1,0-0.1,0.1-0.2,0.1
		c-0.1,0.1,0,0.2,0,0.3c0.1,0.3,0.3,0.5,0.4,0.8c0.1,0.1,0.2,0.3,0.2,0.4c0,0.1-0.1,0.2-0.1,0.3c-0.4,0.5-0.8,0.9-1.4,1.3
		c0.4,0.6,0.7,1.2,1,1.8c0.2,0.4,0.3,0.9,0,1.2c-0.1,0.1-0.3,0.2-0.3,0.3s0.1,0.3,0.2,0.4c0.5,0.4,0.5,1.2,0.1,1.7
		c-0.5-0.1-0.8-0.6-0.9-1c-0.1-0.5,0-1,0.4-1.3c-0.6-0.4-1.1-0.8-1.7-1.1c-0.3-0.2-0.6-0.4-0.5-0.7c0-0.3,0.4-0.5,0.7-0.7
		c-0.1,0.2,0.1,0.4,0.4,0.4c0.2-0.1,0.3-0.3,0.4-0.5c0.3,0.4,0.5,0.8,0.7,1.2c0.2-0.1,0.4-0.4,0.5-0.6c0.6,0.2,1.1,0.5,1.4,0.9
		c0.2-0.5,0.4-1,0.7-1.4c0.1,0.1,0.3,0.3,0.4,0.4c0.1-0.5,0.2-1,0.1-1.5c0-0.1,0-0.1,0-0.1c-0.1-0.1-0.2,0-0.2,0.1
		c-0.1,0.1-0.3,0.2-0.4,0.3c-0.4-0.4-0.8-0.9-1.2-1.3c-0.5,0.5-1.1,0.9-1.8,1.1c0.2-0.3-0.2-0.7-0.5-0.6c-0.3,0.1-0.6,0.4-0.7,0.7
		s-0.2,0.6-0.3,0.9"/>
	<path class="st3" d="M64.9,7.7c-0.3,0.1-0.4,0.4-0.3,0.7c0.1,0.2,0.3,0.4,0.6,0.5s0.5,0.2,0.7,0.3c-0.9,0.2-1.7,0.7-2.4,1.3
		c0.5,0.4,0.9,0.8,1.4,1.1c-0.5,0.1-1,0.4-1.2,0.9s0,1.2,0.5,1.3c0.2,0.1,0.6,0,0.6,0.3c0,0.1,0,0.2,0,0.2c-0.1,0.4-0.1,0.8-0.2,1.1
		c0.2,0.1,0.5,0.1,0.8,0.2s0.5,0.3,0.5,0.6c0,0.1-0.1,0.2-0.1,0.3c0,0.2,0.2,0.3,0.4,0.4c0.3,0.1,0.6,0,0.9-0.1
		c0,0.3-0.1,0.6-0.1,0.9c0.3,0.2,0.6-0.1,0.6-0.4s-0.2-0.6-0.4-0.8c-0.2-0.2-0.5-0.4-0.6-0.7c0.3,0,0.6-0.2,0.7-0.4
		c0.1-0.3,0-0.6-0.2-0.8c-0.1-0.1-0.3-0.2-0.4-0.3s-0.2-0.3-0.1-0.4c0-0.1,0.1-0.1,0.2-0.2c0.3-0.2,0.6-0.4,0.9-0.5
		c-0.3-0.3-0.5-0.7-0.4-1.1c0.1-0.4,0.4-0.8,0.7-0.9c-0.3-0.2-0.7-0.5-0.6-0.9c0-0.2,0.2-0.4,0.3-0.6c0.2-0.6-0.8-1.2-0.6-1.8
		c0.1-0.3,0.5-0.5,0.5-0.9c0-0.2-0.2-0.3-0.2-0.5c-0.1-0.4,0.5-0.8,0.4-1.2c-0.3,0-0.6,0-0.9,0c-0.1,0-0.2,0-0.2,0.1s0,0.1,0,0.2
		C67,5.8,67.1,5.9,67.3,6s0.3,0.4,0.2,0.6c-0.1,0.2-0.3,0.3-0.4,0.3C66.7,7,66.3,7.2,66,7.3c-0.1,0-0.1,0.1-0.2,0.1
		c-0.1,0.1,0,0.2,0,0.3C65.9,8,66,8.3,66.2,8.6c0.1,0.1,0.2,0.3,0.2,0.4c0,0.1-0.1,0.2-0.1,0.3c-0.4,0.5-0.8,0.9-1.4,1.3
		c0.4,0.6,0.7,1.2,1,1.8c0.2,0.4,0.3,0.9,0,1.2c-0.1,0.1-0.3,0.2-0.3,0.3s0.1,0.3,0.2,0.4c0.5,0.4,0.5,1.2,0.1,1.7
		c-0.5-0.1-0.8-0.6-0.9-1c-0.1-0.5,0-1,0.4-1.3c-0.6-0.4-1.1-0.8-1.7-1.1C63.3,12.2,63,12,63,11.7s0.4-0.5,0.7-0.7
		c-0.1,0.2,0.1,0.4,0.4,0.4c0.2-0.1,0.3-0.3,0.4-0.5c0.3,0.4,0.5,0.8,0.7,1.2c0.2-0.1,0.4-0.4,0.5-0.6c0.6,0.2,1.1,0.5,1.4,0.9
		c0.2-0.5,0.4-1,0.7-1.4c0.1,0.1,0.3,0.3,0.4,0.4c0.1-0.5,0.2-1,0.1-1.5c0-0.1,0-0.1,0-0.1c-0.1-0.1-0.2,0-0.2,0.1
		c-0.1,0.1-0.3,0.2-0.4,0.3c-0.4-0.4-0.8-0.9-1.2-1.3C66,9.4,65.4,9.8,64.7,10c0.2-0.3-0.2-0.7-0.5-0.6c-0.3,0.1-0.6,0.4-0.7,0.7
		c-0.1,0.3-0.2,0.6-0.3,0.9"/>
	<path class="st3" d="M65,9.3c-0.3,0.1-0.4,0.4-0.3,0.7c0.1,0.2,0.3,0.4,0.6,0.5s0.5,0.2,0.7,0.3c-0.9,0.2-1.7,0.7-2.4,1.3
		c0.5,0.4,0.9,0.8,1.4,1.1c-0.5,0.1-1,0.4-1.2,0.9s0,1.2,0.5,1.3c0.2,0.1,0.6,0,0.6,0.3c0,0.1,0,0.2,0,0.2c-0.1,0.4-0.1,0.8-0.2,1.1
		c0.2,0.1,0.5,0.1,0.8,0.2s0.5,0.3,0.5,0.6c0,0.1-0.1,0.2-0.1,0.3c0,0.2,0.2,0.3,0.4,0.4c0.3,0.1,0.6,0,0.9-0.1
		c0,0.3-0.1,0.6-0.1,0.9c0.3,0.2,0.6-0.1,0.6-0.4s-0.2-0.6-0.4-0.8c-0.2-0.2-0.5-0.4-0.6-0.7c0.3,0,0.6-0.2,0.7-0.4
		c0.1-0.3,0-0.6-0.2-0.8c-0.1-0.1-0.3-0.2-0.4-0.3c0.2-0.1,0.2-0.3,0.2-0.4s0.1-0.1,0.2-0.2c0.3-0.2,0.6-0.4,0.9-0.5
		c-0.3-0.3-0.5-0.7-0.4-1.1c0.1-0.4,0.4-0.8,0.7-0.9c-0.3-0.2-0.7-0.5-0.6-0.9c0-0.2,0.2-0.4,0.3-0.6c0.2-0.6-0.8-1.2-0.6-1.8
		C67.6,9.2,68,9,68,8.6c0-0.2-0.2-0.3-0.2-0.5c-0.1-0.4,0.5-0.8,0.4-1.2c-0.3,0-0.6,0-0.9,0c-0.1,0-0.2,0-0.2,0.1s0,0.1,0,0.2
		c0.1,0.2,0.3,0.3,0.4,0.5c0.1,0.1,0.3,0.4,0.2,0.6c-0.1,0.2-0.3,0.3-0.4,0.3c-0.4,0.1-0.8,0.3-1.1,0.4c-0.2,0-0.3,0-0.3,0.1
		c-0.1,0.1,0,0.2,0,0.3c0.1,0.3,0.3,0.5,0.4,0.8c0.1,0.1,0.2,0.3,0.2,0.4c0,0.1-0.1,0.2-0.1,0.3c-0.4,0.5-0.8,0.9-1.4,1.3
		c0.4,0.6,0.7,1.2,1,1.8c0.2,0.4,0.3,0.9,0,1.2c-0.1,0.1-0.3,0.2-0.3,0.3s0.1,0.3,0.2,0.4c0.5,0.4,0.5,1.2,0.1,1.7
		c-0.5-0.1-0.8-0.6-0.9-1c-0.1-0.5,0-1,0.4-1.3c-0.6-0.4-1.1-0.8-1.7-1.1c-0.3-0.2-0.6-0.4-0.5-0.7c0-0.3,0.4-0.5,0.7-0.7
		c-0.1,0.2,0.1,0.4,0.4,0.4c0.2-0.1,0.3-0.3,0.4-0.5c0.3,0.4,0.5,0.8,0.7,1.2c0.2-0.1,0.4-0.4,0.5-0.6c0.6,0.2,1.1,0.5,1.4,0.9
		c0.2-0.5,0.4-1,0.7-1.4c0.1,0.1,0.3,0.3,0.4,0.4c0.1-0.5,0.2-1,0.1-1.5c0-0.1,0-0.1,0-0.1c-0.1-0.1-0.2,0-0.2,0.1
		c-0.1,0.1-0.3,0.2-0.4,0.3c-0.4-0.4-0.8-0.9-1.2-1.3c-0.5,0.5-1.1,0.9-1.8,1.1c0.2-0.3-0.2-0.7-0.5-0.6c-0.3,0.1-0.6,0.4-0.7,0.7
		c-0.1,0.3-0.2,0.6-0.3,0.9"/>
	<path class="st3" d="M62.7,11.4c-0.3,0-0.4,0.3-0.3,0.6c0.1,0.2,0.3,0.4,0.5,0.5s0.5,0.2,0.5,0.5c0,0.1-0.2,0.2-0.2,0.4
		s0.1,0.3,0.2,0.4c0.1,0.1,0.3,0.2,0.4,0.3c0.2,0.2,0,0.6,0.2,0.8s0.6,0.2,0.8,0.4"/>
	<path class="st3" d="M66.4,8.9c0.7,0.7,1.4,1.4,2,2.2c-0.4,0.2-0.9,0.4-1.4,0.4c0.3,1.3,0.9,2.5,1.8,3.5c-0.3,0-0.8,0.2-1,0.1
		c-0.2-0.1-0.4-0.5-0.6-0.7c-0.5-0.4-1-0.8-1.6-0.9c1-0.1,2.1-0.1,3.1-0.1c-1.3-0.3-2.5-0.8-3.6-1.6c-0.5-0.3-1-0.7-1.5-0.8
		c0.8-0.2,1.5-0.5,2.3-0.8c-0.6,0-1.2,0.4-1.6,0.9s-0.8,1-1.1,1.6c0.2,0,0.3-0.2,0.3-0.4s-0.1-0.4-0.1-0.6c0-0.5,0.3-0.8,0.7-1.1
		c1.7-1.7,3.5-3.3,5.2-5c0.3,1.9-0.2,3.8-0.5,5.7c-0.2,1.1-0.3,2.3-0.4,3.5c0,0.4-0.1,0.8,0,1.2c0.1,0.6,0.3,1.2,0.1,1.7"/>
	<path class="st3" d="M67.7,8.9c0.2,0,0.4,0,0.5,0c-0.9,0.8-1.8,1.5-2.7,2.2c0.8,0.2,1.5,0.3,2.3,0.5c-1,0.7-1.8,1.5-2.3,2.6
		c0.6,0.3,1.2,0.7,1.8,1.1c0.1,0,0.2,0.1,0.2,0.2c0.1,0.3-0.3,0.4-0.5,0.5c-0.3,0.1-0.4,0.5-0.3,0.7s0.4,0.5,0.7,0.4
		c0,0.2,0,0.4-0.1,0.6c0.3,0.1,0.6,0.2,0.9,0.4c-0.1,0.2-0.3,0.5-0.4,0.7c0.4,0,0.8,0.1,1.1,0.2c0,0.1-0.1,0.2-0.1,0.2
		c0.1,0,0.1,0,0.2,0.1c0,0.1,0,0.1-0.1,0.1"/>
	<path class="st3" d="M68.8,17.5c0.1,0.1,0.2-0.1,0.2-0.2c0-1.1-0.3-2.3-0.9-3.2c0.2,0.9,0.4,1.8,0.4,2.7c0,0.2,0,0.3-0.1,0.5
		c0,0.1-0.1,0.2-0.2,0.3c0,0.2,0.1,0.4,0.3,0.5s0.4,0.1,0.6,0.1c-0.3,0.2-0.5,0.5-0.5,0.9c0.1,0,0.2,0,0.3,0
		c-0.2-0.2-0.1-0.5-0.1-0.7c0.1-0.2,0.2-0.5,0.2-0.7s-0.1-0.3-0.2-0.5c-0.3-0.5-0.6-1.1-0.3-1.6c0.1-0.2,0.4-0.3,0.5-0.5
		c0.2-0.4,0-0.8-0.2-1.1c0-0.1-0.1-0.2-0.1-0.3c0-0.2,0.3-0.4,0.5-0.3c-0.5-1-1.1-2-1.7-2.9c-0.2-0.2-0.3-0.5-0.5-0.7
		c-0.3-0.4-0.5-0.8-0.8-1.2c-0.2-0.3-0.6-0.4-0.9-0.2c0,0.4,0,0.8,0.2,1.2c-0.5,0-1,0-1.5-0.1c0.1,0.2,0.2,0.4,0.3,0.5
		c0.1,0.2,0.3,0.5,0.1,0.7c-0.2,0.2-0.5,0.2-0.8,0c-0.2-0.1-0.5-0.3-0.7-0.3c-0.1,0-0.1,0-0.2,0.1c0,0,0,0.1-0.1,0.2
		c-0.1,0.4,0.1,0.9,0.4,1.2c-0.3,0.2-0.9,0-1.1,0.4c-0.1,0.2,0.1,0.4,0.2,0.5c0.2,0.1,0.4,0.2,0.5,0.4c0.2,0.3,0,0.9-0.4,0.9
		c0.4,0.4,1,0.4,1.6,0.3"/>
	<path class="st3" d="M68.8,17.9c0.1,0.1,0.2-0.1,0.2-0.2c0-1.1-0.3-2.3-0.9-3.2c0.2,0.9,0.4,1.8,0.4,2.7c0,0.2,0,0.3-0.1,0.5
		c0,0.1-0.1,0.2-0.2,0.3c0,0.2,0.1,0.4,0.3,0.5c0.2,0.1,0.4,0.1,0.6,0.1c-0.3,0.2-0.5,0.5-0.5,0.9c0.1,0,0.2,0,0.3,0
		c-0.2-0.2-0.1-0.5-0.1-0.7s0.2-0.5,0.2-0.7s-0.1-0.3-0.2-0.5c-0.3-0.5-0.6-1.1-0.3-1.6c0.1-0.2,0.4-0.3,0.5-0.5
		c0.2-0.4,0-0.8-0.2-1.1c0-0.1-0.1-0.2-0.1-0.3c0-0.2,0.3-0.4,0.5-0.3c-0.5-1-1.1-2-1.7-2.9c-0.2-0.2-0.3-0.5-0.5-0.7
		c-0.3-0.4-0.5-0.8-0.8-1.2c-0.2-0.3-0.6-0.4-0.9-0.2c0,0.4,0,0.8,0.2,1.2c-0.5,0-1,0-1.5-0.1c0.1,0.2,0.2,0.4,0.3,0.5
		c0.1,0.2,0.3,0.5,0.1,0.7c-0.2,0.2-0.5,0.2-0.8,0c-0.2-0.1-0.5-0.3-0.7-0.3c-0.1,0-0.1,0-0.2,0.1c0,0,0,0.1-0.1,0.2
		c-0.1,0.4,0.1,0.9,0.4,1.2c-0.3,0.2-0.9,0-1.1,0.4c-0.1,0.2,0.1,0.4,0.2,0.5c0.2,0.1,0.4,0.2,0.5,0.4c0.2,0.3,0,0.9-0.4,0.9
		c0.4,0.4,1,0.4,1.6,0.3"/>
	<path class="st3" d="M68.9,19.1c0.1,0.1,0.2-0.1,0.2-0.2c0-1.1-0.2-2.3-0.7-3.2c0.2,0.9,0.3,1.8,0.3,2.7c0,0.2,0,0.3-0.1,0.5
		c0,0.1-0.1,0.2-0.1,0.3c0,0.2,0.1,0.4,0.2,0.5s0.3,0.1,0.4,0.1c-0.2,0.2-0.4,0.5-0.4,0.9c0.1,0,0.2,0,0.2,0c-0.1-0.2-0.1-0.5,0-0.7
		s0.2-0.5,0.1-0.7c0-0.2-0.1-0.3-0.2-0.5c-0.2-0.5-0.5-1.1-0.2-1.6c0.1-0.2,0.3-0.3,0.4-0.5c0.1-0.4,0-0.8-0.1-1.1
		c0-0.1-0.1-0.2,0-0.3c0-0.2,0.2-0.4,0.4-0.3c-0.4-1-0.8-2-1.3-2.9c-0.1-0.2-0.2-0.5-0.4-0.7c-0.2-0.4-0.4-0.8-0.6-1.2
		c-0.1-0.3-0.5-0.4-0.7-0.2c0,0.4,0,0.8,0.2,1.2c-0.4,0-0.8,0-1.2-0.1c0.1,0.2,0.2,0.4,0.3,0.5c0.1,0.2,0.2,0.5,0.1,0.7
		s-0.4,0.2-0.6,0c-0.2-0.1-0.4-0.3-0.6-0.3c-0.1,0-0.1,0-0.1,0.1c0,0,0,0.1,0,0.2c0,0.4,0.1,0.9,0.3,1.2c-0.2,0.2-0.7,0-0.8,0.4
		c-0.1,0.2,0,0.4,0.2,0.5c0.1,0.1,0.3,0.2,0.4,0.4c0.2,0.3,0,0.9-0.3,0.9c0.3,0.4,0.8,0.4,1.2,0.3"/>
	<path class="st3" d="M66.4,7.4c0.4,0.3,0.7,0.6,1.1,0.8l0.1,0.1c0.1,0.1-0.1,0.3-0.2,0.3c-0.5,0.3-0.9,0.6-1.3,0.9
		C66,9.7,65.9,9.8,65.9,10c0,0.1,0.1,0.2,0.1,0.3c0.5,0.8,1.1,1.7,1.1,2.7c-0.4,0.2-0.9,0.4-1.3,0.5c0.4,0.6,0.9,1.1,1.5,1.4
		c-0.3,0.4-0.7,0.8-1.1,1c0.5,0.4,1,0.7,1.6,0.8"/>
	<path class="st3" d="M68.3,8.2c-0.5-0.4-0.8-1.5-1.1-2.1c0.3-0.1,0.5,0.2,0.7,0.5s0.3,0.7,0.5,1c-0.3-0.4-0.3-1-0.6-1.5
		c-0.2-0.4-0.5-0.7-0.4-1.2c0.3,0.6,0.7,1.2,1,1.8c-0.2-0.4-0.3-0.8-0.3-1.3c0-0.2,0-0.4,0.1-0.4c0.1-0.1,0.3,0.2,0.4,0.4
		c0.1,0.3,0.2,0.7,0.3,1c-0.4-0.3-0.6-1.2-0.4-1.8c0.1,0.1,0.2,0.2,0.3,0.3C68.9,5,69,5.2,69,5.4s0,0.4-0.1,0.5
		c-0.1,0-0.2,0-0.3,0.1"/>
	<path class="st3" d="M65.7,6.7c0.3,0,0.6,0.1,0.8,0.3C66.8,7.2,67,7.5,67,7.9c0,0.3-0.4,0.7-0.7,0.5c0-0.3,0-0.6,0-0.9
		c0-0.1,0-0.2,0.1-0.3c0.2-0.2,0.5-0.3,0.8-0.3c0.2,0,0.3,0,0.4,0.1s0.1,0.4,0,0.6c-0.2,0.5-0.5,1-0.8,1.4c-0.4,0-0.7-0.1-1-0.3
		s-0.5-0.6-0.4-0.9c1.1-0.1,2.3,0.2,3.2,0.8c0.2,0.2,0.5,0.4,0.5,0.6c0,0.4-0.4,0.6-0.7,0.7c-0.4,0-0.7-0.1-1.1-0.1
		c0,0.5,0.2,1.1,0.7,1.4c0.1,0.1,0.3,0.2,0.3,0.3c0.1,0.2-0.1,0.4-0.2,0.5c-0.7,0.6-1.5,1.1-2.4,1.3"/>
	<path class="st3" d="M65.7,8.2c0.3,0,0.6,0.1,0.8,0.3C66.8,8.8,67,9.1,67,9.4s-0.4,0.7-0.7,0.5c0-0.3,0-0.6,0-0.9
		c0-0.1,0-0.2,0.1-0.3c0.2-0.2,0.5-0.3,0.8-0.3c0.2,0,0.3,0,0.4,0.1s0.1,0.4,0,0.6c-0.2,0.5-0.5,1-0.8,1.4c-0.4,0-0.7-0.1-1-0.3
		s-0.5-0.6-0.4-0.9c1.1-0.1,2.3,0.2,3.2,0.8c0.2,0.2,0.5,0.4,0.5,0.6c0,0.4-0.4,0.6-0.7,0.7c-0.4,0-0.7-0.1-1.1-0.1
		c0,0.5,0.2,1.1,0.7,1.4c0.1,0.1,0.3,0.2,0.3,0.3c0.1,0.2-0.1,0.4-0.2,0.5c-0.7,0.6-1.5,1.1-2.4,1.3"/>
	<path class="st3" d="M65.2,8.4c0.3,0,0.6,0.1,0.8,0.3c0.3,0.2,0.5,0.5,0.5,0.9s-0.4,0.7-0.7,0.5c0-0.3,0-0.6,0-0.9
		c0-0.1,0-0.2,0.1-0.3c0.2-0.2,0.5-0.3,0.8-0.3c0.2,0,0.3,0,0.4,0.1s0.1,0.4,0,0.6c-0.2,0.5-0.5,1-0.8,1.4c-0.4,0-0.7-0.1-1-0.3
		s-0.5-0.6-0.4-0.9c1.1-0.1,2.3,0.2,3.2,0.8c0.2,0.2,0.5,0.4,0.5,0.6c0,0.4-0.4,0.6-0.7,0.7c-0.4,0-0.7-0.1-1.1-0.1
		c0,0.5,0.2,1.1,0.7,1.4c0.1,0.1,0.3,0.2,0.3,0.3c0.1,0.2-0.1,0.4-0.2,0.5c-0.7,0.6-1.5,1.1-2.4,1.3"/>
	<path class="st0" d="M69.2,20.6c-0.3-0.1-0.6-0.3-0.9-0.5l-5.8-6.3c-0.7-0.8-0.7-2.1,0-2.9l5.8-6.3c0.2-0.3,0.5-0.4,0.9-0.5V3
		c-0.6,0.1-1.1,0.4-1.5,0.8l-5.8,6.3c-1.1,1.2-1.1,3.2,0,4.4l5.8,6.3c0.4,0.5,1,0.7,1.5,0.8V20.6z"/>
</g>
</svg>
