<?xml version="1.0" encoding="utf-8"?>
<!-- Generator: Adobe Illustrator 23.0.2, SVG Export Plug-In . SVG Version: 6.00 Build 0)  -->
<svg version="1.1" id="Layer_1" xmlns="http://www.w3.org/2000/svg" xmlns:xlink="http://www.w3.org/1999/xlink" x="0px" y="0px"
	 viewBox="0 0 20 20" style="enable-background:new 0 0 20 20;" xml:space="preserve">
<style type="text/css">
	.st0{fill:#FFFFFF;}
	.st1{fill:none;stroke:#FCEF08;stroke-width:0.25;stroke-miterlimit:10;}
	.st2{fill:#E0800E;}
	.st3{fill:none;stroke:#FFFFFF;stroke-width:0.25;stroke-miterlimit:10;}
</style>
<rect x="24.9" y="17.8" class="st0" width="20" height="20"/>
<g>
	<path class="st1" d="M9.5,13.5c0.3-0.1,0.4-0.4,0.3-0.7s-0.3-0.4-0.6-0.5C9,12.2,8.7,12.1,8.5,12c0.9-0.2,1.7-0.7,2.4-1.3
		c-0.5-0.4-0.9-0.8-1.4-1.1c0.5-0.1,1-0.4,1.2-0.9s0-1.2-0.5-1.3c-0.2-0.1-0.6,0-0.6-0.3c0-0.1,0-0.2,0-0.2c0.1-0.4,0.1-0.8,0.2-1.1
		c-0.5-0.2-0.7-0.2-1-0.3S8.3,5.2,8.3,4.9c0-0.1,0.1-0.2,0.1-0.3c0-0.2-0.2-0.3-0.4-0.4c-0.4,0-0.7,0.1-1,0.1C7,4,7,3.7,7.1,3.4
		C6.8,3.3,6.5,3.6,6.5,3.9s0.2,0.6,0.4,0.8c0.2,0.2,0.5,0.4,0.6,0.7c-0.3,0-0.6,0.2-0.7,0.4s0,0.6,0.2,0.8c0.1,0.1,0.3,0.2,0.4,0.3
		C7.5,7,7.5,7.2,7.5,7.3c0,0.1-0.1,0.1-0.2,0.2C7,7.7,6.7,7.9,6.4,8c0.3,0.3,0.5,0.7,0.4,1.1c0,0.4-0.3,0.7-0.7,0.9
		c0.3,0.2,0.7,0.5,0.6,0.9c0,0.2-0.2,0.4-0.3,0.6c-0.2,0.6,0.8,1.2,0.6,1.8c-0.1,0.3-0.5,0.5-0.5,0.9c0,0.2,0.2,0.3,0.2,0.5
		c0.1,0.4-0.5,0.8-0.4,1.2c0.3,0,0.6,0,0.9,0c0.1,0,0.2,0,0.2-0.1s0-0.1,0-0.2c-0.1-0.2-0.3-0.3-0.4-0.5s-0.3-0.4-0.2-0.6
		c0.1-0.2,0.3-0.3,0.4-0.3c0.4-0.1,0.8-0.3,1.1-0.4c0.1,0,0.1-0.1,0.2-0.1c0.1-0.1,0-0.2,0-0.3c-0.1-0.3-0.3-0.5-0.4-0.8
		c0-0.1-0.1-0.3-0.1-0.4s0.1-0.2,0.1-0.3C8.5,11.4,9,11,9.5,10.6c-0.4-0.6-0.7-1.2-1-1.8c-0.2-0.4-0.3-0.9,0-1.2
		c0.1-0.1,0.3-0.2,0.3-0.3c0-0.1-0.1-0.3-0.2-0.4c-0.4-0.3-0.5-1.2,0-1.6c0.5,0.1,0.8,0.6,0.9,1c0.1,0.5,0,1-0.4,1.3
		c0.6,0.4,1.1,0.8,1.7,1.1c0.3,0.2,0.6,0.4,0.5,0.7c0,0.3-0.4,0.5-0.7,0.7c0.1-0.2-0.1-0.4-0.4-0.4S9.9,10,9.8,10.2
		C9.7,9.9,9.4,9.5,9.2,9.1C9,9.2,8.8,9.4,8.7,9.7c-0.5-0.2-1-0.5-1.4-0.9c-0.2,0.5-0.4,1-0.7,1.4C6.4,10,6.3,9.9,6.2,9.8
		C6,10.3,6,10.8,6,11.2c0,0.1,0,0.1,0,0.1c0.1,0.1,0.2,0,0.2-0.1c0.1-0.1,0.3-0.2,0.4-0.3c0.4,0.4,0.8,0.9,1.2,1.3
		c0.5-0.5,1.1-0.9,1.8-1.1c-0.2,0.3,0.2,0.7,0.5,0.6s0.6-0.4,0.7-0.7c0.1-0.3,0.2-0.6,0.3-0.9"/>
	<path class="st1" d="M10.3,14.6c0.3-0.1,0.4-0.4,0.3-0.7s-0.3-0.4-0.6-0.5c-0.2-0.1-0.5-0.2-0.7-0.3c0.9-0.2,1.7-0.7,2.4-1.3
		c-0.5-0.4-0.9-0.8-1.4-1.1c0.5-0.1,1-0.4,1.2-0.9s0-1.2-0.5-1.3c-0.2-0.1-0.6,0-0.6-0.3c0-0.1,0-0.2,0-0.2c0.1-0.4,0.1-0.8,0.2-1.1
		c-0.2-0.1-0.5-0.1-0.8-0.2S9,6.3,9.1,6.1c0-0.1,0.1-0.2,0.1-0.3c0-0.2-0.2-0.3-0.4-0.4c-0.3-0.1-0.6,0-0.9,0.1C7.9,5.2,8,4.9,8,4.6
		C7.6,4.4,7.2,4.7,7.2,5s0.2,0.6,0.4,0.8C7.9,6,8.2,6.2,8.3,6.5C8,6.5,7.7,6.7,7.6,7s0,0.6,0.2,0.8C7.9,7.9,8,7.9,8.1,8
		c0.1,0.1,0.2,0.3,0.1,0.4c0,0.1-0.1,0.1-0.2,0.2C7.8,8.9,7.5,9,7.2,9.2c0.3,0.3,0.5,0.7,0.4,1.1c-0.1,0.4-0.4,0.8-0.7,0.9
		c0.3,0.2,0.7,0.5,0.6,0.9c0,0.2-0.2,0.4-0.3,0.6C7,13.3,8,13.9,7.8,14.5c-0.1,0.3-0.5,0.5-0.5,0.9c0,0.2,0.2,0.3,0.2,0.5
		c0.1,0.4-0.5,0.8-0.4,1.2c0.3,0,0.6,0,0.9,0c0.1,0,0.2,0,0.2-0.1s0-0.1,0-0.2c-0.1-0.2-0.3-0.3-0.4-0.5s-0.3-0.4-0.2-0.6
		c0.1-0.2,0.3-0.3,0.4-0.3c0.4-0.1,0.8-0.3,1.1-0.4c0.1,0,0.1-0.1,0.2-0.1c0.1-0.1,0-0.2,0-0.3c0-0.3-0.2-0.6-0.3-0.8
		c-0.1-0.1-0.2-0.3-0.2-0.4c0-0.1,0.1-0.2,0.1-0.3c0.4-0.5,0.8-0.9,1.4-1.3c-0.4-0.6-0.7-1.2-1-1.8C9.1,9.6,9,9.1,9.4,8.8
		c0.1-0.1,0.3-0.2,0.3-0.3S9.6,8.2,9.5,8.1C9,7.7,8.9,6.9,9.3,6.4c0.5,0.1,0.8,0.6,0.9,1c0.1,0.5,0,1-0.4,1.3
		c0.6,0.4,1.1,0.8,1.7,1.1c0.3,0.2,0.6,0.4,0.5,0.7c0,0.3-0.4,0.5-0.7,0.7c0.1-0.2-0.1-0.4-0.4-0.4s-0.3,0.3-0.4,0.5
		c-0.3-0.4-0.5-0.8-0.7-1.2c-0.2,0.1-0.4,0.4-0.5,0.6c-0.3,0-0.8-0.3-1.2-0.8c-0.2,0.5-0.4,1-0.7,1.4C7.3,11.2,7.1,11,7,10.9
		c-0.1,0.5-0.2,1-0.1,1.5c0,0.1,0,0.1,0,0.1c0.1,0.1,0.2,0,0.2-0.1c0.1-0.1,0.3-0.2,0.4-0.3c0.4,0.4,0.8,0.9,1.2,1.3
		c0.5-0.5,1.1-0.9,1.8-1.1c-0.2,0.3,0.2,0.7,0.5,0.6c0.3-0.1,0.6-0.4,0.7-0.7c0.1-0.3,0.2-0.6,0.3-0.9"/>
	<path class="st1" d="M10.1,13c0.3-0.1,0.4-0.4,0.3-0.7s-0.3-0.4-0.6-0.5c-0.2-0.1-0.5-0.2-0.7-0.3c0.9-0.2,1.7-0.7,2.4-1.3
		c-0.5-0.4-0.9-0.8-1.4-1.1c0.5-0.1,1-0.4,1.2-0.9s0-1.2-0.5-1.3c-0.2-0.1-0.6,0-0.6-0.3c0-0.1,0-0.2,0-0.2c0.1-0.4,0.1-0.8,0.2-1.1
		C10,5.1,9.7,5.1,9.4,5C9.2,4.9,8.9,4.7,8.9,4.4C9,4.3,9,4.3,9,4.2C9,4,8.8,3.8,8.6,3.8C8.3,3.7,8,3.8,7.7,3.9
		c0-0.3,0.1-0.6,0.1-0.9C7.4,2.8,7.1,3.1,7.1,3.4S7.3,4,7.5,4.2C7.8,4.4,8,4.6,8.1,4.9c-0.3,0-0.6,0.2-0.7,0.4s0,0.6,0.2,0.8
		C7.7,6.2,7.9,6.3,8,6.4c0.1,0.1,0.2,0.3,0.1,0.4C8.1,6.9,8,7,7.9,7C7.7,7.2,7.4,7.4,7.1,7.5c0.3,0.3,0.5,0.7,0.4,1.1
		C7.4,9,7.1,9.4,6.7,9.5C7,9.7,7.4,10,7.3,10.4c0,0.2-0.2,0.4-0.3,0.6c-0.2,0.6,0.8,1.2,0.6,1.8c-0.1,0.3-0.5,0.5-0.5,0.9
		c0,0.2,0.2,0.3,0.2,0.5C7.5,14.6,6.9,15,7,15.4c0.3,0,0.6,0,0.9,0c0.1,0,0.2,0,0.2-0.1s0-0.1,0-0.2c-0.1-0.2-0.3-0.3-0.4-0.5
		S7.4,14.2,7.5,14c0.1-0.2,0.3-0.3,0.4-0.3c0.4-0.1,0.8-0.3,1.1-0.4c0.1,0,0.1-0.1,0.2-0.1c0.1-0.1,0-0.2,0-0.3
		c-0.1-0.3-0.3-0.5-0.4-0.8c-0.1-0.1-0.2-0.3-0.2-0.4c0-0.1,0.1-0.2,0.1-0.3c0.4-0.5,0.8-0.9,1.4-1.3C9.8,9.6,9.4,9,9.2,8.4
		C9,8,8.9,7.5,9.2,7.2C9.3,7.1,9.5,7,9.5,6.9S9.4,6.6,9.3,6.5C8.8,6.1,8.8,5.3,9.2,4.8c0.5,0.1,0.8,0.6,0.9,1c0.1,0.5,0,1-0.4,1.3
		c0.6,0.4,1.1,0.8,1.7,1.1C11.7,8.5,12,8.7,12,9s-0.4,0.5-0.7,0.7c0.1-0.2-0.1-0.4-0.4-0.4c-0.2,0.1-0.3,0.3-0.4,0.5
		C10.3,9.4,10.1,9,9.9,8.6C9.7,8.7,9.5,9,9.4,9.2C8.8,9,8.3,8.7,7.9,8.3c-0.2,0.5-0.4,1-0.7,1.4C7.1,9.6,6.9,9.4,6.8,9.3
		c-0.1,0.5-0.2,1-0.1,1.5c0,0.1,0,0.1,0,0.1c0.1,0.1,0.2,0,0.2-0.1c0.1-0.1,0.3-0.2,0.4-0.3c0.4,0.4,0.8,0.9,1.2,1.3
		c0.5-0.5,1.1-0.9,1.8-1.1c-0.2,0.3,0.2,0.7,0.5,0.6c0.3-0.1,0.6-0.4,0.7-0.7c0.1-0.3,0.2-0.6,0.3-0.9"/>
	<path class="st1" d="M12.4,10.9c0.3,0,0.4-0.3,0.3-0.6s-0.3-0.4-0.5-0.5s-0.5-0.2-0.5-0.5c0-0.1,0.2-0.2,0.2-0.4s-0.1-0.3-0.2-0.4
		s-0.3-0.2-0.4-0.3c-0.2-0.2,0-0.6-0.2-0.8c-0.2-0.2-0.6-0.2-0.8-0.4"/>
	<path class="st1" d="M8.8,13.4c-0.7-0.7-1.4-1.4-2-2.2c0.4-0.2,0.9-0.4,1.4-0.4C7.9,9.5,7.3,8.3,6.5,7.3c0.3,0,0.8-0.2,1-0.1
		S7.9,7.7,8,7.9c0.5,0.4,1,0.8,1.6,0.9c-1,0.1-2.1,0.1-3.1,0.1c1.3,0.3,2.5,0.8,3.6,1.6c0.5,0.3,1,0.7,1.5,0.8
		c-0.8,0.2-1.5,0.5-2.3,0.8c0.6,0,1.2-0.4,1.6-0.9c0.4-0.5,0.8-1,1.1-1.6c-0.2,0-0.3,0.2-0.3,0.4s0.1,0.4,0.1,0.6
		c0,0.5-0.3,0.8-0.7,1.1c-1.7,1.7-3.5,3.3-5.2,5c-0.3-1.9,0.2-3.8,0.5-5.7C6.7,10,6.9,8.8,7,7.7c0-0.4,0.1-0.8,0-1.2
		c0-0.6-0.3-1.2-0.1-1.7"/>
	<path class="st1" d="M7.4,13.4c-0.2,0-0.4,0-0.5,0c0.9-0.8,1.8-1.5,2.7-2.2c-0.8-0.2-1.5-0.3-2.3-0.5c1-0.7,1.8-1.5,2.3-2.6
		c-0.7-0.3-1.3-0.6-1.9-1C7.6,7.1,7.6,7,7.5,6.9c0-0.2,0.3-0.3,0.6-0.5C8.3,6.3,8.5,6,8.4,5.7C8.3,5.4,8,5.2,7.7,5.3
		c0-0.2,0-0.4,0.1-0.6C7.6,4.6,7.2,4.5,6.9,4.3C7,4.1,7.2,3.8,7.3,3.6C7,3.6,6.6,3.5,6.2,3.4c0-0.1,0.1-0.2,0.1-0.2
		c-0.1,0-0.1,0-0.2-0.1C6.1,3,6.1,3,6.2,3"/>
	<path class="st1" d="M6.3,4.9c-0.1-0.1-0.2,0-0.2,0.2c0,1.1,0.3,2.3,0.9,3.2C6.7,7.4,6.6,6.5,6.6,5.6c0-0.2,0-0.3,0.1-0.5
		c0-0.1,0.1-0.2,0.2-0.3c0-0.2-0.1-0.4-0.3-0.5C6.4,4.2,6.2,4.2,6,4.2C6.3,4,6.5,3.6,6.5,3.3c-0.1,0-0.2,0-0.3,0
		C6.4,3.4,6.3,3.7,6.3,4C6.2,4.2,6,4.4,6.1,4.7c0,0.2,0.1,0.3,0.2,0.5c0.3,0.5,0.6,1.1,0.3,1.6C6.4,6.9,6.2,7,6.1,7.2
		C5.9,7.6,6.1,8,6.3,8.4c0,0.1,0.1,0.2,0.1,0.3C6.3,8.9,6.1,9,5.8,9c0.5,1,1.1,2,1.7,2.9c0.2,0.2,0.3,0.5,0.5,0.7
		c0.3,0.4,0.5,0.8,0.8,1.2C9,14.1,9.4,14.2,9.7,14c0-0.4,0-0.8-0.2-1.2c0.5,0,1,0,1.5,0.1c-0.1-0.2-0.2-0.4-0.3-0.5
		c-0.1-0.2-0.3-0.5-0.1-0.7s0.5-0.2,0.8,0s0.5,0.3,0.7,0.3c0.1,0,0.1,0,0.2-0.1c0,0,0-0.1,0.1-0.2c0.1-0.4-0.1-0.9-0.4-1.2
		c0.3-0.2,0.9,0,1.1-0.4c0.1-0.2-0.1-0.4-0.2-0.5s-0.4-0.2-0.5-0.4c-0.2-0.3,0-0.9,0.4-0.9c-0.4-0.4-1-0.4-1.6-0.3"/>
	<path class="st1" d="M6.3,4.5c0-0.1-0.2,0-0.2,0.2C6.1,5.8,6.4,7,7,7.9C6.8,7,6.6,6.1,6.7,5.2c0-0.2,0-0.3,0.1-0.5
		c0-0.1,0.1-0.2,0.2-0.3C7,4.2,6.9,4,6.7,3.9C6.4,3.8,6.2,3.8,6,3.8c0.3-0.2,0.5-0.5,0.5-0.9c-0.1,0-0.2,0-0.3,0
		C6.4,3,6.4,3.3,6.3,3.6C6.2,3.8,6.1,4,6.1,4.3c0,0.2,0.1,0.3,0.2,0.5c0.3,0.5,0.6,1.1,0.3,1.6C6.5,6.5,6.2,6.6,6.1,6.8
		C5.9,7.2,6.2,7.6,6.3,8c0,0.1,0.1,0.2,0.1,0.3c0,0.2-0.3,0.4-0.5,0.3c0.5,1,1.1,2,1.7,2.9C7.7,11.7,7.9,12,8,12.2
		c0.3,0.4,0.5,0.8,0.8,1.2c0.2,0.3,0.6,0.4,0.9,0.2c0-0.4,0-0.8-0.2-1.2c0.5,0,1,0,1.5,0.1c-0.1-0.2-0.2-0.4-0.3-0.5
		c-0.1-0.2-0.3-0.5-0.1-0.7s0.5-0.2,0.8,0c0.2,0.1,0.5,0.3,0.7,0.3c0.1,0,0.1,0,0.2-0.1c0,0,0-0.1,0.1-0.2c0.1-0.4-0.1-0.9-0.4-1.2
		c0.3-0.2,0.9,0,1.1-0.4c0.1-0.2-0.1-0.4-0.2-0.5c-0.2-0.1-0.4-0.2-0.5-0.4c-0.2-0.3,0-0.9,0.4-0.9c-0.4-0.4-1-0.4-1.6-0.3"/>
	<path class="st1" d="M6.2,3.2c0-0.1-0.1,0.1-0.1,0.2c0,1.1,0.2,2.3,0.7,3.2C6.5,5.8,6.5,4.9,6.5,4c0-0.2,0-0.3,0.1-0.5
		c0-0.1,0.1-0.2,0.1-0.3c0-0.2-0.1-0.4-0.2-0.5S6.2,2.6,6,2.6C6.2,2.4,6.4,2,6.4,1.7c-0.1,0-0.2,0-0.2,0c0.1,0.2,0.1,0.5,0,0.7
		C6.1,2.6,6,2.8,6,3.1c0,0.2,0.1,0.3,0.2,0.5c0.2,0.4,0.5,1,0.2,1.5C6.3,5.3,6.1,5.4,6.1,5.6C5.9,6,6.1,6.4,6.2,6.7
		c0,0.1,0.1,0.2,0,0.3c0,0.2-0.2,0.4-0.4,0.3c0.4,1,0.8,2,1.3,2.9c0.1,0.2,0.2,0.5,0.4,0.7c0.2,0.4,0.4,0.8,0.6,1.2
		c0.1,0.3,0.5,0.4,0.7,0.2c0-0.4,0-0.8-0.2-1.2c0.4,0,0.8,0,1.2,0.1c-0.1-0.2-0.2-0.4-0.3-0.5c-0.1-0.2-0.2-0.5-0.1-0.7
		c0.1-0.2,0.4-0.2,0.6,0s0.4,0.3,0.6,0.3c0.1,0,0.1,0,0.1-0.1c0,0,0-0.1,0-0.2c0-0.4-0.1-0.9-0.3-1.2c0.2-0.2,0.7,0,0.8-0.4
		c0.1-0.2,0-0.4-0.2-0.5c-0.1-0.1-0.3-0.2-0.4-0.4c-0.2-0.3,0-0.9,0.3-0.9c-0.3-0.4-0.8-0.4-1.2-0.3"/>
	<path class="st1" d="M8.7,14.9c-0.4-0.3-0.7-0.6-1.1-0.8L7.5,14c-0.1-0.1,0.1-0.3,0.2-0.3c0.5-0.3,0.9-0.6,1.3-0.9
		c0.1-0.1,0.2-0.2,0.2-0.4c0-0.1-0.1-0.2-0.1-0.3C8.6,11.3,8,10.4,8,9.4C8.5,9.1,8.9,9,9.4,8.9C9,8.3,8.5,7.8,7.9,7.5
		c0.3-0.4,0.7-0.8,1.1-1C8.5,6.1,8,5.8,7.4,5.7"/>
	<path class="st1" d="M6.8,14.1c0.5,0.4,0.8,1.5,1.1,2.1c-0.3,0.1-0.5-0.2-0.7-0.5c-0.2-0.3-0.3-0.7-0.5-1c0.3,0.4,0.3,1,0.6,1.5
		c0.2,0.4,0.5,0.7,0.4,1.2c-0.3-0.6-0.7-1.2-1-1.8C6.9,16,7,16.4,7,16.9c0,0.2,0,0.4-0.1,0.4c-0.1,0.1-0.3-0.2-0.4-0.4
		c-0.1-0.3-0.2-0.7-0.3-1c0.4,0.3,0.6,1.2,0.4,1.8c-0.1-0.1-0.2-0.2-0.3-0.3c-0.3,0-0.4-0.2-0.4-0.4s0-0.4,0.1-0.5
		c0.1,0,0.2,0,0.3-0.1"/>
	<path class="st1" d="M9.5,15.7c-0.3,0-0.6-0.1-0.8-0.3c-0.3-0.2-0.5-0.5-0.5-0.9c0-0.3,0.4-0.7,0.7-0.5c0,0.3,0,0.6,0,0.9
		c0,0.1,0,0.2-0.1,0.3c-0.2,0.2-0.5,0.3-0.8,0.3c-0.2,0-0.3,0-0.4-0.1s-0.1-0.4,0-0.6c0.2-0.5,0.5-1,0.8-1.4c0.4,0,0.7,0.1,1,0.3
		s0.5,0.6,0.4,0.9c-1.1,0.1-2.3-0.2-3.2-0.8C6.3,13.5,6,13.3,6,13.1c0-0.4,0.4-0.6,0.7-0.7c0.4,0,0.7,0.1,1.1,0.1
		c0-0.5-0.2-1.1-0.7-1.4C7,11,6.9,10.9,6.8,10.8c-0.1-0.2,0.1-0.4,0.2-0.5C7.8,9.7,8.6,9.2,9.5,9"/>
	<path class="st1" d="M9.5,14.1c-0.3,0-0.6-0.1-0.8-0.3c-0.3-0.2-0.5-0.5-0.5-0.9c0-0.3,0.4-0.7,0.7-0.5c0,0.3,0,0.6,0,0.9
		c0,0.1,0,0.2-0.1,0.3c-0.2,0.2-0.5,0.3-0.8,0.3c-0.2,0-0.3,0-0.4-0.1s-0.1-0.4,0-0.6c0.2-0.5,0.5-1,0.8-1.4c0.4,0,0.7,0.1,1,0.3
		s0.5,0.6,0.4,0.9c-1.1,0.1-2.3-0.2-3.2-0.8C6.3,12,6,11.8,6,11.5c0-0.4,0.4-0.6,0.7-0.7c0.4,0,0.7,0.1,1.1,0.1
		c0-0.5-0.2-1.1-0.7-1.4C7,9.5,6.9,9.4,6.8,9.2c0-0.1,0.1-0.3,0.3-0.4c0.7-0.6,1.5-1.1,2.4-1.3"/>
	<path class="st1" d="M9.9,13.9c-0.3,0-0.6-0.1-0.8-0.3c-0.3-0.2-0.5-0.5-0.5-0.9c0-0.3,0.4-0.7,0.7-0.5c0,0.3,0,0.6,0,0.9
		c0,0.1,0,0.2-0.1,0.3c-0.2,0.2-0.5,0.3-0.8,0.3c-0.2,0-0.3,0-0.4-0.1S7.9,13.2,8,13c0.2-0.5,0.5-1,0.8-1.4c0.4,0,0.7,0.1,1,0.3
		s0.5,0.6,0.4,0.9c-1.2,0-2.3-0.2-3.3-0.8c-0.2-0.2-0.5-0.4-0.5-0.6c0-0.4,0.4-0.6,0.7-0.7s0.7,0.1,1.1,0.1c0-0.5-0.2-1.1-0.7-1.4
		C7.4,9.3,7.3,9.2,7.2,9c0-0.1,0.1-0.3,0.3-0.4C8.2,8,9,7.5,9.9,7.2"/>
	<path class="st2" d="M6,1.7C6.3,1.8,6.6,2,6.8,2.3l5.8,6.3c0.7,0.8,0.7,2.1,0,2.9l-5.8,6.3C6.6,18,6.3,18.2,6,18.3v1
		c0.6-0.1,1.1-0.4,1.5-0.8l5.8-6.3c1.1-1.2,1.1-3.2,0-4.4L7.5,1.5C7.1,1.1,6.6,0.8,6,0.7V1.7z"/>
</g>
<g>
	<path class="st3" d="M65.6,8.8c-0.3,0.1-0.4,0.4-0.3,0.7S65.7,9.9,66,10s0.5,0.2,0.7,0.3c-0.9,0.2-1.7,0.7-2.4,1.3
		c0.5,0.4,0.9,0.8,1.4,1.1c-0.5,0.1-1,0.4-1.2,0.9s0,1.2,0.5,1.3c0.2,0.1,0.6,0,0.6,0.3c0,0.1,0,0.2,0,0.2c-0.1,0.4-0.1,0.8-0.2,1.1
		c0.2,0.1,0.5,0.1,0.8,0.2s0.5,0.3,0.5,0.6c0,0.1-0.1,0.2-0.1,0.3c0,0.2,0.2,0.3,0.4,0.4c0.3,0.1,0.6,0,0.9-0.1
		c0,0.3-0.1,0.6-0.1,0.9c0.3,0.2,0.6-0.1,0.6-0.4s-0.2-0.6-0.4-0.8c-0.2-0.2-0.5-0.4-0.6-0.7c0.3,0,0.6-0.2,0.7-0.4
		c0.1-0.3,0-0.6-0.2-0.8c-0.1-0.1-0.3-0.2-0.4-0.3s-0.2-0.3-0.1-0.4c0-0.1,0.1-0.1,0.2-0.2c0.3-0.2,0.6-0.4,0.9-0.5
		c-0.3-0.3-0.5-0.7-0.4-1.1s0.4-0.8,0.7-0.9c-0.3-0.2-0.7-0.5-0.6-0.9c0-0.2,0.2-0.4,0.3-0.6c0.2-0.6-0.8-1.2-0.6-1.8
		c0.1-0.3,0.5-0.5,0.5-0.9c0-0.2-0.2-0.3-0.2-0.5c-0.1-0.4,0.5-0.8,0.4-1.2c-0.3,0-0.6,0-0.9,0c-0.1,0-0.2,0-0.2,0.1s0,0.1,0,0.2
		c0.1,0.2,0.3,0.3,0.4,0.5c0.1,0.1,0.3,0.4,0.2,0.6C68.2,7.9,68,8,67.8,8.1c-0.4,0.1-0.8,0.3-1.1,0.4c-0.1,0-0.1,0.1-0.2,0.1
		c-0.1,0.1,0,0.2,0,0.3c0.1,0.3,0.3,0.5,0.4,0.8c0.1,0.1,0.2,0.3,0.2,0.4c0,0.1-0.1,0.2-0.1,0.3c-0.4,0.5-0.8,0.9-1.4,1.3
		c0.4,0.6,0.7,1.2,1,1.8c0.2,0.4,0.3,0.9,0,1.2c-0.1,0.1-0.3,0.2-0.3,0.3s0.1,0.3,0.2,0.4c0.5,0.4,0.5,1.2,0.1,1.7
		c-0.5-0.1-0.8-0.6-0.9-1c-0.1-0.5,0-1,0.4-1.3c-0.6-0.4-1.1-0.8-1.7-1.1c-0.3-0.2-0.6-0.4-0.5-0.7c0-0.3,0.4-0.5,0.7-0.7
		c-0.1,0.2,0.1,0.4,0.4,0.4c0.2-0.1,0.3-0.3,0.4-0.5c0.3,0.4,0.5,0.8,0.7,1.2c0.2-0.1,0.4-0.4,0.5-0.6c0.6,0.2,1.1,0.5,1.4,0.9
		c0.2-0.5,0.4-1,0.7-1.4c0.1,0.1,0.3,0.3,0.4,0.4c0.1-0.5,0.2-1,0.1-1.5c0-0.1,0-0.1,0-0.1c-0.1-0.1-0.2,0-0.2,0.1
		c-0.1,0.1-0.3,0.2-0.4,0.3c-0.4-0.4-0.8-0.9-1.2-1.3c-0.5,0.5-1.1,0.9-1.8,1.1c0.2-0.3-0.2-0.7-0.5-0.6c-0.3,0.1-0.6,0.4-0.7,0.7
		s-0.2,0.6-0.3,0.9"/>
	<path class="st3" d="M64.9,7.7c-0.3,0.1-0.4,0.4-0.3,0.7c0.1,0.2,0.3,0.4,0.6,0.5s0.5,0.2,0.7,0.3c-0.9,0.2-1.7,0.7-2.4,1.3
		c0.5,0.4,0.9,0.8,1.4,1.1c-0.5,0.1-1,0.4-1.2,0.9s0,1.2,0.5,1.3c0.2,0.1,0.6,0,0.6,0.3c0,0.1,0,0.2,0,0.2c-0.1,0.4-0.1,0.8-0.2,1.1
		c0.2,0.1,0.5,0.1,0.8,0.2s0.5,0.3,0.5,0.6c0,0.1-0.1,0.2-0.1,0.3c0,0.2,0.2,0.3,0.4,0.4c0.3,0.1,0.6,0,0.9-0.1
		c0,0.3-0.1,0.6-0.1,0.9c0.3,0.2,0.6-0.1,0.6-0.4s-0.2-0.6-0.4-0.8c-0.2-0.2-0.5-0.4-0.6-0.7c0.3,0,0.6-0.2,0.7-0.4
		c0.1-0.3,0-0.6-0.2-0.8c-0.1-0.1-0.3-0.2-0.4-0.3s-0.2-0.3-0.1-0.4c0-0.1,0.1-0.1,0.2-0.2c0.3-0.2,0.6-0.4,0.9-0.5
		c-0.3-0.3-0.5-0.7-0.4-1.1c0.1-0.4,0.4-0.8,0.7-0.9c-0.3-0.2-0.7-0.5-0.6-0.9c0-0.2,0.2-0.4,0.3-0.6c0.2-0.6-0.8-1.2-0.6-1.8
		c0.1-0.3,0.5-0.5,0.5-0.9c0-0.2-0.2-0.3-0.2-0.5c-0.1-0.4,0.5-0.8,0.4-1.2c-0.3,0-0.6,0-0.9,0c-0.1,0-0.2,0-0.2,0.1s0,0.1,0,0.2
		C67,5.8,67.1,5.9,67.3,6s0.3,0.4,0.2,0.6c-0.1,0.2-0.3,0.3-0.4,0.3C66.7,7,66.3,7.2,66,7.3c-0.1,0-0.1,0.1-0.2,0.1
		c-0.1,0.1,0,0.2,0,0.3C65.9,8,66,8.3,66.2,8.6c0.1,0.1,0.2,0.3,0.2,0.4c0,0.1-0.1,0.2-0.1,0.3c-0.4,0.5-0.8,0.9-1.4,1.3
		c0.4,0.6,0.7,1.2,1,1.8c0.2,0.4,0.3,0.9,0,1.2c-0.1,0.1-0.3,0.2-0.3,0.3s0.1,0.3,0.2,0.4c0.5,0.4,0.5,1.2,0.1,1.7
		c-0.5-0.1-0.8-0.6-0.9-1c-0.1-0.5,0-1,0.4-1.3c-0.6-0.4-1.1-0.8-1.7-1.1C63.3,12.2,63,12,63,11.7s0.4-0.5,0.7-0.7
		c-0.1,0.2,0.1,0.4,0.4,0.4c0.2-0.1,0.3-0.3,0.4-0.5c0.3,0.4,0.5,0.8,0.7,1.2c0.2-0.1,0.4-0.4,0.5-0.6c0.6,0.2,1.1,0.5,1.4,0.9
		c0.2-0.5,0.4-1,0.7-1.4c0.1,0.1,0.3,0.3,0.4,0.4c0.1-0.5,0.2-1,0.1-1.5c0-0.1,0-0.1,0-0.1c-0.1-0.1-0.2,0-0.2,0.1
		c-0.1,0.1-0.3,0.2-0.4,0.3c-0.4-0.4-0.8-0.9-1.2-1.3C66,9.4,65.4,9.8,64.7,10c0.2-0.3-0.2-0.7-0.5-0.6c-0.3,0.1-0.6,0.4-0.7,0.7
		c-0.1,0.3-0.2,0.6-0.3,0.9"/>
	<path class="st3" d="M65,9.3c-0.3,0.1-0.4,0.4-0.3,0.7c0.1,0.2,0.3,0.4,0.6,0.5s0.5,0.2,0.7,0.3c-0.9,0.2-1.7,0.7-2.4,1.3
		c0.5,0.4,0.9,0.8,1.4,1.1c-0.5,0.1-1,0.4-1.2,0.9s0,1.2,0.5,1.3c0.2,0.1,0.6,0,0.6,0.3c0,0.1,0,0.2,0,0.2c-0.1,0.4-0.1,0.8-0.2,1.1
		c0.2,0.1,0.5,0.1,0.8,0.2s0.5,0.3,0.5,0.6c0,0.1-0.1,0.2-0.1,0.3c0,0.2,0.2,0.3,0.4,0.4c0.3,0.1,0.6,0,0.9-0.1
		c0,0.3-0.1,0.6-0.1,0.9c0.3,0.2,0.6-0.1,0.6-0.4s-0.2-0.6-0.4-0.8c-0.2-0.2-0.5-0.4-0.6-0.7c0.3,0,0.6-0.2,0.7-0.4
		c0.1-0.3,0-0.6-0.2-0.8c-0.1-0.1-0.3-0.2-0.4-0.3c0.2-0.1,0.2-0.3,0.2-0.4s0.1-0.1,0.2-0.2c0.3-0.2,0.6-0.4,0.9-0.5
		c-0.3-0.3-0.5-0.7-0.4-1.1c0.1-0.4,0.4-0.8,0.7-0.9c-0.3-0.2-0.7-0.5-0.6-0.9c0-0.2,0.2-0.4,0.3-0.6c0.2-0.6-0.8-1.2-0.6-1.8
		C67.6,9.2,68,9,68,8.6c0-0.2-0.2-0.3-0.2-0.5c-0.1-0.4,0.5-0.8,0.4-1.2c-0.3,0-0.6,0-0.9,0c-0.1,0-0.2,0-0.2,0.1s0,0.1,0,0.2
		c0.1,0.2,0.3,0.3,0.4,0.5c0.1,0.1,0.3,0.4,0.2,0.6c-0.1,0.2-0.3,0.3-0.4,0.3c-0.4,0.1-0.8,0.3-1.1,0.4c-0.2,0-0.3,0-0.3,0.1
		c-0.1,0.1,0,0.2,0,0.3c0.1,0.3,0.3,0.5,0.4,0.8c0.1,0.1,0.2,0.3,0.2,0.4c0,0.1-0.1,0.2-0.1,0.3c-0.4,0.5-0.8,0.9-1.4,1.3
		c0.4,0.6,0.7,1.2,1,1.8c0.2,0.4,0.3,0.9,0,1.2c-0.1,0.1-0.3,0.2-0.3,0.3s0.1,0.3,0.2,0.4c0.5,0.4,0.5,1.2,0.1,1.7
		c-0.5-0.1-0.8-0.6-0.9-1c-0.1-0.5,0-1,0.4-1.3c-0.6-0.4-1.1-0.8-1.7-1.1c-0.3-0.2-0.6-0.4-0.5-0.7c0-0.3,0.4-0.5,0.7-0.7
		c-0.1,0.2,0.1,0.4,0.4,0.4c0.2-0.1,0.3-0.3,0.4-0.5c0.3,0.4,0.5,0.8,0.7,1.2c0.2-0.1,0.4-0.4,0.5-0.6c0.6,0.2,1.1,0.5,1.4,0.9
		c0.2-0.5,0.4-1,0.7-1.4c0.1,0.1,0.3,0.3,0.4,0.4c0.1-0.5,0.2-1,0.1-1.5c0-0.1,0-0.1,0-0.1c-0.1-0.1-0.2,0-0.2,0.1
		c-0.1,0.1-0.3,0.2-0.4,0.3c-0.4-0.4-0.8-0.9-1.2-1.3c-0.5,0.5-1.1,0.9-1.8,1.1c0.2-0.3-0.2-0.7-0.5-0.6c-0.3,0.1-0.6,0.4-0.7,0.7
		c-0.1,0.3-0.2,0.6-0.3,0.9"/>
	<path class="st3" d="M62.7,11.4c-0.3,0-0.4,0.3-0.3,0.6c0.1,0.2,0.3,0.4,0.5,0.5s0.5,0.2,0.5,0.5c0,0.1-0.2,0.2-0.2,0.4
		s0.1,0.3,0.2,0.4c0.1,0.1,0.3,0.2,0.4,0.3c0.2,0.2,0,0.6,0.2,0.8s0.6,0.2,0.8,0.4"/>
	<path class="st3" d="M66.4,8.9c0.7,0.7,1.4,1.4,2,2.2c-0.4,0.2-0.9,0.4-1.4,0.4c0.3,1.3,0.9,2.5,1.8,3.5c-0.3,0-0.8,0.2-1,0.1
		c-0.2-0.1-0.4-0.5-0.6-0.7c-0.5-0.4-1-0.8-1.6-0.9c1-0.1,2.1-0.1,3.1-0.1c-1.3-0.3-2.5-0.8-3.6-1.6c-0.5-0.3-1-0.7-1.5-0.8
		c0.8-0.2,1.5-0.5,2.3-0.8c-0.6,0-1.2,0.4-1.6,0.9s-0.8,1-1.1,1.6c0.2,0,0.3-0.2,0.3-0.4s-0.1-0.4-0.1-0.6c0-0.5,0.3-0.8,0.7-1.1
		c1.7-1.7,3.5-3.3,5.2-5c0.3,1.9-0.2,3.8-0.5,5.7c-0.2,1.1-0.3,2.3-0.4,3.5c0,0.4-0.1,0.8,0,1.2c0.1,0.6,0.3,1.2,0.1,1.7"/>
	<path class="st3" d="M67.7,8.9c0.2,0,0.4,0,0.5,0c-0.9,0.8-1.8,1.5-2.7,2.2c0.8,0.2,1.5,0.3,2.3,0.5c-1,0.7-1.8,1.5-2.3,2.6
		c0.6,0.3,1.2,0.7,1.8,1.1c0.1,0,0.2,0.1,0.2,0.2c0.1,0.3-0.3,0.4-0.5,0.5c-0.3,0.1-0.4,0.5-0.3,0.7s0.4,0.5,0.7,0.4
		c0,0.2,0,0.4-0.1,0.6c0.3,0.1,0.6,0.2,0.9,0.4c-0.1,0.2-0.3,0.5-0.4,0.7c0.4,0,0.8,0.1,1.1,0.2c0,0.1-0.1,0.2-0.1,0.2
		c0.1,0,0.1,0,0.2,0.1c0,0.1,0,0.1-0.1,0.1"/>
	<path class="st3" d="M68.8,17.5c0.1,0.1,0.2-0.1,0.2-0.2c0-1.1-0.3-2.3-0.9-3.2c0.2,0.9,0.4,1.8,0.4,2.7c0,0.2,0,0.3-0.1,0.5
		c0,0.1-0.1,0.2-0.2,0.3c0,0.2,0.1,0.4,0.3,0.5s0.4,0.1,0.6,0.1c-0.3,0.2-0.5,0.5-0.5,0.9c0.1,0,0.2,0,0.3,0
		c-0.2-0.2-0.1-0.5-0.1-0.7c0.1-0.2,0.2-0.5,0.2-0.7s-0.1-0.3-0.2-0.5c-0.3-0.5-0.6-1.1-0.3-1.6c0.1-0.2,0.4-0.3,0.5-0.5
		c0.2-0.4,0-0.8-0.2-1.1c0-0.1-0.1-0.2-0.1-0.3c0-0.2,0.3-0.4,0.5-0.3c-0.5-1-1.1-2-1.7-2.9c-0.2-0.2-0.3-0.5-0.5-0.7
		c-0.3-0.4-0.5-0.8-0.8-1.2c-0.2-0.3-0.6-0.4-0.9-0.2c0,0.4,0,0.8,0.2,1.2c-0.5,0-1,0-1.5-0.1c0.1,0.2,0.2,0.4,0.3,0.5
		c0.1,0.2,0.3,0.5,0.1,0.7c-0.2,0.2-0.5,0.2-0.8,0c-0.2-0.1-0.5-0.3-0.7-0.3c-0.1,0-0.1,0-0.2,0.1c0,0,0,0.1-0.1,0.2
		c-0.1,0.4,0.1,0.9,0.4,1.2c-0.3,0.2-0.9,0-1.1,0.4c-0.1,0.2,0.1,0.4,0.2,0.5c0.2,0.1,0.4,0.2,0.5,0.4c0.2,0.3,0,0.9-0.4,0.9
		c0.4,0.4,1,0.4,1.6,0.3"/>
	<path class="st3" d="M68.8,17.9c0.1,0.1,0.2-0.1,0.2-0.2c0-1.1-0.3-2.3-0.9-3.2c0.2,0.9,0.4,1.8,0.4,2.7c0,0.2,0,0.3-0.1,0.5
		c0,0.1-0.1,0.2-0.2,0.3c0,0.2,0.1,0.4,0.3,0.5c0.2,0.1,0.4,0.1,0.6,0.1c-0.3,0.2-0.5,0.5-0.5,0.9c0.1,0,0.2,0,0.3,0
		c-0.2-0.2-0.1-0.5-0.1-0.7s0.2-0.5,0.2-0.7s-0.1-0.3-0.2-0.5c-0.3-0.5-0.6-1.1-0.3-1.6c0.1-0.2,0.4-0.3,0.5-0.5
		c0.2-0.4,0-0.8-0.2-1.1c0-0.1-0.1-0.2-0.1-0.3c0-0.2,0.3-0.4,0.5-0.3c-0.5-1-1.1-2-1.7-2.9c-0.2-0.2-0.3-0.5-0.5-0.7
		c-0.3-0.4-0.5-0.8-0.8-1.2c-0.2-0.3-0.6-0.4-0.9-0.2c0,0.4,0,0.8,0.2,1.2c-0.5,0-1,0-1.5-0.1c0.1,0.2,0.2,0.4,0.3,0.5
		c0.1,0.2,0.3,0.5,0.1,0.7c-0.2,0.2-0.5,0.2-0.8,0c-0.2-0.1-0.5-0.3-0.7-0.3c-0.1,0-0.1,0-0.2,0.1c0,0,0,0.1-0.1,0.2
		c-0.1,0.4,0.1,0.9,0.4,1.2c-0.3,0.2-0.9,0-1.1,0.4c-0.1,0.2,0.1,0.4,0.2,0.5c0.2,0.1,0.4,0.2,0.5,0.4c0.2,0.3,0,0.9-0.4,0.9
		c0.4,0.4,1,0.4,1.6,0.3"/>
	<path class="st3" d="M68.9,19.1c0.1,0.1,0.2-0.1,0.2-0.2c0-1.1-0.2-2.3-0.7-3.2c0.2,0.9,0.3,1.8,0.3,2.7c0,0.2,0,0.3-0.1,0.5
		c0,0.1-0.1,0.2-0.1,0.3c0,0.2,0.1,0.4,0.2,0.5s0.3,0.1,0.4,0.1c-0.2,0.2-0.4,0.5-0.4,0.9c0.1,0,0.2,0,0.2,0c-0.1-0.2-0.1-0.5,0-0.7
		s0.2-0.5,0.1-0.7c0-0.2-0.1-0.3-0.2-0.5c-0.2-0.5-0.5-1.1-0.2-1.6c0.1-0.2,0.3-0.3,0.4-0.5c0.1-0.4,0-0.8-0.1-1.1
		c0-0.1-0.1-0.2,0-0.3c0-0.2,0.2-0.4,0.4-0.3c-0.4-1-0.8-2-1.3-2.9c-0.1-0.2-0.2-0.5-0.4-0.7c-0.2-0.4-0.4-0.8-0.6-1.2
		c-0.1-0.3-0.5-0.4-0.7-0.2c0,0.4,0,0.8,0.2,1.2c-0.4,0-0.8,0-1.2-0.1c0.1,0.2,0.2,0.4,0.3,0.5c0.1,0.2,0.2,0.5,0.1,0.7
		s-0.4,0.2-0.6,0c-0.2-0.1-0.4-0.3-0.6-0.3c-0.1,0-0.1,0-0.1,0.1c0,0,0,0.1,0,0.2c0,0.4,0.1,0.9,0.3,1.2c-0.2,0.2-0.7,0-0.8,0.4
		c-0.1,0.2,0,0.4,0.2,0.5c0.1,0.1,0.3,0.2,0.4,0.4c0.2,0.3,0,0.9-0.3,0.9c0.3,0.4,0.8,0.4,1.2,0.3"/>
	<path class="st3" d="M66.4,7.4c0.4,0.3,0.7,0.6,1.1,0.8l0.1,0.1c0.1,0.1-0.1,0.3-0.2,0.3c-0.5,0.3-0.9,0.6-1.3,0.9
		C66,9.7,65.9,9.8,65.9,10c0,0.1,0.1,0.2,0.1,0.3c0.5,0.8,1.1,1.7,1.1,2.7c-0.4,0.2-0.9,0.4-1.3,0.5c0.4,0.6,0.9,1.1,1.5,1.4
		c-0.3,0.4-0.7,0.8-1.1,1c0.5,0.4,1,0.7,1.6,0.8"/>
	<path class="st3" d="M68.3,8.2c-0.5-0.4-0.8-1.5-1.1-2.1c0.3-0.1,0.5,0.2,0.7,0.5s0.3,0.7,0.5,1c-0.3-0.4-0.3-1-0.6-1.5
		c-0.2-0.4-0.5-0.7-0.4-1.2c0.3,0.6,0.7,1.2,1,1.8c-0.2-0.4-0.3-0.8-0.3-1.3c0-0.2,0-0.4,0.1-0.4c0.1-0.1,0.3,0.2,0.4,0.4
		c0.1,0.3,0.2,0.7,0.3,1c-0.4-0.3-0.6-1.2-0.4-1.8c0.1,0.1,0.2,0.2,0.3,0.3C68.9,5,69,5.2,69,5.4s0,0.4-0.1,0.5
		c-0.1,0-0.2,0-0.3,0.1"/>
	<path class="st3" d="M65.7,6.7c0.3,0,0.6,0.1,0.8,0.3C66.8,7.2,67,7.5,67,7.9c0,0.3-0.4,0.7-0.7,0.5c0-0.3,0-0.6,0-0.9
		c0-0.1,0-0.2,0.1-0.3c0.2-0.2,0.5-0.3,0.8-0.3c0.2,0,0.3,0,0.4,0.1s0.1,0.4,0,0.6c-0.2,0.5-0.5,1-0.8,1.4c-0.4,0-0.7-0.1-1-0.3
		s-0.5-0.6-0.4-0.9c1.1-0.1,2.3,0.2,3.2,0.8c0.2,0.2,0.5,0.4,0.5,0.6c0,0.4-0.4,0.6-0.7,0.7c-0.4,0-0.7-0.1-1.1-0.1
		c0,0.5,0.2,1.1,0.7,1.4c0.1,0.1,0.3,0.2,0.3,0.3c0.1,0.2-0.1,0.4-0.2,0.5c-0.7,0.6-1.5,1.1-2.4,1.3"/>
	<path class="st3" d="M65.7,8.2c0.3,0,0.6,0.1,0.8,0.3C66.8,8.8,67,9.1,67,9.4s-0.4,0.7-0.7,0.5c0-0.3,0-0.6,0-0.9
		c0-0.1,0-0.2,0.1-0.3c0.2-0.2,0.5-0.3,0.8-0.3c0.2,0,0.3,0,0.4,0.1s0.1,0.4,0,0.6c-0.2,0.5-0.5,1-0.8,1.4c-0.4,0-0.7-0.1-1-0.3
		s-0.5-0.6-0.4-0.9c1.1-0.1,2.3,0.2,3.2,0.8c0.2,0.2,0.5,0.4,0.5,0.6c0,0.4-0.4,0.6-0.7,0.7c-0.4,0-0.7-0.1-1.1-0.1
		c0,0.5,0.2,1.1,0.7,1.4c0.1,0.1,0.3,0.2,0.3,0.3c0.1,0.2-0.1,0.4-0.2,0.5c-0.7,0.6-1.5,1.1-2.4,1.3"/>
	<path class="st3" d="M65.2,8.4c0.3,0,0.6,0.1,0.8,0.3c0.3,0.2,0.5,0.5,0.5,0.9s-0.4,0.7-0.7,0.5c0-0.3,0-0.6,0-0.9
		c0-0.1,0-0.2,0.1-0.3c0.2-0.2,0.5-0.3,0.8-0.3c0.2,0,0.3,0,0.4,0.1s0.1,0.4,0,0.6c-0.2,0.5-0.5,1-0.8,1.4c-0.4,0-0.7-0.1-1-0.3
		s-0.5-0.6-0.4-0.9c1.1-0.1,2.3,0.2,3.2,0.8c0.2,0.2,0.5,0.4,0.5,0.6c0,0.4-0.4,0.6-0.7,0.7c-0.4,0-0.7-0.1-1.1-0.1
		c0,0.5,0.2,1.1,0.7,1.4c0.1,0.1,0.3,0.2,0.3,0.3c0.1,0.2-0.1,0.4-0.2,0.5c-0.7,0.6-1.5,1.1-2.4,1.3"/>
	<path class="st0" d="M69.2,20.6c-0.3-0.1-0.6-0.3-0.9-0.5l-5.8-6.3c-0.7-0.8-0.7-2.1,0-2.9l5.8-6.3c0.2-0.3,0.5-0.4,0.9-0.5V3
		c-0.6,0.1-1.1,0.4-1.5,0.8l-5.8,6.3c-1.1,1.2-1.1,3.2,0,4.4l5.8,6.3c0.4,0.5,1,0.7,1.5,0.8V20.6z"/>
</g>
</svg>
