<?xml version="1.0" standalone="no"?>
<!DOCTYPE svg PUBLIC "-//W3C//DTD SVG 1.1//EN" "http://www.w3.org/Graphics/SVG/1.1/DTD/svg11.dtd" >
<svg xmlns="http://www.w3.org/2000/svg" xmlns:xlink="http://www.w3.org/1999/xlink" version="1.1">
<metadata></metadata>
<defs>
<font id="yangjinregular" horiz-adv-x="1163" >
<font-face units-per-em="2048" ascent="2048" descent="0" />
<missing-glyph horiz-adv-x="548" />
<glyph horiz-adv-x="0" />
<glyph unicode="&#xd;" horiz-adv-x="735" />
<glyph horiz-adv-x="0" />
<glyph horiz-adv-x="0" />
<glyph unicode=" "  horiz-adv-x="548" />
<glyph unicode="&#x09;" horiz-adv-x="548" />
<glyph unicode="&#xa0;" horiz-adv-x="548" />
<glyph unicode="!" horiz-adv-x="657" d="M121 1657q-4 151 119 149h172q104 2 98 -149l-45 -1288q-10 -82 -86 -88h-117q-72 -2 -86 79zM133 -147q-2 -89 92 -89h205q109 -6 109 89l-17 182q-6 90 -82 90h-209q-72 2 -77 -74z" />
<glyph unicode="&#x22;" horiz-adv-x="788" d="M129 1737q-8 92 90 92h35q115 0 108 -92l-24 -279q-10 -92 -82 -92h-23q-68 0 -77 74zM426 1737q-8 92 90 92h35q117 0 108 -92l-24 -279q-10 -92 -82 -92h-21q-70 0 -79 74z" />
<glyph unicode="#" horiz-adv-x="2043" d="M111 428l34 111q31 90 121 90h219l103 329h-228q-104 0 -71 101l35 110q29 92 118 93h240l104 333q29 88 123 88h117q109 0 76 -98l-101 -323h295l105 333q29 88 123 88h116q109 0 76 -98l-102 -323h248q100 -4 73 -99l-34 -104q-35 -102 -125 -103h-256l-103 -327h266 q102 0 74 -99l-33 -102q-35 -104 -127 -104h-276l-100 -326q-31 -86 -136 -88h-110q-96 0 -70 98l99 316h-295l-103 -326q-31 -86 -135 -88h-111q-96 0 -69 98l98 320h-207q-102 0 -71 100zM803 629h297l100 327h-295z" />
<glyph unicode="$" horiz-adv-x="1257" d="M92 393q0 59 62 70l139 8q70 8 80 -43q2 -111 125 -147v360q-10 2 -19 2q-385 74 -383 387q0 395 402 449v69q0 74 75 76h76q86 2 84 -74v-71q408 -43 410 -435q0 -59 -62 -69l-137 -12q-68 -4 -78 47q-10 162 -133 211v-402l29 -6q397 -74 401 -362q0 -385 -430 -435 v-69q0 -70 -90 -72h-72q-74 2 -73 74v71q-403 51 -406 373zM367 1044q0 -90 131 -155v336q-131 -44 -131 -181zM733 281q137 39 137 174q-2 70 -137 123v-297z" />
<glyph unicode="%" horiz-adv-x="1835" d="M109 1020q2 389 352 391q350 0 346 -391q-2 -389 -348 -389q-348 4 -350 389zM313 -131l932 1479q43 68 127 67h121q121 0 61 -88l-921 -1479q-45 -84 -141 -84h-125q-117 0 -54 105zM336 1020q0 -160 123 -158q123 0 125 158q0 160 -123 160q-125 0 -125 -160zM1020 150 q4 389 352 391q352 0 346 -391q-2 -387 -348 -388q-346 2 -350 388zM1247 150q0 -160 123 -160t125 160q0 160 -123 159q-125 0 -125 -159z" />
<glyph unicode="&#x26;" horiz-adv-x="1617" d="M86 217q0 334 332 598q-61 98 -105.5 194.5t-59.5 186.5t0 172t75 154q72 86 171 126t203.5 35.5t198.5 -57.5t160 -153q51 -84 44 -172.5t-52 -179.5t-114 -178t-142 -169q113 -152 303 -330q86 109 141 218q35 76 107 28l90 -61q61 -41 28 -117q-86 -156 -145 -240 q80 -59 158 -108q51 -31 14 -90l-94 -135q-39 -61 -99 -15q-29 23 -69 53l-90 68q-49 -49 -109.5 -97t-122.5 -85q-137 -76 -280.5 -97.5t-259 18.5t-199.5 140.5t-84 292.5zM414 152q84 -131 210 -94.5t285 184.5q-180 168 -311 327q-131 -98 -181 -212.5t-3 -204.5z M533.5 1216.5q5.5 -38.5 27 -89t62.5 -115.5q45 43 79.5 79.5t59.5 67.5q49 68 52 116t-20.5 74.5t-62.5 37t-74 2.5q-70 -14 -100 -60q-16 -18 -22.5 -46t-1 -66.5z" />
<glyph unicode="'" horiz-adv-x="454" d="M109 1737q-6 92 92 92h32q117 0 109 -92l-25 -279q-10 -92 -79 -92h-23q-70 0 -80 74z" />
<glyph unicode="(" horiz-adv-x="868" d="M84 784q0 252 91 509t195.5 387t182.5 130h131q100 0 61 -45q-229 -252 -290.5 -517t-61.5 -464t61.5 -465t290.5 -516q39 -47 -61 -47h-131q-78 0 -182.5 130t-195.5 387t-91 511z" />
<glyph unicode=")" horiz-adv-x="868" d="M123 -197q229 250 290.5 516t61.5 465t-61.5 464t-290.5 517q-39 45 61 45h131q78 0 182.5 -130t195.5 -387t91 -509q0 -254 -91 -511t-195.5 -387t-182.5 -130h-131q-100 0 -61 47z" />
<glyph unicode="*" horiz-adv-x="1083" d="M94 748v100q0 74 66 74h147l-112 184q-37 63 30 100l80 39q59 31 96 -33l138 -227l137 227q37 63 96 33l82 -39q66 -37 29 -100l-113 -184h160q59 0 59 -70v-107q0 -68 -63 -67h-201l158 -256q37 -63 -29 -100l-82 -39q-59 -29 -96 34l-137 226l-138 -226 q-37 -63 -96 -34l-80 39q-68 37 -30 100l155 256h-194q-61 0 -62 70z" />
<glyph unicode="+" horiz-adv-x="1024" d="M66 748v100q0 74 65 74h260v262q0 61 70 61h100q74 0 74 -65v-258h266q57 0 57 -70v-107q0 -68 -63 -67h-260v-268q0 -57 -70 -58h-106q-68 0 -68 64v262h-264q-61 0 -61 70z" />
<glyph unicode="," horiz-adv-x="589" d="M86 -35q0 180 219 180q197 0 182 -270q-14 -219 -225 -334q-68 -37 -115 49q-16 29 34 78t67.5 84t-10.5 35q-152 6 -152 178z" />
<glyph unicode="-" d="M133 741v115q0 78 72 78h749q74 0 74 -72v-123q0 -74 -72 -73h-753q-70 0 -70 75z" />
<glyph unicode="." horiz-adv-x="591" d="M117 -47q4 100 38.5 140t139.5 44q106 -4 142 -41t40 -143q-4 -104 -44 -139t-138 -43q-102 8 -138 43.5t-40 138.5z" />
<glyph unicode="/" horiz-adv-x="1122" d="M98 -115l639 1852q25 70 111 69h117q104 0 75 -88l-624 -1855q-35 -98 -121 -99h-123q-119 0 -74 121z" />
<glyph unicode="0" horiz-adv-x="1533" d="M100 809q0 295 42 487.5t125 306t206 159.5t287 46q166 0 290 -51t205.5 -169t122.5 -309.5t41 -469.5q0 -305 -42 -507t-125 -321.5t-206.5 -169t-287.5 -49.5q-162 0 -285 51.5t-206 172t-125 321.5t-42 502zM401 801q0 -211 21.5 -354.5t65.5 -230.5t110 -124t152 -35 q88 0 154.5 37t111.5 124t68.5 229.5t23.5 353.5q0 215 -22.5 352t-66.5 215t-111.5 105.5t-155.5 25.5q-86 0 -151.5 -32.5t-110 -112.5t-67 -215t-22.5 -338z" />
<glyph unicode="1" horiz-adv-x="1011" d="M141 1413l195 344q31 51 96 51h176q76 0 76 -73v-1661h100q92 0 93 -90v-136q0 -86 -89 -86h-559q-78 0 -77 80v148q0 84 71 84h144v1251h-154q-121 0 -72 88z" />
<glyph unicode="2" horiz-adv-x="1437" d="M121 -29q0 201 433 500t435 655q-2 369 -284 365q-270 0 -271 -279q0 -70 -61 -77l-168 -9q-78 -10 -78 82q-10 600 586 598q596 2 596 -671q0 -459 -375 -737.5t-397 -336.5h708q86 0 86 -86v-133q0 -78 -82 -78h-1056q-72 0 -72 91v116z" />
<glyph unicode="3" horiz-adv-x="1437" d="M119 1221q-8 221 137 403t457 182q600 -2 606 -577q-12 -369 -227 -434q215 -80 233 -416q0 -610 -608 -615q-598 0 -596 588q0 82 80 82l174 -8q61 -8 61 -78q2 -301 277 -301q324 2 299 383q-29 226 -439 242q-66 2 -69 73v105q0 68 92 68q383 -16 393 221 q2 369 -284 364q-74 0 -126.5 -25.5t-84 -65.5t-46 -91t-14.5 -96q0 -70 -61 -78l-176 -8q-78 0 -78 82z" />
<glyph unicode="4" horiz-adv-x="1552" d="M92 127v102q0 115 31 205l407 1295q25 78 97 77h151q88 0 60 -90l-404 -1374h522v1251q0 90 84 90h146q86 0 86 -86v-1255h123q84 0 84 -80v-141q0 -80 -82 -80h-125v-184q0 -92 -90 -93h-140q-86 0 -86 89v188h-780q-84 0 -84 86z" />
<glyph unicode="5" horiz-adv-x="1439" d="M100 340q0 82 80 82h174q61 -6 62 -76q0 -287 295 -287q322 -2 299 398q-41 448 -719 276q-47 -16 -81 5.5t-34 88.5v889q0 90 72 90h954q100 0 101 -90v-129q0 -100 -86 -100h-709v-438q778 121 821 -603q25 -694 -608 -684q-621 0 -621 578z" />
<glyph unicode="6" horiz-adv-x="1519" d="M117 342v842q0 621 653 622q492 0 567 -372q10 -55 -39 -70l-149 -41q-96 -18 -107 43q-35 156 -260 156q-358 4 -366 -289v-193q131 98 344 101q645 0 639 -690q-2 -686 -641 -687q-635 2 -641 578zM430 383q4 -346 330 -342q322 0 330 403q0 412 -328 406 q-332 0 -332 -346v-121z" />
<glyph unicode="7" horiz-adv-x="1449" d="M82 1317v405q0 84 72 84h1056q154 -2 95 -186l-648 -1790q-31 -66 -112 -66h-156q-109 0 -72 80l596 1651h-514v-172q0 -94 -92 -94h-139q-86 0 -86 88z" />
<glyph unicode="8" horiz-adv-x="1474" d="M115 270q2 360 213 518q-193 209 -189 424q0 592 596 596q592 0 598 -596q0 -254 -184 -424q209 -144 209 -509q0 -514 -623 -515q-621 4 -620 506zM424 1253q0 -342 313 -342q311 0 314 342q-1 279 -316 281q-309 0 -311 -281zM426 319q0 -305 309 -299q313 0 314 299 q1 361 -312 359q-311 -4 -311 -359z" />
<glyph unicode="9" horiz-adv-x="1519" d="M121 1122q2 686 641 686q635 -2 643 -577v-825q0 -639 -655 -642q-492 0 -568 373q-10 55 39 70l152 41q94 18 104 -43q35 -156 260 -156q360 -4 367 318v165q-129 -98 -344 -100q-643 0 -639 690zM430 1128q0 -412 328 -405q332 0 332 346v121q-2 346 -330 342 q-322 0 -330 -404z" />
<glyph unicode=":" horiz-adv-x="565" d="M121 426q6 90 36.5 125t123.5 39q94 -4 125.5 -37t35.5 -127q-4 -94 -38.5 -125t-122.5 -39q-90 8 -122 40t-38 124zM121 1184q6 92 36.5 125.5t123.5 40.5q94 -6 125.5 -38t35.5 -128q-4 -92 -38.5 -123t-122.5 -39q-90 8 -122 40t-38 122z" />
<glyph unicode=";" horiz-adv-x="528" d="M92 463q0 147 178 147q164 0 152 -221q-10 -182 -184 -278q-57 -29 -97 41q-14 23 29 64.5t56.5 70t-11.5 28.5q-123 4 -123 148zM92 1184q4 92 35 125.5t125 40.5q92 -6 125 -38t37 -128q-4 -92 -39 -123t-123 -39q-92 8 -124 40t-36 122z" />
<glyph unicode="&#x3c;" horiz-adv-x="1028" d="M72 790.5q0 18.5 12 32.5l598 946q39 66 111 25l102 -59q61 -39 23 -105l-539 -842l534 -839q43 -76 -20 -117l-96 -55q-76 -45 -117 24l-596 951q-12 20 -12 38.5z" />
<glyph unicode="=" horiz-adv-x="1167" d="M135 508v90q0 78 72 78h749q74 0 74 -72v-98q0 -74 -72 -74h-753q-70 0 -70 76zM135 999v91q0 78 72 77h749q74 0 74 -71v-99q0 -74 -72 -73h-753q-70 0 -70 75z" />
<glyph unicode="&#x3e;" horiz-adv-x="1028" d="M111 1630q-39 66 22 105l105 59q70 41 110 -25l596 -946q12 -14 12 -32.5t-12 -38.5l-594 -951q-43 -70 -119 -24l-96 55q-63 41 -18 117l532 839z" />
<glyph unicode="?" horiz-adv-x="1335" d="M82 1251q-2 580 557 580q606 2 618 -686q0 -240 -218 -395.5t-218 -210.5v-199q0 -94 -86 -96h-174q-78 0 -82 80v251q0 115 226.5 269.5t226.5 300.5q0 365 -273 362q-270 0 -270 -252q0 -86 -78 -86h-157q-72 0 -72 82zM453 -147l20 198q6 76 78 74h209q76 0 82 -90 l16 -182q0 -94 -108 -89h-205q-94 0 -92 89z" />
<glyph unicode="@" horiz-adv-x="2052" d="M98 774q0 193 73 361t199 294.5t293.5 198.5t360.5 72t361.5 -72t293.5 -198.5t198 -294.5t73 -361q0 -217 -101 -422q-129 -231 -384 -215.5t-310 197.5q-90 -49 -201 -47q-334 16 -331 475q0 506 536 407q0 59 58 60h118q70 0 70 -51v-707q0 -92 77 -101.5t150 146.5 q51 121 51 258q0 135 -51 257t-139 211t-210 141.5t-259 52.5q-139 0 -259 -52.5t-209 -141.5t-140 -211t-51 -257q0 -152 47 -266.5t133 -210.5t213 -139q114 -43 241 -45q76 0 93 -60l34 -137q12 -41 -7 -56.5t-62 -15.5h-33q-193 0 -371 66.5t-302 196t-188.5 302.5 t-64.5 365zM858 766q2 -246 143 -240q92 0 152 56v376q-293 100 -295 -192z" />
<glyph unicode="A" horiz-adv-x="1327" d="M113 -162q10 223 38.5 461t76.5 478.5t116 482t154 473.5q31 69 94 69h2h135q63 0 96 -63q178 -489 273.5 -961.5t109.5 -939.5q-4 -74 -61 -74h-180q-86 0 -86 77v7q-4 104 -11.5 197.5t-15.5 187.5h-389q-18 -184 -25 -385q-4 -84 -94 -84h-176q-29 0 -42 21.5 t-15 52.5zM489 506h338q-27 225 -68.5 418.5t-101.5 359.5v-2l-2 2q-55 -162 -97 -360.5t-69 -417.5z" />
<glyph unicode="B" horiz-adv-x="1470" d="M117 -115v1792q0 127 129 127h456h3q575 0 575 -452q0 -348 -199 -410q287 -92 287 -545q0 -633 -489 -633h-631q-131 0 -131 121zM446 61h420q201 0 201 336q0 385 -334 385h-287v-721zM446 1065h263q268 0 268 215q0 242 -277 242h-254v-457z" />
<glyph unicode="C" horiz-adv-x="1490" d="M104 492v604q0 727 639 727q635 0 635 -625q0 -78 -78 -88l-151 -12h-12q-82 0 -86 78q-16 335 -297 335h-2q-313 0 -314 -440v-606q0 -403 281 -404q319 0 340 322q7 89 85 89q8 0 17 -1l139 -18q78 -6 78 -91q0 -612 -665 -612q-608 0 -609 742z" />
<glyph unicode="D" horiz-adv-x="1404" d="M111 -113v1790q0 127 127 127h297q739 0 739 -657v-723q0 -657 -711 -657h-321q-131 0 -131 120zM424 72h182q352 0 352 268v889q0 272 -352 272h-180z" />
<glyph unicode="E" horiz-adv-x="1341" d="M121 -113v1786q0 131 125 131h887q104 0 104 -90v-139q0 -86 -96 -86h-695v-498h596q94 0 95 -96v-111q0 -104 -107 -104h-584v-602h701q90 0 90 -86v-142q0 -81 -90 -81h-2h-926q-98 0 -98 118z" />
<glyph unicode="F" horiz-adv-x="1302" d="M106 -135v1829q0 110 119 110h2h875q104 0 104 -90v-131q0 -86 -98 -86h-680v-506h606q94 0 94 -96v-111q0 -104 -106 -104h-586v-830q0 -81 -88 -81h-2h-149q-90 0 -91 96z" />
<glyph unicode="G" horiz-adv-x="1531" d="M100 446v703q0 678 627 678q606 0 608 -582q0 -72 -71 -82l-152 -12q-8 -1 -15 -1q-29 0 -49 12q-26 16 -30 44q-10 307 -281 307q-311 0 -311 -387v-682q0 -378 291 -378h2q285 0 285 204v320h-154q-80 0 -80 88v121q0 86 82 86h487q78 0 78 -92v-121q0 -82 -82 -82h-20 v-289q0 -547 -625 -547q-590 0 -590 692z" />
<glyph unicode="H" horiz-adv-x="1542" d="M127 -137v1839q0 102 106 102h127q94 0 95 -90v-723h624v711q0 102 105 102h131q90 0 90 -90v-1864q0 -81 -90 -81h-2h-139q-94 0 -95 94v817h-624v-830q0 -81 -91 -81h-2h-151q-84 0 -84 94z" />
<glyph unicode="I" horiz-adv-x="864" d="M119 -18q0 79 78 79h2h63v1452h-76q-68 0 -67 78v135q0 78 80 78h465q76 0 75 -80v-133q0 -78 -82 -78h-71v-1452h78q76 0 75 -81v-136q0 -75 -80 -75h-2h-471q-68 0 -67 79v134z" />
<glyph unicode="J" horiz-adv-x="1257" d="M90 102q-4 13 -4 24q0 37 41 58l174 80q25 11 42 11q33 0 40 -39q23 -78 63.5 -126.5t100.5 -48.5q162 0 162 404v1048h-91q-70 0 -69 78v135q0 78 80 78h469q78 0 78 -80v-135q0 -76 -82 -76h-66v-1021q0 -743 -473 -744q-381 0 -465 354z" />
<glyph unicode="K" horiz-adv-x="1394" d="M115 -137v1849q0 92 92 92h143q92 0 92 -86v-641q66 -12 127 -30q170 98 248 239q92 172 152 440q10 78 98 78h139q90 0 90 -73v-9q-74 -575 -378 -856q367 -307 387 -1020q0 -82 -97 -82h-141q-94 0 -94 82h2q-68 825 -533 836v-832q0 -81 -90 -81h-2h-139q-96 0 -96 94 z" />
<glyph unicode="L" horiz-adv-x="1187" d="M96 -137v1845q0 96 101 96h139q92 0 92 -90v-1653h567q82 0 82 -84v-133q0 -75 -82 -75h-2h-800q-96 0 -97 94z" />
<glyph unicode="M" horiz-adv-x="1875" d="M121 -137v1851q0 90 104 90h158q78 0 111 -51l440 -938l440 940q27 49 99 49h167q104 0 105 -92v-1851q0 -92 -90 -92h-152q-90 0 -90 84h2l-4 1304l-311 -684q-40 -67 -105 -67h-2h-125q-35 0 -60.5 19t-41.5 52q-80 174 -158 340t-157 342v-1300q0 -90 -91 -90h-149 q-90 0 -90 94z" />
<glyph unicode="N" horiz-adv-x="1601" d="M123 -141v1843q0 102 106 102h146q78 0 117 -73l636 -1336v1315q0 94 99 94h137q94 0 94 -90v-1864q0 -83 -90 -83h-2h-188q-90 0 -129 79l-590 1194v-1181q0 -92 -94 -92h-148q-94 0 -94 92z" />
<glyph unicode="O" horiz-adv-x="1536" d="M102 797q1 1026 652 1026q665 0 665 -1023q0 -1052 -665 -1054q-651 2 -652 1051zM434 797q0 -731 320 -731q334 0 338 731h-2q0 708 -336 708q-319 0 -320 -708z" />
<glyph unicode="P" horiz-adv-x="1308" d="M88 -139v1841q0 102 107 102h415q600 0 600 -604q0 -618 -592 -618h-204v-729q0 -84 -92 -84h-144q-90 0 -90 92zM414 905h252q241 0 241 264q0 315 -256 316h-237v-580z" />
<glyph unicode="Q" horiz-adv-x="1591" d="M100 797q1 1026 652 1026q665 0 665 -1023q0 -402 -96 -644l102 -72q31 -24 31 -56q0 -27 -22 -59l-66 -88q-38 -52 -76 -52q-22 0 -45 17l-80 58q-156 -158 -413 -158q-651 0 -652 1051zM420 797q0 -731 332 -731q80 0 141 36l-102 76q-16 12 -25.5 26.5t-9.5 31.5 q0 27 24 63l74 96q30 40 64 40q24 0 49 -19l84 -62q23 84 36 194.5t13 248.5q0 708 -347 708h-1q-332 0 -332 -708z" />
<glyph unicode="R" horiz-adv-x="1396" d="M115 -139v1837q0 106 106 106h469q578 0 578 -604q0 -369 -260 -520q260 -154 260 -600v-223q0 -88 -99 -88h-135q-88 0 -88 88v215q0 502 -506 508v-727q0 -84 -88 -84h-143q-94 0 -94 92zM440 899h185q315 0 315 270q0 309 -209 310h-291v-580z" />
<glyph unicode="S" horiz-adv-x="1433" d="M106 332v7q0 68 80 75l152 12h9q35 0 57 -14q26 -16 28 -54q12 -295 281 -295q268 0 268 277q0 246 -430 342q-440 98 -438 543h-2q0 600 596 600q612 0 614 -582q0 -74 -70 -84l-153 -12q-7 -1 -14 -1q-74 0 -78 60q-12 311 -289 312q-271 0 -271 -301q0 -219 431 -320 q440 -109 440 -549q0 -596 -596 -596q-612 0 -615 580z" />
<glyph unicode="T" horiz-adv-x="1406" d="M68 1583v148q0 73 75 73h2h1108q76 0 76 -78v-143q0 -76 -78 -76h-385v-1654q0 -84 -92 -84h-147q-94 0 -95 90v1648h-389q-76 0 -75 76z" />
<glyph unicode="U" horiz-adv-x="1562" d="M117 553v1186q0 65 63 65h2h201q68 0 68 -63v-1188q0 -487 317 -487q332 0 332 487v1186q0 65 61 65h2h203q68 0 68 -67v-1184q0 -807 -666 -807q-651 0 -651 807z" />
<glyph unicode="V" horiz-adv-x="1572" d="M90 1726q-4 35 9.5 55.5t47.5 20.5h191q80 0 90 -84q104 -881 356 -1444v2l2 -2q123 283 210 641.5t139 802.5q10 84 92 84h186q64 0 64 -64v-12q-51 -455 -188.5 -938t-344.5 -954q-33 -70 -94 -70h-137q-63 0 -95 62q-211 477 -343 960.5t-185 939.5z" />
<glyph unicode="W" horiz-adv-x="2103" d="M109 1731q0 71 61 71h172q82 0 88 -84q18 -207 42 -406.5t53.5 -381.5t63.5 -341t70 -286l3 2v-2q82 369 137 720t88 695q10 84 92 84h129q82 0 98 -84q14 -158 39 -336t55.5 -361t66.5 -366.5t73 -351.5l2 2v-2q72 266 128 621.5t91 793.5q4 39 26.5 61.5t65.5 22.5h170 q29 0 44 -22.5t15 -53.5q-29 -461 -118.5 -936t-243.5 -952q-31 -69 -96 -69h-2h-156q-63 0 -94 61q-139 397 -223 1100q-47 -350 -104.5 -621.5t-123.5 -470.5q-31 -69 -96 -69h-2h-156q-63 0 -94 61q-364 1130 -364 1901zM1049 934q2 -2 2 4q0 -2 -2 -4z" />
<glyph unicode="X" horiz-adv-x="1679" d="M147 -145l500 927l-500 916q-17 35 -17 58q0 48 73 48h162q88 0 141 -86l330 -616l329 616q53 86 142 86h161q73 0 73 -48q0 -23 -17 -58l-500 -916l500 -927q16 -30 16 -49q0 -37 -59 -37h-170q-96 0 -144 90l-331 614q-82 -154 -166 -307.5t-166 -306.5 q-47 -90 -144 -90h-170q-59 0 -59 37q0 19 16 49z" />
<glyph unicode="Y" horiz-adv-x="1597" d="M115 1698q-17 35 -17 58q0 48 72 48h166q88 0 141 -86l316 -594l321 594q51 86 139 86h166q75 0 75 -47q0 -23 -19 -59l-523 -944v-897q0 -88 -86 -88h-155q-84 0 -84 90v905z" />
<glyph unicode="Z" horiz-adv-x="1425" d="M100 1585v139q0 78 80 78h1055q73 0 73 -46q0 -24 -20 -60v2l-713 -1632h658q78 0 78 -82v-140q0 -75 -76 -75h-2h-1055q-62 0 -62 36q0 20 19 50v-2l713 1654h-678q-70 0 -70 78z" />
<glyph unicode="[" horiz-adv-x="774" d="M121 -98v1796q0 86 86 86h358q86 0 86 -86v-96q0 -92 -86 -93h-172v-1423h172q86 0 86 -86v-96q0 -90 -82 -90h-364q-84 0 -84 88z" />
<glyph unicode="\" horiz-adv-x="1884" d="M96 924v71q0 74 74 74h37q-25 170 -37 340q-4 61 51 61h152q76 0 80 -71q14 -180 36 -330h261q33 168 61 330q12 72 84 71h76q72 0 82 -71q25 -162 57 -330h264q20 150 37 330q6 72 84 71h143q61 0 56 -61q-12 -170 -39 -340h53q78 0 78 -76v-75q0 -84 -74 -84h-102 q-78 -369 -224 -738q-25 -61 -79 -61h-127q-61 0 -80 53q-96 326 -148 746h-39q-61 -424 -147 -738q-20 -61 -84 -61h-123q-57 0 -82 53q-147 375 -225 746h-84q-72 0 -72 90zM526 834q39 -211 92 -353q7 -14 13 0q37 180 74 353h-179zM1159 834q37 -172 80 -353q8 -14 14 0 q47 141 86 353h-180z" />
<glyph unicode="]" horiz-adv-x="776" d="M121 0q0 86 86 86h172v1423h-174q-84 0 -84 97v92q0 86 86 86h356q88 0 88 -86v-1796q0 -90 -82 -90h-364q-84 0 -84 88v100z" />
<glyph unicode="^" horiz-adv-x="1124" d="M123 1251q-49 51 4 103l385 383q23 23 47 22q27 0 53 -22l387 -383q51 -51 2 -103l-71 -69q-51 -51 -101 -2l-268 262l-266 -262q-49 -49 -100 2z" />
<glyph unicode="_" horiz-adv-x="1419" d="M131 -10q0 68 62 67h1030q66 0 65 -69v-109q0 -66 -65 -65h-1035q-57 0 -57 61v115z" />
<glyph unicode="`" horiz-adv-x="604" d="M106 1737q-29 90 66 90h104q86 0 111 -80l113 -367q25 -86 -62 -88h-98q-94 0 -121 80z" />
<glyph unicode="a" horiz-adv-x="1441" d="M104 252q0 672 564 672q137 0 331 -50q-2 205 -268 205q-104 0 -194.5 -25.5t-161.5 -70.5q-31 -19 -59 -19h-2q-28 1 -50 27l-76 107q-16 21 -16 42q0 31 33 62q174 160 504 160q610 0 610 -545v-973q0 -75 -88 -75h-2h-144q-84 0 -84 84q-104 -41 -206.5 -61.5 t-194.5 -20.5q-496 0 -496 481zM408 260q0 -210 230 -210q16 0 34 1q176 25 329 107v413q-84 29 -152.5 40.5t-127.5 11.5q-313 0 -313 -363z" />
<glyph unicode="b" horiz-adv-x="1396" d="M98 -156v1882q0 74 74 74h166q78 0 78 -76v-475q184 49 315 49q559 0 559 -718q0 -811 -516 -811q-90 0 -176 17t-178 56q-6 -73 -84 -73h-2h-144q-92 0 -92 75zM418 143q115 -75 300 -75h5q260 0 260 520q0 401 -319 401q-53 0 -115 -9t-131 -32v-805z" />
<glyph unicode="c" horiz-adv-x="1376" d="M104 367v401q1 625 603 625q549 0 550 -531q2 -37 -19 -56.5t-58 -23.5l-136 -12q-33 0 -60.5 16.5t-29.5 49.5q-10 247 -237 247h-2q-293 0 -293 -340v-354v-10q0 -318 260 -318q266 0 279 250q2 63 70 63q9 0 20 -1l129 -17q77 -6 77 -84q0 -522 -581 -522 q-571 0 -572 617z" />
<glyph unicode="d" horiz-adv-x="1396" d="M98 514q0 803 570 803q66 0 143.5 -13.5t161.5 -35.5v456q0 76 71 76h170q76 0 76 -74v-1873q0 -84 -88 -84h-143q-82 0 -88 73q-181 -71 -352 -71h-5q-516 0 -516 743zM414 522q0 -454 252 -454q164 0 307 75v824q-141 57 -248 57q-309 0 -311 -502z" />
<glyph unicode="e" horiz-adv-x="1380" d="M104 367v362q1 627 603 627q548 0 548 -717v-29q0 -98 -104 -98h-731v-123q0 -328 262 -328q268 0 279 177q2 62 68 62q10 0 22 -1l135 -18q35 -6 53 -30t18 -52q-16 -215 -161.5 -332t-419.5 -117q-571 0 -572 617zM420 793h526q-4 266 -252 266q-264 0 -274 -266z" />
<glyph unicode="f" horiz-adv-x="843" d="M68 1069v141q0 74 67 74h96v117q0 297 287 379q76 18 164 18q57 0 57 -63v-146q0 -68 -51 -76h-3q-136 0 -136 -165v-64h149q70 0 70 -65v-156q0 -66 -70 -70h-149v-1134q0 -90 -94 -90h-138q-86 0 -86 84v1140h-88q-76 0 -75 76z" />
<glyph unicode="g" horiz-adv-x="1380" d="M669 1339h1q158 0 258 -65q10 65 74 65h2h184q70 0 69 -71v-1524q0 -516 -516 -516q-369 0 -524 129q-30 27 -30 53q0 23 26 45l145 129q22 18 46.5 18t52.5 -18q39 -23 107.5 -37t160.5 -14q203 0 203 211v158q-133 -139 -277 -140q-538 0 -538 825q0 752 556 752z M432 586q0 -504 236 -527q13 -1 26 -1q152 0 244 175v660q-41 76 -106.5 112.5t-137.5 38.5q-125 -16 -193.5 -129.5t-68.5 -328.5z" />
<glyph unicode="h" horiz-adv-x="1302" d="M113 -147v1861q0 84 82 84h170q80 0 79 -88v-467q55 45 126 68.5t161 23.5q455 0 455 -508v-979q0 -79 -76 -79h-2h-168q-78 0 -78 75v983q0 231 -178 232q-66 0 -126 -26.5t-114 -74.5v-1110q0 -79 -80 -79h-2h-167q-82 0 -82 84z" />
<glyph unicode="i" horiz-adv-x="571" d="M115 -139v1384q0 102 104 103h119q104 0 104 -105v-1380q0 -94 -104 -94h-125q-98 0 -98 92zM115 1546v137q0 100 104 101h113q111 0 110 -103v-133q0 -94 -114 -94h-115q-98 0 -98 92z" />
<glyph unicode="j" horiz-adv-x="1130" d="M92 -240q-4 13 -4 24q0 37 41 58l174 82q20 8 36 8q34 0 44 -41q33 -172 164 -172q147 0 147 400v1147q0 80 94 80h160q78 0 78 -82v-1117q0 -739 -471 -739q-387 0 -463 352zM696 1546v137q0 100 105 101h112q111 0 111 -103v-133q0 -94 -115 -94h-114q-98 0 -99 92z " />
<glyph unicode="k" horiz-adv-x="1298" d="M92 -145v1847q0 96 92 96h142q82 0 82 -94v-879q160 92 251 202t142 237q25 79 94 79h2h188q66 0 66 -48q0 -17 -8 -40q-70 -180 -174.5 -323.5t-266.5 -243.5q465 -242 506 -846q0 -80 -94 -80h-131q-94 0 -94 80q-39 500 -481 666v-662q0 -84 -91 -84h-131 q-94 0 -94 93z" />
<glyph unicode="l" horiz-adv-x="591" d="M127 -143v1847q0 94 94 94h139q94 0 95 -92v-1841q0 -96 -103 -96h-133q-92 0 -92 88z" />
<glyph unicode="m" horiz-adv-x="1691" d="M115 -143v1407q0 79 80 79h2h155q80 0 80 -77v-31q73 108 210 108h3q147 0 250 -106q113 106 295 106q379 0 379 -360v-1135q0 -79 -76 -79h-2h-170q-76 0 -76 75v1082q0 133 -117 133q-129 0 -129 -131v-1080q0 -79 -75 -79h-2h-144q-78 0 -78 75v1082q0 133 -129 133 q-139 0 -139 -152v-1059q0 -79 -76 -79h-2h-159q-80 0 -80 88z" />
<glyph unicode="n" horiz-adv-x="1341" d="M121 -152v1438q0 84 82 84h159q78 0 78 -78v-22q109 102 295 102q471 0 469 -508v-1016q0 -79 -76 -79h-2h-153q-76 0 -76 75v1020q0 231 -209 232q-143 0 -248 -111v-1137q0 -79 -73 -79h-2h-168q-76 0 -76 79z" />
<glyph unicode="o" horiz-adv-x="1531" d="M104 565q1 785 650 785q661 0 661 -783q0 -809 -661 -809q-649 0 -650 807zM418 565q0 -512 336 -512q350 0 350 512q0 490 -350 490q-336 0 -336 -490z" />
<glyph unicode="p" horiz-adv-x="1372" d="M86 -686v1937q0 88 92 88h139q78 0 91 -51q180 49 315 49q555 0 555 -716q0 -813 -516 -814q-174 0 -350 76v-567q0 -88 -86 -88h-164q-76 0 -76 86zM410 182q139 -76 303 -76q258 1 258 521q0 401 -322 401q-53 0 -112.5 -9t-126.5 -32v-805z" />
<glyph unicode="q" horiz-adv-x="1376" d="M86 621q0 716 559 716h2q70 0 150 -11t174 -38q16 51 82 51h133q92 0 92 -77v-1952q0 -80 -76 -80h-162q-74 0 -73 80v573q-188 -76 -365 -76q-516 0 -516 814zM393 627q4 -521 260 -521q164 0 312 76v805q-141 41 -244 41q-326 0 -328 -401z" />
<glyph unicode="r" horiz-adv-x="878" d="M96 -143v1400q0 86 80 86h164q80 0 80 -77v-43q39 47 111.5 76.5t179.5 37.5h9q61 0 60 -55v-192q0 -72 -63 -72q-104 -4 -182 -33t-115 -63v-1074q0 -79 -78 -79h-2h-166q-78 0 -78 88z" />
<glyph unicode="s" horiz-adv-x="1388" d="M113 162v10q0 59 69 68l156 14q8 1 16 1q72 0 76 -69q14 -159 257 -159h3q244 0 244 200q0 123 -404 203q-415 84 -415 424q0 514 569 514q586 0 588 -494q0 -76 -72 -81l-149 -13q-8 -1 -14 -1q-74 0 -81 59q-12 245 -266 245h-2q-264 0 -264 -209q0 -174 418 -247 q426 -74 426 -406q0 -483 -568 -483q-586 0 -587 424z" />
<glyph unicode="t" horiz-adv-x="860" d="M76 1122v146q0 78 76 78h75v139q0 84 97 84h127q96 0 96 -88v-135h158q72 0 71 -72v-158q0 -63 -65 -63h-164v-836q0 -166 140 -166h3q55 0 55 -78v-145q0 -59 -55 -59q-51 0 -91 4t-73 10q-299 82 -299 379v891h-84q-68 0 -67 69z" />
<glyph unicode="u" horiz-adv-x="1409" d="M117 430v844q0 72 65 72h180q70 0 70 -72v-844q0 -364 259 -364h1q270 0 271 364v846q0 70 63 70h188q68 0 68 -68v-848q0 -682 -590 -682q-575 0 -575 682z" />
<glyph unicode="v" horiz-adv-x="1531" d="M94 1266q-1 9 -1 18q0 60 51 59h1h170q90 0 101 -86q27 -168 62.5 -322.5t79.5 -289.5t95.5 -247.5t108.5 -194.5q2 -4 4 0q55 82 106.5 194.5t94.5 247.5t78.5 290t62.5 322q4 43 30.5 64.5t69.5 21.5h170q50 0 50 -59q0 -8 -1 -18q-49 -371 -179 -736.5t-324 -697.5 q-34 -65 -101 -65h-2h-121q-68 0 -100 57q-197 338 -327 704.5t-179 737.5z" />
<glyph unicode="w" horiz-adv-x="1904" d="M109 1266q-2 41 10 59t43 18h172q84 0 94 -88q31 -324 76 -579.5t102 -415.5v2q2 -4 4 0v-2q57 264 105.5 513t91.5 484q8 86 92 86h88q84 0 96 -86q37 -227 88.5 -487t112.5 -510v2q2 -4 4 0v-2q55 160 99.5 416t72.5 579q6 88 96 88h160q31 0 46.5 -22.5t17.5 -54.5 q-29 -354 -111 -715t-223 -717q-29 -67 -94 -67h-2h-140q-68 0 -88 59q-59 199 -102 431t-72 501q-80 -541 -180 -924q-23 -67 -88 -67h-2h-141q-66 0 -95 59q-141 365 -225 723t-108 717zM946 766q0 -6 2 -4z" />
<glyph unicode="x" horiz-adv-x="1437" d="M160 -137q92 170 189 346t190 346l-373 680q-15 32 -15 54q0 50 78 50h133q104 0 154 -96l199 -362l198 362q55 96 154 96h133q60 1 76 -27q6 -10 6 -24q0 -22 -18 -53l-373 -680q96 -174 190.5 -346t188.5 -346q15 -29 15 -49q0 -47 -81 -47h-135q-92 0 -137 77 l-217 392l-209 -379q-63 -90 -166 -90h-135q-63 0 -63 41q0 22 18 55z" />
<glyph unicode="y" horiz-adv-x="1390" d="M117 590v684q0 69 61 69h2h187q66 0 65 -69v-688q0 -524 240 -525q201 0 289 177l-3 -5v1037q0 73 66 73h2h164q74 0 74 -77v-1522q0 -516 -516 -516q-369 0 -525 129q-29 29 -29 55q0 23 23 43l145 117q24 18 49.5 18t51.5 -18q39 -23 106.5 -37t159.5 -14 q231 0 232 211v170q-139 -139 -306 -140q-539 0 -538 828z" />
<glyph unicode="z" horiz-adv-x="1433" d="M147 1145v94q0 100 93 100h956q60 1 76 -27q6 -10 6 -23q0 -23 -18 -54l-652 -1184h580q92 0 92 -94v-92q0 -98 -90 -98h-969q-78 0 -78 49q0 20 13 47l649 1192h-563q-94 0 -95 90z" />
<glyph unicode="{" horiz-adv-x="974" d="M92 790.5q0 18.5 12 32.5l248 394v481q0 86 86 86h359q86 0 86 -86v-92q0 -96 -84 -97h-174v-366l-226 -355l226 -356v-346h172q86 0 86 -86v-94q0 -92 -84 -92h-363q-84 0 -84 88v452l-248 398q-12 20 -12 38.5z" />
<glyph unicode="|" horiz-adv-x="530" d="M133 -158v1882q0 84 82 84h98q84 0 84 -79v-1887q0 -78 -84 -78h-98q-82 0 -82 78z" />
<glyph unicode="}" horiz-adv-x="974" d="M92 0q0 86 86 86h172v346l225 356l-225 355v366h-174q-84 0 -84 97v92q0 86 86 86h359q86 0 86 -86v-481l247 -394q12 -14 12.5 -32.5t-12.5 -38.5l-247 -398v-452q0 -88 -84 -88h-363q-84 0 -84 92v94z" />
<glyph unicode="~" horiz-adv-x="1486" d="M121 786q-37 84 33 146q123 154 323 158q150 0 294.5 -131.5t246.5 -133.5q106 0 184 109q76 70 123 -37l39 -98q37 -84 -31 -146q-123 -154 -325 -157q-131 0 -271.5 132t-269.5 132q-104 0 -184 -109q-76 -70 -123 37z" />
<glyph unicode="&#xa5;" horiz-adv-x="1339" d="M84 516v66q0 70 70 69h370v99l-14 24h-358q-68 0 -68 86v66q0 70 70 69h233l-217 394q-47 88 45 88h137q82 0 127 -76l191 -352l200 352q47 76 125 76h142q90 0 43 -88l-226 -394h226q72 0 71 -71v-72q0 -78 -67 -78h-355l-20 -35v-88h371q72 0 71 -71v-72q0 -78 -67 -78 h-375v-321q0 -72 -80 -72h-121q-84 0 -84 84v309h-372q-68 0 -68 86z" />
<glyph unicode="&#xa9;" horiz-adv-x="2054" d="M102 774q0 193 72 361t198 294.5t294 198.5t360 72q195 0 362.5 -72t292.5 -198.5t198 -294.5t73 -361t-73 -361.5t-198 -295.5t-292.5 -200t-362.5 -73q-193 0 -360.5 73t-293.5 200t-198 295.5t-72 361.5zM367 774q0 -137 52 -258t140 -210t209 -141t258 -52t259 52 t210 141t140.5 210t52.5 258q0 135 -52.5 257t-140.5 211t-210 141.5t-259 52.5t-258 -52.5t-209 -141.5t-140 -211t-52 -257zM631 698q2 -436 413 -436q289 8 361 215q20 51 -29 68l-102 35q-53 18 -72 -23q-41 -82 -149 -82q-213 0 -211 240v106q-2 240 211 240 q109 0 149 -82q18 -41 72 -23l102 35q49 16 29 68q-72 207 -361 215q-412 0 -413 -436v-140z" />
<glyph unicode="&#xad;" d="M133 741v115q0 78 72 78h749q74 0 74 -72v-123q0 -74 -72 -73h-753q-70 0 -70 75z" />
<glyph unicode="&#xb0;" horiz-adv-x="878" d="M102 1503q0 72 26 133.5t72 104.5t106 68.5t134 25.5q76 0 136.5 -25.5t104.5 -69.5t68.5 -103.5t24.5 -123.5q0 -72 -28.5 -131t-75.5 -101t-107.5 -65.5t-126.5 -23.5q-72 0 -134 24.5t-105 67.5t-69 99.5t-26 119.5zM287 1509q0 -70 43 -115.5t106 -45.5q66 0 110 47 t44 118q0 31 -9.5 58.5t-29 51.5t-49 38t-66.5 14q-35 0 -63.5 -14t-47 -38t-28.5 -53.5t-10 -60.5z" />
<glyph unicode="&#xb6;" horiz-adv-x="1234" d="M98 1106q0 82 27 150.5t85 118.5t149.5 81t218.5 31h479q78 0 78 -66v-1577q0 -53 -43 -53h-97q-41 0 -41 49v1483h-168v-1481q0 -51 -41 -51h-100q-47 0 -47 49v889h-76q-88 0 -164.5 24.5t-135 74t-91.5 119t-33 159.5z" />
<glyph unicode="&#xb7;" horiz-adv-x="585" d="M111 776q6 100 39.5 140t140.5 45q106 -4 141 -41.5t41 -143.5q-6 -104 -45 -139t-137 -43q-102 8 -138 44t-42 138z" />
<glyph unicode="&#xd7;" horiz-adv-x="1343" d="M145 467l355 354l-355 357q-51 49 0 102l72 70q49 49 100 -2l355 -355l354 355q51 51 100 2l72 -70q51 -53 0 -102l-356 -357l356 -354q51 -49 -6 -107l-62 -61q-53 -53 -102 -4l-356 356l-357 -356q-49 -49 -102 4l-61 61q-57 57 -7 107z" />
<glyph unicode="&#xf7;" horiz-adv-x="1357" d="M57 776q0 -76 70 -76h1100q72 0 71 74v98q0 72 -73 72h-1096q-72 0 -72 -80v-88zM487 381q4 100 39 140t142 44q104 -4 140 -41t40 -143q-4 -106 -43 -140t-137 -42q-104 8 -140 44t-41 138zM487 1288q4 100 39 139t142 46q104 -6 140 -43.5t40 -141.5q-4 -106 -43 -140 t-137 -42q-104 8 -140 43t-41 139z" />
<glyph unicode="&#x2000;" horiz-adv-x="917" />
<glyph unicode="&#x2001;" horiz-adv-x="1835" />
<glyph unicode="&#x2002;" horiz-adv-x="917" />
<glyph unicode="&#x2003;" horiz-adv-x="1835" />
<glyph unicode="&#x2004;" horiz-adv-x="611" />
<glyph unicode="&#x2005;" horiz-adv-x="458" />
<glyph unicode="&#x2006;" horiz-adv-x="305" />
<glyph unicode="&#x2007;" horiz-adv-x="305" />
<glyph unicode="&#x2008;" horiz-adv-x="229" />
<glyph unicode="&#x2009;" horiz-adv-x="367" />
<glyph unicode="&#x200a;" horiz-adv-x="101" />
<glyph unicode="&#x2010;" d="M133 741v115q0 78 72 78h749q74 0 74 -72v-123q0 -74 -72 -73h-753q-70 0 -70 75z" />
<glyph unicode="&#x2011;" d="M133 741v115q0 78 72 78h749q74 0 74 -72v-123q0 -74 -72 -73h-753q-70 0 -70 75z" />
<glyph unicode="&#x2012;" d="M133 741v115q0 78 72 78h749q74 0 74 -72v-123q0 -74 -72 -73h-753q-70 0 -70 75z" />
<glyph unicode="&#x2013;" horiz-adv-x="1292" d="M133 741v115q0 78 82 78h857q85 0 85 -72v-123q0 -74 -82 -73h-862q-80 0 -80 75z" />
<glyph unicode="&#x2014;" horiz-adv-x="1501" d="M129 776v88q0 80 72 80h1095q74 0 74 -72v-98q0 -74 -72 -74h-1101q-68 0 -68 76z" />
<glyph unicode="&#x2018;" horiz-adv-x="598" d="M98 1450q17 219 228 334q66 37 112 -49q16 -29 -28.5 -70t-61 -84t28.5 -43q111 2 123 -158q12 -201 -195 -200q-221 0 -207 270z" />
<glyph unicode="&#x2019;" horiz-adv-x="593" d="M94 1608q-12 201 195 200q221 0 207 -270q-17 -219 -228 -334q-66 -37 -112 49q-16 29 28.5 70t61 84t-28.5 43q-111 -2 -123 158z" />
<glyph unicode="&#x201c;" horiz-adv-x="1099" d="M119 1450q14 219 225 334q68 37 115 -49q16 -29 -29 -70t-61.5 -84t28.5 -43q111 2 123 -158q12 -201 -194 -200q-221 0 -207 270zM584 1450q14 219 225 334q68 37 113 -49q18 -29 -28 -70t-61.5 -84t27.5 -43q111 2 123 -158q12 -201 -192 -200q-221 0 -207 270z" />
<glyph unicode="&#x201d;" horiz-adv-x="1099" d="M117 1608q-12 201 194 200q221 0 205 -270q-14 -219 -225 -334q-66 -37 -113 49q-18 29 28 70t61.5 84t-27.5 43q-111 -2 -123 158zM582 1608q-12 201 192 200q221 0 207 -270q-14 -219 -225 -334q-68 -37 -113 49q-18 29 28 70t61.5 84t-27.5 43q-111 -2 -123 158z" />
<glyph unicode="&#x2026;" horiz-adv-x="1665" d="M127 776q4 100 39 140t139 45q106 -4 142 -41.5t40 -143.5q-4 -104 -44 -139t-138 -43q-102 8 -138 44t-40 138zM657 776q4 100 39 140t140 45q106 -4 142 -41.5t40 -143.5q-4 -104 -44 -139t-138 -43q-102 8 -138 44t-41 138zM1178 776q6 100 39.5 140t140.5 45 q104 -4 140 -41.5t42 -143.5q-6 -104 -45 -139t-137 -43q-104 8 -139 44t-41 138z" />
<glyph unicode="&#x202f;" horiz-adv-x="367" />
<glyph unicode="&#x205f;" horiz-adv-x="458" />
<glyph unicode="&#x25fc;" horiz-adv-x="1341" d="M0 0v1341h1341v-1341h-1341z" />
</font>
</defs>
</svg>
