<?xml version="1.0" encoding="utf-8"?>
<!-- Generator: Adobe Illustrator 23.0.2, SVG Export Plug-In . SVG Version: 6.00 Build 0)  -->
<svg version="1.1" id="Layer_1" xmlns="http://www.w3.org/2000/svg" xmlns:xlink="http://www.w3.org/1999/xlink" x="0px" y="0px"
	 viewBox="0 0 1607 1152" style="enable-background:new 0 0 1607 1152;" xml:space="preserve">
<style type="text/css">
	.st0{fill:#FFFFFF;}
	.st1{fill:#FFFFFF;stroke:#000000;stroke-miterlimit:10;}
</style>
<path class="st0" d="M1535.55,26.95l-80.13,9.29c0,0-327.1,73.16-464.52,226.45c0,0-204.77,208.26-181.29,341.94
	c0,0,36.13,12.39,69.68,4.13c0,0,264.52-43.35,376-358.19l-37.94,53.94c0,0-274.06,281.03-382.71,277.94
	c0,0,15.74-132.39,279.35-334.84c5.83-4.47,6.97-2.32,6.97-2.32s74.32-55.74,191.61-117.29c0,0,116.13-59.23,212.52-84.77
	c0,0,37.77,229.49-121.94,622.45c-9.81,24.13-48.77,39.48-109.16,38.32c0,0-190.45,8.13-260.13-24.39L407.94,537.92l-110.32-15.87
	c0,0-136.26,7.74-222.97,150.97c0,0-131.61,234.58,61.16,395.61c0,0,171.1,174.97,380.9,18.58l99.1-111.48L740.65,802.5l50.52,0.19
	l420.39,67.35l59.23,5.81c0,0,130.06,8.13,190.45-131.23c0,0,89.42-175.35,103.35-370.45
	C1564.58,374.18,1586.65,139.6,1535.55,26.95z M369.61,1063.21c-78.97,32.52-130.84,5.42-130.84,5.42
	c-77.42-14.71-93.68-121.55-93.68-121.55c-18.58-66.58-8.52-129.29-8.52-129.29c-1.55-43.35,32.52-115.35,32.52-115.35l432.77,58.06
	C508.97,1012.89,369.61,1063.21,369.61,1063.21z"/>
<g>
	<path class="st0" d="M702.99,999.89c-0.39,1.95-2.48,8.92-6.27,20.91c-1.8,5.65-3,10.4-3.6,14.25c-0.4,2.61-0.89,5.44-1.48,8.49
		c-2.58,12.82-3.92,21.58-4.01,26.31c-0.14,7.08,0.22,14.05,1.08,20.9c0.5,3.98-0.37,6.83-2.62,8.54s-4.48,2.55-6.7,2.51
		c-3.15-0.06-5.31-1.62-6.47-4.69c-1.17-3.06-1.68-7.99-1.55-14.77c0.14-7.08,1.49-16.86,4.07-29.32c0.91-4.71,1.43-7.54,1.56-8.49
		c0.15-1.71,0.42-3.46,0.8-5.26c0.33-1.75,0.59-3.51,0.8-5.26c0.44-4.67,1.61-10.75,3.5-18.25c1.39-5.65,2.42-10.63,3.09-14.94
		c0.47-3.01,0.97-5.03,1.52-6.08c0.54-1.04,1.92-2.17,4.13-3.39c2.21-1.21,3.87-1.81,4.98-1.79c2.45,0.05,4.27,1.1,5.45,3.16
		C702.48,994.79,703.05,997.18,702.99,999.89z"/>
	<path class="st0" d="M783.08,1043.35c-3.03-0.06-6.37,1.59-10.03,4.93c-3.65,3.35-9.27,10.9-16.84,22.67
		c-9.99,15.79-16.42,24.76-19.29,26.92c-2.87,2.16-5.24,3.22-7.1,3.18c-6.88-0.13-10.26-3.06-10.15-8.79
		c0.05-2.41,0.58-5.82,1.6-10.22c3.5-15.11,5.41-31.08,5.74-47.91c0.04-1.91,1.03-4.01,2.97-6.31c1.94-2.3,3.75-3.43,5.45-3.4
		c3.03,0.06,5.17,0.91,6.43,2.54c1.25,1.63,1.83,4.89,1.74,9.76c-0.1,5.07-2.05,15.49-5.85,31.25c-1.27,5.2-1.91,8.51-1.94,9.91
		c-0.02,0.8,0.21,1.21,0.68,1.22c0.88,0.02,5.04-5.91,12.5-17.77c7.52-12.07,14.07-20.53,19.65-25.4
		c5.58-4.87,11.66-7.24,18.25-7.11c5.25,0.1,9.48,2.24,12.69,6.43c3.21,4.18,5.47,11.74,6.78,22.67
		c1.39,12.44,2.72,20.19,3.97,23.26c1.25,3.07,3.31,4.63,6.17,4.68c1.81,0.04,4.09-0.47,6.85-1.53c0.47-0.19,0.82-0.29,1.06-0.28
		c2.51,0.05,3.74,1.33,3.69,3.84c-0.04,2.21-1.81,4.53-5.3,6.95c-3.49,2.42-7.65,3.58-12.49,3.49c-4.96-0.1-8.76-1.87-11.4-5.31
		c-2.65-3.44-4.61-12.54-5.9-27.29C791.62,1050.9,788.33,1043.45,783.08,1043.35z"/>
	<path class="st0" d="M858.5,1106.25c-0.43,1.25-1.56,2.28-3.38,3.1c-1.82,0.82-3.64,1.21-5.45,1.18c-5.95-0.12-8.85-3.92-8.7-11.4
		c0.07-3.57,1.63-13.64,4.7-30.21c1.89-10.17,2.88-17.89,2.99-23.16c0.02-0.9-1.18-2.11-3.61-3.61c-2.48-1.46-3.71-2.86-3.68-4.22
		c0.04-2.16,1.98-4.46,5.82-6.9c2.95-1.9,4.79-4.05,5.5-6.45c0.72-2.4,1.55-5.72,2.51-9.98c3.27-15.52,8.14-26.65,14.6-33.41
		c6.46-6.76,14.59-10.05,24.38-9.86c5.19,0.1,9.56,1.71,13.12,4.81c3.56,3.11,5.29,6.92,5.2,11.44c-0.07,3.67-1.16,7.81-3.26,12.41
		c-2.1,4.61-4.43,6.89-7,6.84c-1.92-0.04-2.87-0.88-2.84-2.54l0.75-7.3c0.19-9.7-2.87-14.6-9.16-14.73
		c-6.82-0.13-12.59,5.52-17.3,16.97c-4.71,11.44-7.14,20.78-7.28,28.01c-0.04,2.31,1.68,3.5,5.18,3.57
		c15.22,0.29,24.18,0.42,26.9,0.37c2.71-0.05,4.05,0.96,4.01,3.02c-0.04,2.06-1.54,3.6-4.51,4.62c-2.97,1.02-9.41,1.87-19.34,2.53
		c-8.47,0.59-13.26,1.13-14.38,1.61c-4.27,18.61-6.54,35.23-6.83,49.85c-0.08,4.37,0.08,7.62,0.51,9.73
		C858.33,1104.51,858.51,1105.75,858.5,1106.25z"/>
	<path class="st0" d="M924.92,1087.33c-0.07,3.82,0.45,8.13,1.59,12.92c0.21,0.91,0.32,1.67,0.31,2.27c-0.02,0.9-1,2.05-2.95,3.45
		c-1.95,1.39-4.01,2.07-6.16,2.03c-5.66-0.11-8.4-4.63-8.22-13.58c0.18-9.24,2.67-23.82,7.49-43.73c1.65-6.95,2.49-11.23,2.52-12.84
		c0.06-3.17,0.78-5.85,2.17-8.06c1.38-2.21,3.3-3.29,5.75-3.24c2.97,0.06,5.31,0.72,7,1.98c1.7,1.26,2.53,2.65,2.5,4.16
		c-0.03,1.51-0.47,3.48-1.34,5.93c-4.63,13.18-7.52,22.62-8.68,28.33C925.72,1072.64,925.07,1079.44,924.92,1087.33z M938,1003.38
		c-1.22-0.02-2.13-1.17-2.73-3.45c-0.22-0.71-0.53-1.49-0.92-2.35c-1.51-3.29-2.24-6.15-2.2-8.56c0.04-2.01,1.46-4.03,4.27-6.06
		c2.81-2.03,5.91-3.01,9.29-2.95c1.69,0.03,3.57,0.63,5.65,1.81c2.08,1.17,3.1,2.28,3.08,3.34c-0.03,1.66-0.8,4.46-2.3,8.4
		c-1.51,3.94-3.83,6.57-6.98,7.89S939.63,1003.41,938,1003.38z"/>
	<path class="st0" d="M1020.34,1047.94c-3.03-0.06-6.37,1.59-10.02,4.93c-3.65,3.35-9.27,10.9-16.84,22.67
		c-9.99,15.79-16.42,24.76-19.29,26.92c-2.87,2.16-5.24,3.22-7.1,3.18c-6.88-0.13-10.26-3.06-10.15-8.79
		c0.05-2.41,0.58-5.82,1.6-10.22c3.5-15.11,5.41-31.08,5.74-47.91c0.04-1.91,1.03-4.01,2.97-6.31c1.94-2.3,3.75-3.43,5.45-3.4
		c3.03,0.06,5.17,0.9,6.42,2.54c1.25,1.63,1.83,4.89,1.74,9.76c-0.1,5.07-2.05,15.49-5.85,31.25c-1.27,5.2-1.91,8.51-1.94,9.91
		c-0.02,0.8,0.21,1.21,0.68,1.22c0.88,0.02,5.04-5.91,12.5-17.78c7.52-12.07,14.07-20.53,19.65-25.4
		c5.58-4.87,11.66-7.24,18.25-7.11c5.25,0.1,9.48,2.25,12.69,6.43c3.21,4.18,5.47,11.74,6.78,22.67
		c1.39,12.44,2.71,20.19,3.97,23.26c1.25,3.07,3.31,4.62,6.17,4.68c1.81,0.04,4.09-0.47,6.85-1.53c0.47-0.19,0.82-0.29,1.05-0.28
		c2.51,0.05,3.74,1.33,3.69,3.84c-0.04,2.21-1.81,4.53-5.29,6.95c-3.49,2.42-7.65,3.58-12.49,3.49c-4.96-0.1-8.76-1.87-11.4-5.31
		c-2.65-3.44-4.61-12.54-5.9-27.29C1028.88,1055.49,1025.58,1048.04,1020.34,1047.94z"/>
	<path class="st0" d="M1095.45,1090.63c-0.07,3.82,0.46,8.13,1.59,12.92c0.21,0.91,0.32,1.67,0.31,2.27c-0.02,0.9-1,2.05-2.95,3.45
		c-1.95,1.4-4.01,2.07-6.16,2.03c-5.66-0.11-8.4-4.63-8.22-13.58c0.18-9.24,2.67-23.82,7.49-43.73c1.65-6.95,2.49-11.23,2.52-12.84
		c0.06-3.17,0.78-5.85,2.17-8.06c1.38-2.21,3.3-3.29,5.75-3.24c2.97,0.06,5.31,0.72,7,1.98c1.7,1.26,2.53,2.65,2.5,4.16
		s-0.48,3.48-1.34,5.93c-4.63,13.18-7.52,22.62-8.68,28.33S1095.6,1082.74,1095.45,1090.63z M1108.53,1006.67
		c-1.22-0.02-2.14-1.17-2.73-3.45c-0.22-0.71-0.53-1.49-0.92-2.35c-1.51-3.3-2.24-6.15-2.2-8.56c0.04-2.01,1.46-4.03,4.27-6.06
		c2.81-2.03,5.91-3.01,9.29-2.95c1.69,0.03,3.58,0.63,5.65,1.81c2.08,1.17,3.11,2.28,3.08,3.34c-0.03,1.66-0.8,4.46-2.31,8.4
		c-1.51,3.94-3.83,6.57-6.98,7.89C1112.55,1006.06,1110.16,1006.71,1108.53,1006.67z"/>
	<path class="st0" d="M1167.26,1032.69c6.01-0.29,11.68-0.65,16.99-1.1c5.26-0.4,9.63-0.57,13.13-0.5c4.43,0.09,7.22,0.49,8.38,1.22
		c1.15,0.73,1.71,1.97,1.68,3.73c-0.08,4.07-3.42,6.22-10.01,6.44c-8.46,0.29-16.26,0.77-23.39,1.43
		c-7.13,0.67-10.97,1.26-11.54,1.77c-0.56,0.52-2.44,6.46-5.64,17.83c-3.19,11.37-4.82,18.77-4.89,22.18
		c-0.11,5.53,0.67,9.22,2.32,11.09c1.65,1.87,4.17,2.83,7.55,2.9c5.01,0.1,12.04-3.01,21.09-9.32c3.49-2.6,6.17-3.88,8.04-3.84
		c2.5,0.05,3.74,1.23,3.69,3.54c-0.07,3.62-4.2,8.22-12.38,13.82c-8.19,5.59-16.51,8.31-24.96,8.15
		c-14.11-0.27-21.02-7.57-20.75-21.89c0.1-5.17,1.71-13.16,4.84-23.95c3.07-10.75,4.62-17.2,4.66-19.36
		c0.01-0.75-0.68-1.14-2.08-1.17l-9.11,0.5c-7.46-0.14-11.14-2.78-11.04-7.9c0.06-2.91,1.8-4.34,5.24-4.27l18.01,0.35
		c1.22,0.02,2.31-0.43,3.26-1.37c0.95-0.94,2.38-4.11,4.3-9.53c1.91-5.42,3.62-10.77,5.12-16.07c1.5-5.25,4.29-7.83,8.37-7.75
		c2.51,0.05,4.45,0.84,5.82,2.37c1.37,1.53,2.04,2.96,2.02,4.26c-0.01,0.7-1.13,4.27-3.36,10.71L1167.26,1032.69z"/>
	<path class="st0" d="M1279.29,1084.3c-10.88,7.83-20.43,13.49-28.63,16.97c-8.2,3.49-14.46,5.19-18.78,5.1
		c-5.77-0.11-10.15-2.27-13.13-6.47c-2.98-4.2-4.42-9.07-4.31-14.59c0.15-7.74,2.16-17.26,6.02-28.57
		c3.86-11.31,6.71-18.01,8.53-20.11c1.82-2.1,4.68-3.11,8.59-3.04c1.63,0.03,2.96,0.89,3.97,2.56c1.02,1.68,1.51,3.57,1.47,5.68
		c-0.02,1.26-0.73,2.88-2.11,4.86c-3.24,4.66-4.94,7.24-5.09,7.74c-0.16,0.5-1.34,3.51-3.54,9.02c-2.21,5.51-3.36,10.7-3.45,15.58
		c-0.03,1.71,0.4,4.38,1.29,8.01c0.89,3.64,2.85,5.48,5.88,5.54c3.21,0.06,7.17-0.7,11.9-2.3c4.72-1.59,10.07-4.24,16.03-7.94
		c5.96-3.7,9.99-6.72,12.07-9.04c2.09-2.32,3.58-4.98,4.49-7.98c0.9-3,1.63-9.52,2.17-19.56c0.54-10.04,3.47-15.01,8.78-14.91
		c3.15,0.06,5.17,0.82,6.08,2.27c0.9,1.45,1.32,4.18,1.24,8.2c-0.06,3.31-0.41,7.46-1.03,12.42c-0.76,6.27-1.26,10.73-1.48,13.39
		c-1.08,13.8-3.44,27.64-7.06,41.51c-3.62,13.88-8.73,25.44-15.32,34.68c-6.6,9.24-15.52,13.76-26.77,13.54
		c-11.43-0.22-21.54-2.99-30.33-8.31c-8.79-5.32-13.15-9.77-13.08-13.33c0.03-1.66,0.51-3.28,1.45-4.87c0.93-1.59,2.1-2.37,3.5-2.34
		c0.7,0.01,1.45,0.5,2.25,1.48c7.44,10.25,19.35,15.53,35.74,15.84c8.45,0.16,15.68-6.09,21.67-18.77
		c5.99-12.67,9.38-24.61,10.18-35.8C1278.62,1088.61,1278.9,1086.46,1279.29,1084.3z"/>
</g>
<path class="st1" d="M1734.5,898.5"/>
</svg>
