<?xml version="1.0" encoding="utf-8"?>
<!-- Generator: Adobe Illustrator 24.0.2, SVG Export Plug-In . SVG Version: 6.00 Build 0)  -->
<svg version="1.1" id="Layer_1" xmlns="http://www.w3.org/2000/svg" xmlns:xlink="http://www.w3.org/1999/xlink" x="0px" y="0px"
	 viewBox="0 0 212.43 212.43" style="enable-background:new 0 0 212.43 212.43;" xml:space="preserve">
<style type="text/css">
	.st0{fill:#FFFFFF;}
	.st1{display:none;}
	.st2{display:inline;fill:#FFFFFF;}
</style>
<rect x="-0.08" y="-0.2" class="st0" width="212.43" height="212.43"/>
<g class="st1">
	<path class="st2" d="M36.29,85.91c0.23-10.15,3.32-19.41,10.39-26.78c10.83-11.29,21.75-22.53,33.23-33.15
		c15.58-14.4,39.72-13.81,55.28,1.05c10.83,10.34,21.44,20.94,31.77,31.78c13.84,14.52,14.35,38.88,0.69,53.74
		c-10.92,11.87-22.37,23.31-34.29,34.18c-15.07,13.74-38.73,13.33-53.74-0.68c-11.31-10.56-22.15-21.63-32.87-32.79
		C39.53,105.75,36.43,96.34,36.29,85.91z M94.81,72.09c0.22-3.65,0.07-7.37,0.74-10.93c1.64-8.75,5.15-12.46,10.77-12.06
		c5.3,0.38,8.65,5.35,9.6,13.35c1.75,14.66-0.72,28.46-7.71,41.47c-1.4,2.61-2.58,5.45,1.07,7.21c3.54,1.7,5.48-0.69,6.41-3.53
		c3.04-9.29,6.38-18.53,8.53-28.04c2.2-9.71,1.49-19.54-2.91-28.78c-2.88-6.04-7.5-9.64-14.38-9.88
		c-9.72-0.34-14.96,3.58-18.05,13.04c-5.87,17.94-1.56,35.31,3.67,52.3c2.01,6.53,6.48,12.79,11.21,17.88
		c7.44,8.01,17.11,8.06,25.48,1.03c4.43-3.73,8.28-8.18,12.25-12.43c1.92-2.06,2.43-4.42-0.07-6.53c-2.36-1.99-4.28-0.88-6.05,1.01
		c-2.96,3.16-5.82,6.42-8.93,9.42c-7.41,7.17-13.31,6.78-19.56-1.51c-2.28-3.02-4.23-6.41-5.67-9.91
		C96.87,94.64,94.84,83.56,94.81,72.09z M89.96,118.97c-1.28,3.61-5.99,5.29-1.93,8.74c0.98,0.83,4.09,0.79,4.9-0.08
		C96.26,124.05,92.28,122.31,89.96,118.97z"/>
	<path class="st2" d="M70.55,196.9c-10.45-0.11-17.29-6.18-17.22-15.27c0.07-9.2,7.68-15.56,18.42-15.39
		c9.46,0.15,16.53,6.97,16.39,15.82C88.01,191.1,81,197.01,70.55,196.9z M80.3,183.19c-0.09-7.18-3.65-12.85-8.15-13.79
		c-4.53-0.94-8.01,2-10.72,9.06c-1.71,4.45-0.44,9.56,3.41,13.07c2.63,2.4,5.62,3.59,9.11,1.85
		C78.45,191.13,80.22,187.24,80.3,183.19z"/>
	<path class="st2" d="M185.31,170.27c-4.11,0-8.22,0.01-12.34,0c-3.5-0.01-5.22,1.67-5.14,5.22c0.08,3.45,2.29,3.98,5.09,3.94
		c4.05-0.06,8.1-0.02,12.15-0.02c0.02,0.76,0.05,1.52,0.07,2.28c-3.75,0-7.54,0.3-11.25-0.08c-4.63-0.47-6.09,1.33-6.16,5.83
		c-0.07,4.83,2.52,5.52,6.32,5.43c3.82-0.09,7.63-0.02,11.45-0.02c-0.01,0.72-0.02,1.44-0.03,2.15c-7.49,0-14.99,0.19-22.46-0.21
		c-1.05-0.06-2.7-2.93-2.79-4.58c-0.34-5.81-0.3-11.66,0-17.48c0.08-1.52,1.57-4.2,2.51-4.24c7.49-0.35,15.01-0.2,22.51-0.2
		C185.27,168.94,185.29,169.61,185.31,170.27z"/>
	<path class="st2" d="M110.82,194.74c-3.07,0-5.49,0-8.52,0c0-5.53-0.11-10.8,0.03-16.07c0.19-7.58-0.31-8.19-7.84-8.45
		c-0.74-0.03-1.48-0.22-2.18-1.49c8.89,0,17.78,0,28,0c-9.5,4.03-9.5,4.03-9.5,14.14C110.82,186.68,110.82,190.48,110.82,194.74z"/>
	<path class="st2" d="M142.16,194.78c-2.32,0-4.75,0-7.83,0c0-5.47-0.02-10.75,0-16.04c0.04-8.21,0.02-8.24-8.07-9.28
		c8.66-2.34,17.37-1.94,27.46-0.39c-1.59,0.74-1.92,1-2.28,1.04c-8.62,0.98-8.61,0.98-8.63,9.59c-0.01,4.66-0.06,9.32-0.12,13.98
		C142.69,193.98,142.42,194.26,142.16,194.78z"/>
	<path class="st2" d="M50.72,195.25c-6.98,0-13.98,0.16-20.94-0.19c-0.98-0.05-2.57-2.58-2.63-4.02
		c-0.28-6.46-0.27-12.95-0.07-19.41c0.18-5.89,4.32-3.18,7.76-3.38c0,6.08,0.03,11.85-0.01,17.62c-0.05,6.32,0.48,6.92,6.68,6.98
		c3.05,0.03,6.1,0,9.14,0C50.67,193.65,50.69,194.45,50.72,195.25z"/>
	<path class="st2" d="M88.03,127.71"/>
	<path class="st0" d="M92.94,127.63"/>
</g>
<g class="st1">
	<path class="st2" d="M14.71,127.18c-4.9,0-9.8,0-14.71,0c0-13.13,0-26.26,0-39.39c4.91,0,9.81,0,14.71,0
		c4.45,6.53,8.91,13.06,13.36,19.58c0.1-0.06,0.21-0.13,0.31-0.19c0-6.46,0-12.93,0-19.39c4.91,0,9.81,0,14.72,0
		c-0.03,0.35-0.08,0.69-0.08,1.04c0,12.44,0,24.88,0,37.32c0,0.35,0.05,0.69,0.08,1.04c-4.91,0-9.81,0-14.72,0
		c-4.47-6.53-8.93-13.07-13.4-19.6c-0.12,0.04-0.23,0.09-0.35,0.13c0,1.12,0,2.24,0,3.35C14.65,116.43,14.68,121.81,14.71,127.18z"
		/>
	<path class="st2" d="M172.44,87.78c6.92,0,13.85,0,20.77,0c1.33,0.2,2.67,0.37,3.99,0.6c6.71,1.14,12.45,4.61,12.03,13.63
		c-0.21,4.55-2.64,8.16-6.97,9.86c-0.47,0.18-0.93,0.37-1.42,0.57c0.13,0.27,0.17,0.4,0.25,0.5c3.59,4.46,7.18,8.93,10.79,13.38
		c0.12,0.15,0.34,0.23,0.52,0.34c0.16,0.81-0.45,0.52-0.79,0.52c-5.35,0.01-10.69,0.01-16.04,0.01c-0.1-0.27-0.15-0.58-0.31-0.81
		c-2.5-3.53-5.02-7.06-7.54-10.58c-0.16-0.22-0.39-0.38-0.83-0.8c0,4.26,0,8.22,0,12.18c-4.82,0-9.64,0-14.46,0
		c-0.02-6.19-0.04-12.39-0.04-18.58C172.4,101.66,172.42,94.72,172.44,87.78z M186.42,101.57
		C186.42,101.57,186.43,101.57,186.42,101.57c0.01,1-0.06,2.01,0.04,3c0.03,0.35,0.48,0.96,0.71,0.95c1.81-0.1,3.66-0.14,5.41-0.55
		c1.62-0.38,2.32-1.75,2.29-3.53c-0.04-1.7-0.89-2.99-2.52-3.4c-1.17-0.3-2.4-0.42-3.61-0.47c-2.32-0.1-2.32-0.06-2.32,2.3
		C186.42,100.44,186.42,101,186.42,101.57z"/>
	<path class="st2" d="M61.76,87.78c5.61,0,11.22,0,16.82,0c0.07,0.37,0.08,0.77,0.22,1.12c5,12.76,10.02,25.52,15.03,38.27
		c-5.43,0-10.87,0-16.3,0c-0.39-1.51-0.72-3.05-1.21-4.53c-0.11-0.34-0.74-0.71-1.14-0.72c-3.42-0.06-6.83-0.06-10.25,0.01
		c-0.41,0.01-1.03,0.46-1.17,0.84c-0.5,1.44-0.83,2.93-1.22,4.4c-5.43,0-10.87,0-16.3,0c0.14-0.32,0.29-0.63,0.42-0.96
		C51.71,113.41,56.74,100.6,61.76,87.78z M73.82,112.95c-1.21-4.5-2.35-8.78-3.5-13.05c-0.18,0.01-0.35,0.02-0.53,0.03
		c-1.14,4.29-2.28,8.58-3.46,13.01C68.9,112.95,71.2,112.95,73.82,112.95z"/>
	<path class="st2" d="M136.42,87.78c9.9,0,19.8,0,29.71,0c0.01,3.02,0,6.04,0.06,9.06c0.02,0.98-0.43,1.14-1.28,1.13
		c-3.55-0.03-7.1-0.01-10.64-0.01c-3.42,0-3.38,0-3.36,3.41c0.01,1.06,0.31,1.46,1.43,1.44c3.68-0.06,7.36-0.02,11.04-0.02
		c0.51,0,1.02,0.05,1.62,0.08c0,2.8-0.04,5.46,0.02,8.12c0.02,0.98-0.28,1.3-1.26,1.28c-3.2-0.05-6.4-0.02-9.59-0.02
		c-3.3,0-3.26,0-3.25,3.27c0,1.1,0.28,1.53,1.48,1.51c4.25-0.07,8.5-0.03,12.75-0.03c0.46,0,0.93,0.04,1.52,0.07
		c0,3.46,0,6.78,0,10.1c-10.08,0-20.15,0-30.23,0c0.03-0.35,0.08-0.69,0.08-1.04c0-12.44,0-24.88,0-37.32
		C136.5,88.48,136.45,88.13,136.42,87.78z"/>
	<path class="st2" d="M86.48,87.78c5.35,0,10.69,0,16.04,0c-0.01,0.17-0.07,0.36-0.02,0.51c2.28,7.5,4.56,15,6.85,22.5
		c0.09,0.28,0.33,0.51,0.64,0.99c0.24-0.69,0.4-1.09,0.52-1.5c1.66-5.41,3.32-10.82,4.96-16.25c0.63-2.08,1.18-4.17,1.77-6.26
		c5.35,0,10.69,0,16.04,0c-5.52,13.13-11.04,26.26-16.56,39.39c-4.64,0-9.29,0-13.93,0c-0.13-0.49-0.2-1.01-0.4-1.47
		C97.08,113.06,91.78,100.42,86.48,87.78z"/>
	<path class="st2" d="M69.79,99.93c0.18-0.01,0.35-0.02,0.53-0.03"/>
	<path class="st2" d="M73.82,112.95c-2.62,0-4.92,0-7.49,0"/>
</g>
<g class="st1">
	<path class="st2" d="M29.46,119.32c0-5.3,0-10.33,0-15.76c-0.28,0.72-0.48,1.13-0.6,1.55c-1.19,4.19-2.41,8.37-3.53,12.58
		c-0.31,1.18-0.79,1.67-2.1,1.66c-4.17-0.03-4.17,0.02-5.3-3.98c-1-3.53-2-7.06-3.02-10.58c-0.12-0.41-0.3-0.81-0.51-1.38
		c0,5.38,0,10.54,0,15.79c-2.34,0-4.66,0-7.08,0c0-8.52,0-16.93,0-25.61c3.14,0,6.28-0.04,9.4,0.06c0.34,0.01,0.79,0.88,0.94,1.42
		c1.23,4.18,2.39,8.38,3.58,12.57c0.15,0.52,0.34,1.03,0.87,1.56c0.2-0.63,0.43-1.25,0.61-1.88c1.17-4.14,2.36-8.27,3.48-12.42
		c0.27-1,0.72-1.39,1.78-1.36c2.46,0.08,4.93,0.05,7.4,0.01c0.94-0.02,1.34,0.28,1.33,1.28c-0.03,7.75,0,15.49-0.06,23.24
		c0,0.41-0.6,1.16-0.95,1.18C33.67,119.37,31.61,119.32,29.46,119.32z"/>
	<path class="st2" d="M143.28,105.59c3.55,2.05,4.53,3.95,4.08,7.49c-0.37,2.88-2.3,5.04-5.67,5.67c-2.51,0.47-5.12,0.49-7.69,0.57
		c-2.81,0.09-5.62-0.03-8.43,0.04c-1.23,0.03-1.73-0.31-1.72-1.63c0.05-7.51,0.02-15.03,0.02-22.54c0-0.83-0.06-1.63,1.19-1.6
		c4.93,0.12,9.86,0.17,14.78,0.3c0.79,0.02,1.59,0.26,2.34,0.51c4.66,1.52,5.86,6.6,2.39,10.11
		C144.21,104.85,143.79,105.15,143.28,105.59z M134.67,113.56c1.23-0.06,1.98-0.03,2.71-0.14c1.38-0.2,2.37-0.9,2.36-2.44
		c-0.01-1.45-0.94-2.2-2.26-2.32c-1.47-0.14-2.96-0.13-4.44-0.1c-0.29,0.01-0.8,0.39-0.81,0.61c-0.03,1.35-0.15,2.78,0.23,4.03
		C132.58,113.58,134.21,113.5,134.67,113.56z M132.25,103.86c1.67,0,3.16,0.13,4.61-0.04c1.27-0.15,2.01-1.06,1.93-2.4
		c-0.08-1.23-0.88-1.83-2.05-1.87c-1.46-0.05-2.93-0.01-4.49-0.01C132.25,101.03,132.25,102.38,132.25,103.86z"/>
	<path class="st2" d="M85.99,119.46c-0.24-0.89-0.42-1.54-0.65-2.43c-2.96,2.92-6.48,3.36-10.17,2.8
		c-5.57-0.84-9.42-5.02-9.92-10.94c-0.18-2.14-0.08-4.4,0.44-6.47c2.28-9.08,14.36-12.76,21.5-6.65c1.99,1.7,3.28,4.22,3.26,6.55
		c-2.32,0-4.66,0.04-6.99-0.05c-0.35-0.01-0.77-0.59-1-0.99c-0.95-1.6-2.39-2.28-4.17-2.23c-1.83,0.05-3.2,0.97-3.91,2.64
		c-1.3,3.02-1.42,6.14-0.25,9.21c0.81,2.12,2.71,3.13,5.12,2.97c1.97-0.13,3.41-1.21,3.96-3.1c-1.14-0.07-2.25-0.13-3.45-0.2
		c0-1.74,0-3.38,0-5.29c1.74,0,3.43-0.03,5.13,0.01c1.99,0.04,3.98,0.13,5.97,0.19c0.09,2.04,0.21,4.08,0.26,6.12
		c0.04,2.12-0.04,4.24,0.03,6.36c0.04,1.11-0.33,1.57-1.47,1.51C88.48,119.41,87.28,119.46,85.99,119.46z"/>
	<path class="st2" d="M163.36,120.01c-8.27-0.03-13.4-5.29-13.38-13.71c0.02-8.06,5.48-13.43,13.6-13.4
		c8.05,0.04,13.44,5.49,13.41,13.59C176.97,114.72,171.6,120.04,163.36,120.01z M158,106.56c0.48,1.67,0.72,3.48,1.51,5
		c1.66,3.2,6.33,3.23,8.01,0.05c1.76-3.33,1.72-6.83-0.01-10.21c-0.83-1.62-2.29-2.38-4.09-2.36c-1.87,0.02-3.4,0.86-4.09,2.61
		C158.73,103.16,158.46,104.81,158,106.56z"/>
	<path class="st2" d="M49.52,99.44c0,1.46,0,2.59,0,3.93c3.51,0,6.93,0,10.48,0c0,2.01,0,3.81,0,5.82c-3.45,0-6.86,0-10.43,0
		c0,1.48,0,2.76,0,4.28c4.26,0,8.52,0,12.89,0c0,1.99,0,3.75,0,5.68c-7.05,0-14.11,0-21.3,0c-0.03-0.59-0.08-1.15-0.08-1.71
		c-0.01-7.34,0.03-14.69-0.03-22.03c-0.01-1.4,0.36-1.88,1.82-1.86c5.79,0.08,11.59,0.07,17.38,0.01c1.3-0.01,1.81,0.28,1.81,1.7
		c-0.01,4.19,0.05,4.19-4.16,4.19C55.16,99.44,52.41,99.44,49.52,99.44z"/>
	<path class="st2" d="M89.1,139.98c0.88,0.86,1.93,1.89,2.86,2.79c-20.7,20.72-41.33,41.36-62.07,62.12
		c-0.86-0.96-1.84-2.05-2.69-3.01C47.72,181.36,68.35,160.73,89.1,139.98z"/>
	<path class="st2" d="M167.02,139.86c0.87,0.88,1.87,1.9,2.69,2.74c-20.7,20.7-41.37,41.37-62.13,62.13
		c-0.74-0.78-1.77-1.84-2.68-2.8C125.56,181.29,146.21,160.65,167.02,139.86z"/>
	<path class="st2" d="M143,8.11c0.9,0.96,1.9,2.03,2.75,2.94c-20.63,20.63-41.27,41.27-61.99,61.99c-0.85-0.94-1.83-2.03-2.7-2.99
		C101.63,49.48,122.27,28.84,143,8.11z"/>
	<path class="st2" d="M190.06,111.99c-1.33,2.3-2.48,4.21-3.54,6.18c-0.47,0.88-1.06,1.2-2.04,1.18c-2.5-0.06-5.01-0.02-7.93-0.02
		c1.27-1.87,2.31-3.42,3.36-4.96c1.61-2.37,3.18-4.78,4.87-7.09c0.69-0.95,0.69-1.62,0.03-2.58c-2.43-3.54-4.78-7.14-7.42-11.11
		c2.36,0,4.39,0.16,6.38-0.04c2.2-0.23,3.53,0.49,4.35,2.56c0.54,1.35,1.41,2.57,2.33,4.19c1.14-2.02,2.17-3.71,3.07-5.47
		c0.48-0.94,1.1-1.3,2.16-1.26c2.46,0.07,4.92,0.02,7.68,0.02c-0.36,0.62-0.57,1.05-0.84,1.44c-2.27,3.24-4.51,6.51-6.84,9.7
		c-0.7,0.95-0.66,1.62-0.02,2.58c2.59,3.84,5.11,7.74,7.88,11.97c-3.19,0-6.07,0.04-8.93-0.05c-0.34-0.01-0.74-0.65-0.99-1.07
		C192.48,116.24,191.39,114.3,190.06,111.99z"/>
	<path class="st2" d="M93.54,119.33c0.25-0.82,0.4-1.37,0.59-1.9c2.64-7.39,5.33-14.76,7.91-22.17c0.45-1.3,1.06-1.81,2.46-1.71
		c1.82,0.13,3.67-0.04,5.5,0.08c0.53,0.03,1.32,0.51,1.49,0.96c2.93,8.01,5.79,16.06,8.65,24.1c0.04,0.1,0,0.22,0,0.61
		c-2.47,0-4.96,0.07-7.43-0.07c-0.37-0.02-0.89-0.96-1-1.55c-0.28-1.37-0.93-1.91-2.36-1.81c-1.65,0.12-3.33,0.12-4.98,0
		c-1.41-0.1-2.19,0.37-2.34,1.79c-0.14,1.35-0.86,1.78-2.2,1.7C97.83,119.24,95.83,119.33,93.54,119.33z M107.1,101.79
		c-0.17,0.02-0.33,0.04-0.5,0.07c-0.81,2.87-1.62,5.75-2.48,8.76c1.98,0,3.65,0,5.57,0C108.79,107.55,107.95,104.67,107.1,101.79z"
		/>
	<path class="st2" d="M65.22,8.21c0.85,0.86,1.85,1.87,2.68,2.71C48.72,30.09,29.56,49.25,10.36,68.45
		c-0.75-0.8-1.74-1.87-2.58-2.76C26.78,46.67,45.94,27.5,65.22,8.21z"/>
	<path class="st2" d="M201.4,27.54c0.95,0.95,1.96,1.95,2.82,2.81c-14.21,14.21-28.37,28.38-42.62,42.62
		c-0.86-0.86-1.89-1.9-2.81-2.83C173,55.94,187.14,41.8,201.4,27.54z"/>
	<path class="st2" d="M185.63,204.85c-0.97-0.98-1.97-1.99-2.81-2.85c6.2-6.19,12.41-12.41,18.66-18.65
		c0.86,0.84,1.91,1.87,2.87,2.8C198.07,192.42,191.88,198.61,185.63,204.85z"/>
	<path class="st2" d="M10.29,146.28c-0.75-0.79-1.73-1.82-2.83-2.98c1.19-1,2.44-2.05,3.84-3.22c0.65,0.78,1.59,1.89,2.54,3.04
		C12.88,143.97,11.67,145.05,10.29,146.28z"/>
</g>
<g>
	<path d="M115.42,106.39c-1.38-2.66-2.56-4.96-3.75-7.26c-0.79-1.53-1.59-3.05-2.38-4.58c-2.59-5.05-1.06-10.43,3.62-12.82
		c4.63-2.36,9.87-0.51,12.43,4.43c6.1,11.73,12.18,23.47,18.26,35.2c0.32,0.61,0.66,1.22,1.14,2.11c0.47-0.84,0.79-1.37,1.07-1.92
		c5.94-11.74,11.87-23.49,17.8-35.24c1.81-3.58,4.73-5.46,8.74-5.25c6.59,0.35,10.48,7.09,7.56,13.08c-2.78,5.7-5.69,11.33-8.55,17
		c-5.98,11.85-12,23.69-17.94,35.57c-1.81,3.62-4.52,5.83-8.61,5.81c-4.02-0.02-6.68-2.21-8.47-5.76c-3.04-6.04-6.2-12.01-9.32-18
		c-0.27-0.52-0.57-1.02-1-1.78c-5.06,12.97-13.94,21.5-27.48,24.3c-13.55,2.8-25.14-1.34-35.16-11.53c-0.5,0.71-0.86,1.44-1.41,1.95
		c-11.08,10.17-23.94,13.23-38.04,8.14c-14.19-5.12-22.37-15.71-24.01-30.75c-2.34-21.47,14.55-40.26,35.9-40.37
		c5.43-0.03,9.51,3.74,9.58,8.86c0.08,5.17-3.83,9.07-9.24,9.22c-9.93,0.28-17.58,7.56-18.4,17.52
		c-0.74,9.05,5.88,17.52,15.15,19.38c9.3,1.87,18.95-4.09,21.34-13.22c0.22-0.83,0.17-1.76,0.13-2.64
		C53.35,96.58,69.59,78.9,90.35,78.71c5.54-0.05,9.65,3.69,9.76,8.89c0.11,5.15-3.88,9.03-9.47,9.19
		c-8.66,0.26-16.07,6.39-17.8,14.72c-1.77,8.55,2.51,17.11,10.39,20.77c7.8,3.62,17.11,1.38,22.43-5.41c0.5-0.64,0.91-1.34,1.62-2.4
		c-1.36,0-2.33,0.02-3.3,0c-2.43-0.05-4.89,0.14-7.27-0.22c-4.76-0.71-7.85-4.89-7.47-9.71c0.36-4.51,4.14-8.08,8.81-8.15
		c4.98-0.08,9.96-0.02,14.94-0.02C113.66,106.39,114.3,106.39,115.42,106.39z"/>
	<path d="M191.67,59.51c0.4,0.34,1.43,0.85,1.87,1.67c1.11,2.08,1.99,4.29,2.88,6.48c0.65,1.6,0.02,3.13-1.38,3.73
		c-1.43,0.62-2.95,0.06-3.68-1.51c-1-2.14-1.96-4.3-2.82-6.5C187.76,61.4,189.06,59.5,191.67,59.51z"/>
	<path d="M202.78,59.83c2.42,0.03,3.56,1.54,2.9,3.34c-0.85,2.32-1.87,4.59-2.98,6.81c-0.65,1.3-1.85,1.86-3.28,1.1
		c-1.32-0.7-1.83-1.81-1.22-3.26c0.89-2.12,1.72-4.28,2.79-6.31C201.41,60.7,202.4,60.18,202.78,59.83z"/>
	<path d="M212.56,72.36c-0.39,0.42-0.99,1.41-1.87,1.9c-1.54,0.85-3.24,1.44-4.9,2.06c-1.64,0.61-3.11,0-3.72-1.42
		c-0.61-1.45-0.04-2.95,1.53-3.66c1.72-0.78,3.47-1.53,5.25-2.14C210.77,68.45,212.59,69.81,212.56,72.36z"/>
	<path d="M184.41,68.77c2.59,1.16,4.9,2.05,7.05,3.24c1.09,0.6,1.26,2.07,0.46,2.97c-0.62,0.7-1.96,1.36-2.77,1.17
		c-1.93-0.45-3.76-1.38-5.59-2.21c-1.26-0.57-1.74-1.78-1.24-2.96C182.67,70.15,183.63,69.57,184.41,68.77z"/>
	<path d="M187.43,85.84c-0.53-0.43-1.58-0.9-1.9-1.67c-0.33-0.79-0.3-2.21,0.21-2.77c1.29-1.42,2.86-2.65,4.48-3.69
		c1.09-0.71,2.51-0.36,3.11,0.78c0.45,0.86,0.73,2.49,0.24,3.03c-1.38,1.56-3.18,2.76-4.84,4.06
		C188.53,85.74,188.17,85.7,187.43,85.84z"/>
	<path d="M199.86,85.02c0,0.59,0.03,1.19-0.01,1.78c-0.1,1.61-1.18,2.74-2.65,2.81c-1.52,0.07-2.78-1.08-2.89-2.76
		c-0.08-1.18-0.08-2.37,0-3.55c0.1-1.71,1.29-2.83,2.85-2.79c1.56,0.03,2.62,1.17,2.7,2.92C199.88,83.96,199.86,84.49,199.86,85.02z
		"/>
	<path d="M202.82,77.45c0.9,0.39,1.54,0.55,2.04,0.91c1.1,0.79,2.15,1.65,3.16,2.55c1.16,1.03,1.35,2.61,0.44,3.61
		c-1.03,1.13-2.32,1.19-3.51,0.38c-1.26-0.86-2.54-1.79-3.49-2.95c-0.53-0.64-0.74-1.9-0.51-2.72
		C201.15,78.51,202.17,78.03,202.82,77.45z"/>
</g>
</svg>
