<?xml version="1.0" encoding="utf-8"?>
<!-- Generator: Adobe Illustrator 24.0.2, SVG Export Plug-In . SVG Version: 6.00 Build 0)  -->
<svg version="1.1" id="Layer_1" xmlns="http://www.w3.org/2000/svg" xmlns:xlink="http://www.w3.org/1999/xlink" x="0px" y="0px"
	 viewBox="0 0 220 146" style="enable-background:new 0 0 220 146;" xml:space="preserve">
<style type="text/css">
	.st0{fill:#FFFFFF;}
</style>
<g>
	<path class="st0" d="M74.11,90.66c-11.35,10.96-13.84,11.55-20.89,13.4c-8.31,2.18-17.14-6.37-23.4-13.79
		C15.86,73.77,11.43,61.07,9.57,55.74c-0.59-1.68-0.69-3.1,0.2-4.65C20.62,32.07,40.83,8.91,56.62,8.84
		c19.75-0.09,41.14,35.35,47.67,46.38c0,0.01,0.01,0.01,0.01,0.02c1.03,1.81,25.62,44.31,57.64,44.16
		c32.02-0.15,56.2-42.89,57.21-44.71c1.11-1.99,1.1-4.41-0.03-6.38l0,0c-1.03-1.81-25.62-44.31-57.64-44.16
		c-7.19,0.03-14.3,2.81-21,8.2c-5.96,4.79-26.16,29.69-26.16,29.69l9.74,13.14c0,0,15.18-27.56,19.62-33.06
		c3.86-4.78,11.47-16.57,16.34-16.6c17.24-0.08,44.76,29.67,54.13,43.28c1.1,1.6,1.1,3.72-0.06,5.29
		c-9.15,12.43-34.17,36.97-51.34,37.05c-19.75,0.09-40.13-30.47-46.67-41.5c0-0.01-0.01-0.01-0.01-0.02
		C115.04,47.8,90.46,5.3,58.44,5.46C26.42,5.61,2.24,48.34,1.23,50.16c-1.11,1.99-1.1,4.41,0.03,6.38
		c1.03,1.81,19.51,49.81,51.53,49.65c9.25-0.04,18.25-3.01,27.41-10.72c9.38-7.9,30.87-25.11,30.87-25.11l-9.26-13.53L74.11,90.66z"
		/>
	<path class="st0" d="M113.64,64.8c-1.12,22.23-3.54,43.37-14.68,53.21l29.36,0C116.92,105.65,114.64,85.74,113.64,64.8z"/>
	<g>
		<path class="st0" d="M39.35,126.37c-0.03,0.21-0.22,0.99-0.56,2.32c-0.16,0.63-0.27,1.15-0.32,1.58c-0.03,0.29-0.07,0.6-0.12,0.94
			c-0.22,1.42-0.33,2.39-0.33,2.91c0,0.78,0.05,1.55,0.14,2.3c0.06,0.44-0.02,0.75-0.23,0.95s-0.42,0.29-0.63,0.29
			c-0.3,0-0.51-0.17-0.62-0.5s-0.17-0.88-0.17-1.62c0-0.78,0.11-1.86,0.33-3.24c0.08-0.52,0.12-0.83,0.13-0.94
			c0.01-0.19,0.03-0.38,0.07-0.58c0.03-0.19,0.05-0.39,0.07-0.58c0.03-0.51,0.13-1.19,0.3-2.02c0.12-0.63,0.21-1.18,0.27-1.65
			c0.04-0.33,0.08-0.56,0.13-0.67c0.05-0.12,0.18-0.24,0.39-0.38c0.21-0.14,0.36-0.21,0.47-0.21c0.23,0,0.41,0.11,0.52,0.34
			C39.29,125.81,39.35,126.07,39.35,126.37z"/>
		<path class="st0" d="M47.03,130.98c-0.29,0-0.6,0.19-0.94,0.56c-0.34,0.38-0.86,1.22-1.56,2.53c-0.92,1.76-1.51,2.76-1.78,3
			c-0.27,0.24-0.49,0.37-0.67,0.37c-0.65,0-0.98-0.32-0.98-0.95c0-0.27,0.04-0.64,0.13-1.13c0.3-1.67,0.46-3.43,0.46-5.29
			c0-0.21,0.09-0.44,0.27-0.7c0.18-0.26,0.35-0.39,0.51-0.39c0.29,0,0.49,0.09,0.61,0.27s0.18,0.53,0.18,1.07
			c0,0.56-0.17,1.71-0.5,3.45c-0.11,0.58-0.17,0.94-0.17,1.1c0,0.09,0.02,0.13,0.07,0.13c0.08,0,0.47-0.66,1.15-1.98
			c0.69-1.34,1.3-2.29,1.82-2.84s1.09-0.82,1.72-0.82c0.5,0,0.9,0.23,1.22,0.68c0.31,0.45,0.54,1.28,0.69,2.48
			c0.15,1.37,0.29,2.22,0.42,2.55c0.12,0.33,0.32,0.5,0.59,0.5c0.17,0,0.39-0.06,0.65-0.18c0.04-0.02,0.08-0.03,0.1-0.03
			c0.24,0,0.36,0.14,0.36,0.42c0,0.24-0.16,0.5-0.49,0.78c-0.33,0.27-0.72,0.41-1.18,0.41c-0.47,0-0.83-0.19-1.09-0.56
			c-0.26-0.37-0.46-1.37-0.61-2.99C47.85,131.8,47.53,130.98,47.03,130.98z"/>
		<path class="st0" d="M54.3,137.75c-0.04,0.14-0.14,0.25-0.32,0.35s-0.34,0.14-0.51,0.14c-0.56,0-0.85-0.41-0.85-1.24
			c0-0.39,0.13-1.5,0.39-3.34c0.16-1.12,0.24-1.98,0.24-2.56c0-0.1-0.12-0.23-0.35-0.39c-0.24-0.16-0.36-0.31-0.36-0.46
			c0-0.24,0.18-0.5,0.54-0.77c0.28-0.22,0.45-0.46,0.51-0.72c0.06-0.27,0.14-0.63,0.22-1.1c0.28-1.72,0.72-2.95,1.32-3.71
			c0.6-0.76,1.37-1.14,2.29-1.14c0.49,0,0.91,0.17,1.25,0.5s0.51,0.75,0.51,1.25c0,0.4-0.1,0.86-0.29,1.37
			c-0.19,0.51-0.41,0.77-0.65,0.77c-0.18,0-0.27-0.09-0.27-0.27l0.06-0.81c0-1.07-0.3-1.6-0.9-1.6c-0.65,0-1.18,0.64-1.61,1.91
			c-0.43,1.27-0.64,2.3-0.64,3.1c0,0.25,0.17,0.38,0.5,0.38c1.44,0,2.3-0.01,2.55-0.02c0.26-0.01,0.39,0.1,0.39,0.32
			c0,0.23-0.14,0.4-0.42,0.52c-0.28,0.12-0.89,0.23-1.83,0.32c-0.8,0.08-1.26,0.15-1.36,0.21c-0.37,2.06-0.56,3.89-0.56,5.5
			c0,0.48,0.02,0.84,0.07,1.07C54.28,137.56,54.3,137.69,54.3,137.75z"/>
		<path class="st0" d="M60.57,135.52c0,0.42,0.06,0.89,0.17,1.42c0.02,0.1,0.03,0.18,0.03,0.25c0,0.1-0.09,0.23-0.27,0.39
			c-0.18,0.16-0.38,0.24-0.58,0.24c-0.54,0-0.81-0.49-0.81-1.48c0-1.02,0.21-2.63,0.63-4.83c0.14-0.77,0.22-1.24,0.22-1.42
			c0-0.35,0.06-0.65,0.19-0.89s0.31-0.37,0.54-0.37c0.28,0,0.5,0.07,0.67,0.2c0.16,0.14,0.24,0.29,0.24,0.45s-0.04,0.38-0.12,0.66
			c-0.42,1.46-0.67,2.51-0.77,3.14S60.57,134.65,60.57,135.52z M61.65,126.25c-0.12,0-0.2-0.12-0.27-0.37
			c-0.02-0.08-0.05-0.16-0.09-0.26c-0.15-0.36-0.22-0.67-0.22-0.94c0-0.22,0.13-0.45,0.39-0.68c0.26-0.23,0.56-0.34,0.88-0.34
			c0.16,0,0.34,0.06,0.54,0.19c0.2,0.12,0.3,0.24,0.3,0.36c0,0.18-0.07,0.49-0.2,0.93c-0.14,0.44-0.35,0.73-0.65,0.88
			C62.03,126.18,61.81,126.25,61.65,126.25z"/>
		<path class="st0" d="M69.55,130.98c-0.29,0-0.6,0.19-0.94,0.56c-0.34,0.38-0.86,1.22-1.56,2.53c-0.92,1.76-1.51,2.76-1.78,3
			c-0.27,0.24-0.49,0.37-0.67,0.37c-0.65,0-0.98-0.32-0.98-0.95c0-0.27,0.04-0.64,0.13-1.13c0.3-1.67,0.46-3.43,0.46-5.29
			c0-0.21,0.09-0.44,0.27-0.7c0.18-0.26,0.35-0.39,0.51-0.39c0.29,0,0.49,0.09,0.61,0.27s0.18,0.53,0.18,1.07
			c0,0.56-0.17,1.71-0.5,3.45c-0.11,0.58-0.17,0.94-0.17,1.1c0,0.09,0.02,0.13,0.07,0.13c0.08,0,0.47-0.66,1.15-1.98
			c0.69-1.34,1.3-2.29,1.82-2.84s1.09-0.82,1.72-0.82c0.5,0,0.9,0.23,1.22,0.68c0.31,0.45,0.54,1.28,0.69,2.48
			c0.15,1.37,0.29,2.22,0.42,2.55c0.12,0.33,0.32,0.5,0.59,0.5c0.17,0,0.39-0.06,0.65-0.18c0.04-0.02,0.08-0.03,0.1-0.03
			c0.24,0,0.36,0.14,0.36,0.42c0,0.24-0.16,0.5-0.49,0.78c-0.33,0.27-0.72,0.41-1.18,0.41c-0.47,0-0.83-0.19-1.09-0.56
			c-0.26-0.37-0.46-1.37-0.61-2.99C70.37,131.8,70.05,130.98,69.55,130.98z"/>
		<path class="st0" d="M76.75,135.52c0,0.42,0.06,0.89,0.17,1.42c0.02,0.1,0.03,0.18,0.03,0.25c0,0.1-0.09,0.23-0.27,0.39
			c-0.18,0.16-0.38,0.24-0.58,0.24c-0.54,0-0.81-0.49-0.81-1.48c0-1.02,0.21-2.63,0.63-4.83c0.14-0.77,0.22-1.24,0.22-1.42
			c0-0.35,0.06-0.65,0.19-0.89s0.31-0.37,0.54-0.37c0.28,0,0.5,0.07,0.67,0.2c0.16,0.14,0.24,0.29,0.24,0.45s-0.04,0.38-0.12,0.66
			c-0.42,1.46-0.67,2.51-0.77,3.14S76.75,134.65,76.75,135.52z M77.84,126.25c-0.12,0-0.2-0.12-0.27-0.37
			c-0.02-0.08-0.05-0.16-0.09-0.26c-0.15-0.36-0.22-0.67-0.22-0.94c0-0.22,0.13-0.45,0.39-0.68c0.26-0.23,0.56-0.34,0.88-0.34
			c0.16,0,0.34,0.06,0.54,0.19c0.2,0.12,0.3,0.24,0.3,0.36c0,0.18-0.07,0.49-0.2,0.93c-0.14,0.44-0.35,0.73-0.65,0.88
			C78.22,126.18,78,126.25,77.84,126.25z"/>
		<path class="st0" d="M83.46,128.99c0.57-0.04,1.11-0.1,1.61-0.16c0.5-0.06,0.91-0.08,1.25-0.08c0.42,0,0.69,0.04,0.8,0.12
			s0.17,0.21,0.17,0.41c0,0.45-0.31,0.69-0.94,0.73c-0.8,0.05-1.54,0.12-2.22,0.21s-1.04,0.16-1.09,0.22
			c-0.05,0.06-0.22,0.72-0.5,1.98s-0.42,2.08-0.42,2.45c0,0.61,0.08,1.01,0.24,1.22s0.4,0.3,0.72,0.3c0.48,0,1.14-0.36,1.98-1.07
			c0.33-0.29,0.58-0.44,0.76-0.44c0.24,0,0.36,0.13,0.36,0.38c0,0.4-0.38,0.92-1.15,1.55c-0.77,0.63-1.55,0.95-2.35,0.95
			c-1.34,0-2.01-0.79-2.01-2.37c0-0.57,0.14-1.45,0.42-2.65c0.27-1.19,0.41-1.9,0.41-2.14c0-0.08-0.07-0.13-0.2-0.13l-0.86,0.08
			c-0.71,0-1.06-0.28-1.06-0.85c0-0.32,0.16-0.48,0.49-0.48h1.71c0.12,0,0.22-0.05,0.31-0.16c0.09-0.11,0.22-0.46,0.39-1.06
			s0.32-1.19,0.46-1.78c0.13-0.58,0.39-0.87,0.78-0.87c0.24,0,0.42,0.08,0.56,0.25s0.2,0.32,0.2,0.46c0,0.08-0.1,0.47-0.3,1.19
			L83.46,128.99z"/>
		<path class="st0" d="M94.18,134.44c-1.02,0.88-1.91,1.53-2.69,1.93c-0.77,0.4-1.36,0.6-1.77,0.6c-0.55,0-0.97-0.23-1.26-0.68
			c-0.29-0.46-0.44-0.99-0.44-1.6c0-0.85,0.17-1.9,0.52-3.16c0.35-1.25,0.6-2,0.77-2.23c0.17-0.24,0.44-0.35,0.81-0.35
			c0.15,0,0.28,0.09,0.38,0.27s0.15,0.39,0.15,0.62c0,0.14-0.06,0.32-0.19,0.54c-0.3,0.52-0.46,0.81-0.47,0.86
			c-0.01,0.06-0.12,0.39-0.32,1s-0.3,1.19-0.3,1.72c0,0.19,0.05,0.48,0.14,0.88c0.09,0.4,0.28,0.6,0.57,0.6
			c0.3,0,0.68-0.09,1.12-0.28c0.45-0.19,0.95-0.49,1.51-0.91c0.56-0.42,0.94-0.76,1.13-1.02s0.33-0.56,0.41-0.89
			c0.08-0.33,0.14-1.05,0.17-2.16c0.03-1.11,0.3-1.66,0.81-1.66c0.3,0,0.49,0.08,0.58,0.24c0.09,0.16,0.13,0.46,0.13,0.9
			c0,0.37-0.02,0.82-0.07,1.37c-0.06,0.69-0.1,1.18-0.12,1.48c-0.08,1.52-0.28,3.05-0.59,4.59c-0.32,1.54-0.78,2.82-1.39,3.85
			s-1.45,1.55-2.52,1.55c-1.08,0-2.05-0.28-2.89-0.85c-0.84-0.57-1.27-1.05-1.27-1.44c0-0.18,0.04-0.36,0.13-0.54
			c0.09-0.18,0.2-0.27,0.33-0.27c0.07,0,0.14,0.05,0.22,0.16c0.73,1.11,1.86,1.67,3.42,1.67c0.8,0,1.48-0.7,2.02-2.11
			c0.54-1.41,0.85-2.73,0.9-3.96C94.13,134.91,94.15,134.67,94.18,134.44z"/>
		<path class="st0" d="M106.23,127.51c-0.32-0.11-0.47-0.4-0.47-0.85c0-0.36,0.73-0.71,2.2-1.05c1.46-0.34,2.74-0.51,3.83-0.51
			c1.21,0,2.16,0.25,2.87,0.75c0.71,0.5,1.06,1.16,1.06,1.98c0,1.22-0.67,2.32-2.02,3.29c-1.35,0.97-3.16,1.68-5.45,2.13
			c-0.6,0.12-0.94,0.22-1.02,0.3c-0.07,0.08-0.13,0.57-0.17,1.48c-0.04,0.91-0.06,1.53-0.06,1.89c0,0.25-0.08,0.47-0.24,0.67
			c-0.16,0.2-0.34,0.3-0.55,0.3c-0.49,0-0.73-0.33-0.73-0.99c0-0.36,0.1-1.36,0.3-3l0.59-4.92c0.02-0.08,0.02-0.32,0.01-0.71
			C106.37,127.87,106.32,127.62,106.23,127.51z M107.96,127.04c-0.04,0.16-0.08,0.46-0.12,0.89c-0.08,0.77-0.17,1.62-0.29,2.55
			c-0.06,0.49-0.12,1.02-0.17,1.58c1.82-0.25,3.44-0.76,4.85-1.53c1.41-0.77,2.12-1.61,2.12-2.53c0-1.13-0.87-1.69-2.62-1.69
			C110.57,126.31,109.32,126.55,107.96,127.04z"/>
		<path class="st0" d="M118.91,137.78c-0.76,0-1.38-0.29-1.88-0.86c-0.49-0.58-0.74-1.29-0.74-2.13c0-1.43,0.48-2.83,1.44-4.22
			c0.96-1.39,2.11-2.08,3.45-2.08c0.88,0,1.6,0.34,2.15,1.02c0.55,0.68,0.83,1.49,0.83,2.43c0,1.44-0.57,2.77-1.71,4
			C121.32,137.17,120.14,137.78,118.91,137.78z M117.76,134.57c0,0.56,0.12,1.01,0.35,1.37c0.24,0.35,0.55,0.53,0.93,0.53
			c0.82,0,1.65-0.45,2.48-1.36c0.83-0.9,1.25-1.91,1.25-3.02c0-0.68-0.16-1.23-0.48-1.66c-0.32-0.42-0.75-0.64-1.28-0.64
			c-0.89,0-1.66,0.55-2.29,1.64C118.08,132.54,117.76,133.58,117.76,134.57z"/>
		<path class="st0" d="M130.28,135.47c0-0.36-0.44-0.77-1.33-1.23c-1.12-0.58-1.88-1.04-2.28-1.38s-0.59-0.73-0.59-1.16
			c0-1.1,0.55-2.01,1.66-2.74c1.1-0.73,2-1.09,2.7-1.09c0.45,0,0.77,0.08,0.97,0.23c0.2,0.16,0.3,0.42,0.3,0.8
			c0,0.17-0.07,0.32-0.22,0.44c-0.15,0.12-0.26,0.18-0.34,0.18c-0.06,0-0.18-0.04-0.36-0.13c-0.18-0.08-0.29-0.12-0.35-0.12
			c-0.28,0-0.84,0.2-1.68,0.61s-1.27,0.86-1.27,1.37c0,0.31,0.15,0.59,0.45,0.84s0.84,0.56,1.61,0.93c0.63,0.3,1.13,0.62,1.5,0.96
			c0.37,0.34,0.56,0.74,0.56,1.2c0,0.85-0.58,1.51-1.75,1.99c-1.17,0.48-2.28,0.72-3.35,0.72c-0.9,0-1.34-0.3-1.34-0.91
			c0-0.21,0.1-0.37,0.3-0.46c0.2-0.1,0.41-0.15,0.61-0.15c0.08,0,0.24,0.03,0.47,0.08c0.23,0.06,0.38,0.08,0.45,0.08
			c0.61,0,1.27-0.1,1.98-0.31C129.68,136.02,130.11,135.77,130.28,135.47z"/>
		<path class="st0" d="M137.49,135.47c0-0.36-0.44-0.77-1.33-1.23c-1.12-0.58-1.88-1.04-2.28-1.38c-0.4-0.35-0.59-0.73-0.59-1.16
			c0-1.1,0.55-2.01,1.66-2.74c1.1-0.73,2-1.09,2.7-1.09c0.45,0,0.77,0.08,0.98,0.23s0.3,0.42,0.3,0.8c0,0.17-0.07,0.32-0.22,0.44
			s-0.26,0.18-0.34,0.18c-0.06,0-0.18-0.04-0.36-0.13c-0.18-0.08-0.29-0.12-0.35-0.12c-0.28,0-0.84,0.2-1.69,0.61
			s-1.27,0.86-1.27,1.37c0,0.31,0.15,0.59,0.45,0.84s0.83,0.56,1.61,0.93c0.63,0.3,1.13,0.62,1.5,0.96c0.37,0.34,0.56,0.74,0.56,1.2
			c0,0.85-0.58,1.51-1.75,1.99c-1.17,0.48-2.28,0.72-3.34,0.72c-0.9,0-1.34-0.3-1.34-0.91c0-0.21,0.1-0.37,0.3-0.46
			s0.41-0.15,0.61-0.15c0.08,0,0.24,0.03,0.47,0.08c0.23,0.06,0.38,0.08,0.45,0.08c0.61,0,1.27-0.1,1.98-0.31
			C136.89,136.02,137.32,135.77,137.49,135.47z"/>
		<path class="st0" d="M142.11,135.52c0,0.42,0.06,0.89,0.17,1.42c0.02,0.1,0.03,0.18,0.03,0.25c0,0.1-0.09,0.23-0.27,0.39
			c-0.18,0.16-0.38,0.24-0.58,0.24c-0.54,0-0.8-0.49-0.8-1.48c0-1.02,0.21-2.63,0.63-4.83c0.14-0.77,0.22-1.24,0.22-1.42
			c0-0.35,0.06-0.65,0.19-0.89c0.13-0.25,0.31-0.37,0.54-0.37c0.28,0,0.5,0.07,0.67,0.2s0.25,0.29,0.25,0.45s-0.04,0.38-0.12,0.66
			c-0.42,1.46-0.67,2.51-0.77,3.14S142.11,134.65,142.11,135.52z M143.2,126.25c-0.12,0-0.21-0.12-0.27-0.37
			c-0.02-0.08-0.05-0.16-0.09-0.26c-0.15-0.36-0.22-0.67-0.22-0.94c0-0.22,0.13-0.45,0.39-0.68c0.26-0.23,0.56-0.34,0.88-0.34
			c0.16,0,0.34,0.06,0.54,0.19c0.2,0.12,0.3,0.24,0.3,0.36c0,0.18-0.07,0.49-0.2,0.93c-0.13,0.44-0.35,0.73-0.65,0.88
			C143.58,126.18,143.36,126.25,143.2,126.25z"/>
		<path class="st0" d="M146.96,132.64c0.71-1.29,1.56-2.33,2.54-3.13c0.99-0.8,1.87-1.2,2.67-1.2c0.44,0,0.81,0.2,1.11,0.61
			c0.3,0.4,0.46,0.9,0.46,1.48c0,1.72-0.65,3.34-1.95,4.84s-2.67,2.26-4.11,2.26c-0.39,0-0.75-0.11-1.08-0.32s-0.51-0.48-0.55-0.8
			c-0.02-0.26-0.1-0.45-0.22-0.58c-0.24-0.24-0.36-0.49-0.36-0.76c0-0.5,0.14-1.58,0.42-3.23l0.85-4.96
			c0.29-1.67,0.51-2.7,0.64-3.09s0.29-0.66,0.45-0.79s0.37-0.2,0.61-0.2c0.39,0,0.58,0.33,0.58,1c0,0.64-0.21,1.53-0.64,2.67
			C147.97,127.54,147.5,129.61,146.96,132.64z M146.76,135.41c0.29,0.54,0.64,0.8,1.05,0.8c0.63,0,1.3-0.26,2-0.78
			c0.7-0.52,1.31-1.26,1.82-2.21c0.51-0.95,0.77-1.75,0.77-2.4c0-0.29-0.05-0.55-0.16-0.76c-0.1-0.21-0.24-0.32-0.4-0.32
			c-0.77,0-1.71,0.63-2.82,1.89C147.91,132.89,147.16,134.15,146.76,135.41z"/>
		<path class="st0" d="M156.92,135.52c0,0.42,0.06,0.89,0.17,1.42c0.02,0.1,0.03,0.18,0.03,0.25c0,0.1-0.09,0.23-0.27,0.39
			c-0.18,0.16-0.38,0.24-0.58,0.24c-0.54,0-0.8-0.49-0.8-1.48c0-1.02,0.21-2.63,0.63-4.83c0.14-0.77,0.22-1.24,0.22-1.42
			c0-0.35,0.06-0.65,0.19-0.89c0.13-0.25,0.31-0.37,0.54-0.37c0.28,0,0.5,0.07,0.67,0.2s0.25,0.29,0.25,0.45s-0.04,0.38-0.12,0.66
			c-0.42,1.46-0.67,2.51-0.77,3.14S156.92,134.65,156.92,135.52z M158.01,126.25c-0.12,0-0.21-0.12-0.27-0.37
			c-0.02-0.08-0.05-0.16-0.09-0.26c-0.15-0.36-0.22-0.67-0.22-0.94c0-0.22,0.13-0.45,0.39-0.68c0.26-0.23,0.56-0.34,0.88-0.34
			c0.16,0,0.34,0.06,0.54,0.19c0.2,0.12,0.3,0.24,0.3,0.36c0,0.18-0.07,0.49-0.2,0.93c-0.13,0.44-0.35,0.73-0.65,0.88
			C158.39,126.18,158.16,126.25,158.01,126.25z"/>
		<path class="st0" d="M163.16,123.31c0.4,0,0.6,0.25,0.6,0.76c0,0.45-0.24,1.53-0.72,3.24c-0.3,1.07-0.54,2.26-0.71,3.55
			s-0.25,2.31-0.25,3.05c0,0.91,0.06,1.82,0.17,2.72c0.02,0.17,0.03,0.3,0.03,0.37c0,0.28-0.09,0.52-0.28,0.71
			c-0.19,0.2-0.39,0.3-0.6,0.3c-0.29,0-0.5-0.18-0.61-0.55c-0.11-0.37-0.17-0.95-0.17-1.77c0-1.85,0.22-4.15,0.67-6.89
			c0.45-2.74,0.8-4.34,1.06-4.81C162.62,123.55,162.88,123.31,163.16,123.31z"/>
		<path class="st0" d="M166.7,135.52c0,0.42,0.06,0.89,0.17,1.42c0.02,0.1,0.03,0.18,0.03,0.25c0,0.1-0.09,0.23-0.27,0.39
			c-0.18,0.16-0.38,0.24-0.58,0.24c-0.54,0-0.8-0.49-0.8-1.48c0-1.02,0.21-2.63,0.63-4.83c0.14-0.77,0.22-1.24,0.22-1.42
			c0-0.35,0.06-0.65,0.19-0.89c0.13-0.25,0.31-0.37,0.54-0.37c0.28,0,0.5,0.07,0.67,0.2s0.25,0.29,0.25,0.45s-0.04,0.38-0.12,0.66
			c-0.42,1.46-0.67,2.51-0.77,3.14S166.7,134.65,166.7,135.52z M167.79,126.25c-0.12,0-0.21-0.12-0.27-0.37
			c-0.02-0.08-0.05-0.16-0.09-0.26c-0.15-0.36-0.22-0.67-0.22-0.94c0-0.22,0.13-0.45,0.39-0.68c0.26-0.23,0.56-0.34,0.88-0.34
			c0.16,0,0.34,0.06,0.54,0.19c0.2,0.12,0.3,0.24,0.3,0.36c0,0.18-0.07,0.49-0.2,0.93c-0.13,0.44-0.35,0.73-0.65,0.88
			C168.17,126.18,167.94,126.25,167.79,126.25z"/>
		<path class="st0" d="M173.41,128.99c0.57-0.04,1.11-0.1,1.61-0.16c0.5-0.06,0.91-0.08,1.25-0.08c0.42,0,0.69,0.04,0.8,0.12
			c0.11,0.08,0.17,0.21,0.17,0.41c0,0.45-0.31,0.69-0.94,0.73c-0.8,0.05-1.54,0.12-2.22,0.21c-0.67,0.09-1.04,0.16-1.09,0.22
			c-0.05,0.06-0.22,0.72-0.5,1.98s-0.42,2.08-0.42,2.45c0,0.61,0.08,1.01,0.24,1.22c0.16,0.2,0.4,0.3,0.72,0.3
			c0.48,0,1.14-0.36,1.98-1.07c0.33-0.29,0.58-0.44,0.76-0.44c0.24,0,0.36,0.13,0.36,0.38c0,0.4-0.38,0.92-1.15,1.55
			s-1.55,0.95-2.35,0.95c-1.34,0-2.01-0.79-2.01-2.37c0-0.57,0.14-1.45,0.42-2.65c0.27-1.19,0.41-1.9,0.41-2.14
			c0-0.08-0.07-0.13-0.2-0.13l-0.86,0.08c-0.71,0-1.06-0.28-1.06-0.85c0-0.32,0.16-0.48,0.49-0.48h1.71c0.12,0,0.22-0.05,0.31-0.16
			c0.09-0.11,0.22-0.46,0.39-1.06c0.17-0.6,0.32-1.19,0.46-1.78c0.13-0.58,0.39-0.87,0.78-0.87c0.24,0,0.42,0.08,0.56,0.25
			s0.2,0.32,0.2,0.46c0,0.08-0.1,0.47-0.3,1.19L173.41,128.99z"/>
		<path class="st0" d="M184.13,134.44c-1.02,0.88-1.91,1.53-2.69,1.93c-0.77,0.4-1.36,0.6-1.77,0.6c-0.55,0-0.97-0.23-1.26-0.68
			c-0.29-0.46-0.44-0.99-0.44-1.6c0-0.85,0.17-1.9,0.52-3.16c0.35-1.25,0.6-2,0.77-2.23c0.17-0.24,0.44-0.35,0.81-0.35
			c0.16,0,0.28,0.09,0.38,0.27s0.15,0.39,0.15,0.62c0,0.14-0.06,0.32-0.19,0.54c-0.3,0.52-0.46,0.81-0.47,0.86
			c-0.01,0.06-0.12,0.39-0.32,1s-0.3,1.19-0.3,1.72c0,0.19,0.05,0.48,0.14,0.88c0.09,0.4,0.28,0.6,0.57,0.6
			c0.3,0,0.68-0.09,1.12-0.28c0.45-0.19,0.95-0.49,1.51-0.91c0.56-0.42,0.94-0.76,1.13-1.02c0.19-0.26,0.33-0.56,0.41-0.89
			s0.14-1.05,0.17-2.16c0.03-1.11,0.3-1.66,0.81-1.66c0.3,0,0.49,0.08,0.58,0.24c0.09,0.16,0.13,0.46,0.13,0.9
			c0,0.37-0.03,0.82-0.08,1.37c-0.06,0.69-0.1,1.18-0.12,1.48c-0.08,1.52-0.28,3.05-0.59,4.59c-0.32,1.54-0.78,2.82-1.39,3.85
			c-0.61,1.03-1.45,1.55-2.52,1.55c-1.08,0-2.05-0.28-2.89-0.85s-1.27-1.05-1.27-1.44c0-0.18,0.04-0.36,0.13-0.54
			c0.09-0.18,0.2-0.27,0.33-0.27c0.07,0,0.14,0.05,0.22,0.16c0.73,1.11,1.87,1.67,3.42,1.67c0.8,0,1.48-0.7,2.02-2.11
			s0.85-2.73,0.9-3.96C184.08,134.91,184.1,134.67,184.13,134.44z"/>
	</g>
</g>
</svg>
