<?xml version="1.0" encoding="utf-8"?>
<!-- Generator: Adobe Illustrator 24.0.2, SVG Export Plug-In . SVG Version: 6.00 Build 0)  -->
<svg version="1.1" id="Layer_1" xmlns="http://www.w3.org/2000/svg" xmlns:xlink="http://www.w3.org/1999/xlink" x="0px" y="0px"
	 viewBox="0 0 212.4 212.4" style="enable-background:new 0 0 212.4 212.4;" xml:space="preserve">
<style type="text/css">
	.st0{display:none;fill:#FFFFFF;}
	.st1{display:none;}
	.st2{display:inline;fill:#FFFFFF;}
</style>
<rect x="-37.5" y="235.8" class="st0" width="212.4" height="212.4"/>
<g class="st1">
	<path class="st2" d="M36.3,85.9c0.2-10.2,3.3-19.4,10.4-26.8C57.5,47.8,68.4,36.6,79.9,26c15.6-14.4,39.7-13.8,55.3,1
		C146,37.4,156.6,48,167,58.8c13.8,14.5,14.4,38.9,0.7,53.7c-10.9,11.9-22.4,23.3-34.3,34.2c-15.1,13.7-38.7,13.3-53.7-0.7
		c-11.3-10.6-22.2-21.6-32.9-32.8C39.5,105.8,36.4,96.3,36.3,85.9z M94.8,72.1c0.2-3.7,0.1-7.4,0.7-10.9c1.6-8.8,5.2-12.5,10.8-12.1
		c5.3,0.4,8.7,5.3,9.6,13.4c1.8,14.7-0.7,28.5-7.7,41.5c-1.4,2.6-2.6,5.4,1.1,7.2c3.5,1.7,5.5-0.7,6.4-3.5c3-9.3,6.4-18.5,8.5-28
		c2.2-9.7,1.5-19.5-2.9-28.8c-2.9-6-7.5-9.6-14.4-9.9c-9.7-0.3-15,3.6-18,13c-5.9,17.9-1.6,35.3,3.7,52.3c2,6.5,6.5,12.8,11.2,17.9
		c7.4,8,17.1,8.1,25.5,1c4.4-3.7,8.3-8.2,12.3-12.4c1.9-2.1,2.4-4.4-0.1-6.5c-2.4-2-4.3-0.9-6.1,1c-3,3.2-5.8,6.4-8.9,9.4
		c-7.4,7.2-13.3,6.8-19.6-1.5c-2.3-3-4.2-6.4-5.7-9.9C96.9,94.6,94.8,83.6,94.8,72.1z M90,119c-1.3,3.6-6,5.3-1.9,8.7
		c1,0.8,4.1,0.8,4.9-0.1C96.3,124.1,92.3,122.3,90,119z"/>
	<path class="st2" d="M70.6,196.9c-10.5-0.1-17.3-6.2-17.2-15.3c0.1-9.2,7.7-15.6,18.4-15.4c9.5,0.1,16.5,7,16.4,15.8
		C88,191.1,81,197,70.6,196.9z M80.3,183.2c-0.1-7.2-3.7-12.9-8.2-13.8c-4.5-0.9-8,2-10.7,9.1c-1.7,4.4-0.4,9.6,3.4,13.1
		c2.6,2.4,5.6,3.6,9.1,1.9C78.4,191.1,80.2,187.2,80.3,183.2z"/>
	<path class="st2" d="M185.3,170.3c-4.1,0-8.2,0-12.3,0c-3.5,0-5.2,1.7-5.1,5.2c0.1,3.4,2.3,4,5.1,3.9c4.1-0.1,8.1,0,12.1,0
		c0,0.8,0.1,1.5,0.1,2.3c-3.8,0-7.5,0.3-11.3-0.1c-4.6-0.5-6.1,1.3-6.2,5.8c-0.1,4.8,2.5,5.5,6.3,5.4c3.8-0.1,7.6,0,11.4,0
		c0,0.7,0,1.4,0,2.1c-7.5,0-15,0.2-22.5-0.2c-1.1-0.1-2.7-2.9-2.8-4.6c-0.3-5.8-0.3-11.7,0-17.5c0.1-1.5,1.6-4.2,2.5-4.2
		c7.5-0.4,15-0.2,22.5-0.2C185.3,168.9,185.3,169.6,185.3,170.3z"/>
	<path class="st2" d="M110.8,194.7c-3.1,0-5.5,0-8.5,0c0-5.5-0.1-10.8,0-16.1c0.2-7.6-0.3-8.2-7.8-8.4c-0.7,0-1.5-0.2-2.2-1.5
		c8.9,0,17.8,0,28,0c-9.5,4-9.5,4-9.5,14.1C110.8,186.7,110.8,190.5,110.8,194.7z"/>
	<path class="st2" d="M142.2,194.8c-2.3,0-4.8,0-7.8,0c0-5.5,0-10.8,0-16c0-8.2,0-8.2-8.1-9.3c8.7-2.3,17.4-1.9,27.5-0.4
		c-1.6,0.7-1.9,1-2.3,1c-8.6,1-8.6,1-8.6,9.6c0,4.7-0.1,9.3-0.1,14C142.7,194,142.4,194.3,142.2,194.8z"/>
	<path class="st2" d="M50.7,195.3c-7,0-14,0.2-20.9-0.2c-1-0.1-2.6-2.6-2.6-4c-0.3-6.5-0.3-12.9-0.1-19.4c0.2-5.9,4.3-3.2,7.8-3.4
		c0,6.1,0,11.9,0,17.6c0,6.3,0.5,6.9,6.7,7c3,0,6.1,0,9.1,0C50.7,193.6,50.7,194.4,50.7,195.3z"/>
	<path class="st2" d="M88,127.7"/>
	<path class="st2" d="M92.9,127.6"/>
</g>
<g class="st1">
	<path class="st2" d="M14.7,127.2c-4.9,0-9.8,0-14.7,0c0-13.1,0-26.3,0-39.4c4.9,0,9.8,0,14.7,0c4.4,6.5,8.9,13.1,13.4,19.6
		c0.1-0.1,0.2-0.1,0.3-0.2c0-6.5,0-12.9,0-19.4c4.9,0,9.8,0,14.7,0c0,0.3-0.1,0.7-0.1,1c0,12.4,0,24.9,0,37.3c0,0.3,0,0.7,0.1,1
		c-4.9,0-9.8,0-14.7,0c-4.5-6.5-8.9-13.1-13.4-19.6c-0.1,0-0.2,0.1-0.4,0.1c0,1.1,0,2.2,0,3.3C14.6,116.4,14.7,121.8,14.7,127.2z"/>
	<path class="st2" d="M172.4,87.8c6.9,0,13.9,0,20.8,0c1.3,0.2,2.7,0.4,4,0.6c6.7,1.1,12.4,4.6,12,13.6c-0.2,4.6-2.6,8.2-7,9.9
		c-0.5,0.2-0.9,0.4-1.4,0.6c0.1,0.3,0.2,0.4,0.3,0.5c3.6,4.5,7.2,8.9,10.8,13.4c0.1,0.2,0.3,0.2,0.5,0.3c0.2,0.8-0.4,0.5-0.8,0.5
		c-5.4,0-10.7,0-16,0c-0.1-0.3-0.1-0.6-0.3-0.8c-2.5-3.5-5-7.1-7.5-10.6c-0.2-0.2-0.4-0.4-0.8-0.8c0,4.3,0,8.2,0,12.2
		c-4.8,0-9.6,0-14.5,0c0-6.2,0-12.4,0-18.6C172.4,101.7,172.4,94.7,172.4,87.8z M186.4,101.6C186.4,101.6,186.4,101.6,186.4,101.6
		c0,1-0.1,2,0,3c0,0.3,0.5,1,0.7,0.9c1.8-0.1,3.7-0.1,5.4-0.6c1.6-0.4,2.3-1.8,2.3-3.5c0-1.7-0.9-3-2.5-3.4
		c-1.2-0.3-2.4-0.4-3.6-0.5c-2.3-0.1-2.3-0.1-2.3,2.3C186.4,100.4,186.4,101,186.4,101.6z"/>
	<path class="st2" d="M61.8,87.8c5.6,0,11.2,0,16.8,0c0.1,0.4,0.1,0.8,0.2,1.1c5,12.8,10,25.5,15,38.3c-5.4,0-10.9,0-16.3,0
		c-0.4-1.5-0.7-3.1-1.2-4.5c-0.1-0.3-0.7-0.7-1.1-0.7c-3.4-0.1-6.8-0.1-10.3,0c-0.4,0-1,0.5-1.2,0.8c-0.5,1.4-0.8,2.9-1.2,4.4
		c-5.4,0-10.9,0-16.3,0c0.1-0.3,0.3-0.6,0.4-1C51.7,113.4,56.7,100.6,61.8,87.8z M73.8,112.9c-1.2-4.5-2.3-8.8-3.5-13.1
		c-0.2,0-0.3,0-0.5,0c-1.1,4.3-2.3,8.6-3.5,13C68.9,112.9,71.2,112.9,73.8,112.9z"/>
	<path class="st2" d="M136.4,87.8c9.9,0,19.8,0,29.7,0c0,3,0,6,0.1,9.1c0,1-0.4,1.1-1.3,1.1c-3.6,0-7.1,0-10.6,0
		c-3.4,0-3.4,0-3.4,3.4c0,1.1,0.3,1.5,1.4,1.4c3.7-0.1,7.4,0,11,0c0.5,0,1,0.1,1.6,0.1c0,2.8,0,5.5,0,8.1c0,1-0.3,1.3-1.3,1.3
		c-3.2-0.1-6.4,0-9.6,0c-3.3,0-3.3,0-3.3,3.3c0,1.1,0.3,1.5,1.5,1.5c4.3-0.1,8.5,0,12.8,0c0.5,0,0.9,0,1.5,0.1c0,3.5,0,6.8,0,10.1
		c-10.1,0-20.1,0-30.2,0c0-0.3,0.1-0.7,0.1-1c0-12.4,0-24.9,0-37.3C136.5,88.5,136.4,88.1,136.4,87.8z"/>
	<path class="st2" d="M86.5,87.8c5.3,0,10.7,0,16,0c0,0.2-0.1,0.4,0,0.5c2.3,7.5,4.6,15,6.8,22.5c0.1,0.3,0.3,0.5,0.6,1
		c0.2-0.7,0.4-1.1,0.5-1.5c1.7-5.4,3.3-10.8,5-16.3c0.6-2.1,1.2-4.2,1.8-6.3c5.3,0,10.7,0,16,0c-5.5,13.1-11,26.3-16.6,39.4
		c-4.6,0-9.3,0-13.9,0c-0.1-0.5-0.2-1-0.4-1.5C97.1,113.1,91.8,100.4,86.5,87.8z"/>
	<path class="st2" d="M69.8,99.9c0.2,0,0.3,0,0.5,0"/>
	<path class="st2" d="M73.8,112.9c-2.6,0-4.9,0-7.5,0"/>
</g>
<image style="display:none;overflow:visible;enable-background:new    ;" width="212" height="212" xlink:href="287A669C.png"  transform="matrix(0.186 0 0 0.186 87.1173 86.495)">
</image>
<g class="st1">
	<path class="st2" d="M113.5,105c-1.2-2.4-2.3-4.5-3.4-6.6c-0.6-1.1-1.1-2.1-1.6-3.2c-1.9-3.9-0.6-8.2,3.1-10
		c3.6-1.8,7.9-0.4,9.8,3.3c4.9,9.5,9.9,19,14.8,28.5c0.3,0.5,0.5,1,0.9,1.7c0.4-0.7,0.6-1.1,0.9-1.6c4.8-9.4,9.5-18.8,14.3-28.3
		c1.8-3.5,5.3-5,8.8-3.9c4.4,1.4,6.3,6.2,4.1,10.4c-3.9,7.7-7.8,15.5-11.7,23.2c-3.2,6.3-6.4,12.5-9.5,18.8
		c-1.4,2.8-3.6,4.5-6.7,4.5c-3.2,0-5.4-1.6-6.9-4.5c-2.5-4.9-5-9.7-7.6-14.6c-0.2-0.4-0.5-0.8-0.8-1.4
		c-4.1,10.4-11.2,17.2-22.1,19.5s-20.2-1.1-28.2-9.3c-0.4,0.5-0.6,1.1-1,1.5c-8.9,8.2-19.3,10.7-30.6,6.6
		c-11.4-4.1-17.9-12.6-19.3-24.7C19,97.9,32.6,82.8,49.7,82.7c4.3,0,7.6,3,7.7,7.1c0.1,4.2-3.1,7.3-7.4,7.4
		c-8,0.2-14.1,6.1-14.8,14.1c-0.6,7.3,4.7,14.1,12.2,15.5c7.5,1.5,15.2-3.3,17.1-10.6c0.2-0.7,0.1-1.4,0.1-2.1
		c-0.8-17.1,12.3-31.3,29-31.4c4.3,0,7.6,3,7.7,7.1c0.1,4.1-3.1,7.2-7.5,7.4c-7.1,0.2-13,5.1-14.4,11.8c-1.4,6.9,2,13.7,8.3,16.7
		c6.3,2.9,13.7,1.1,18-4.4c0.4-0.5,0.7-1.1,1.3-1.9c-0.8,0-1.4,0-1.9,0c-2.2,0-4.4,0.1-6.6-0.2c-3.8-0.6-6.3-3.9-6-7.8
		c0.3-3.6,3.3-6.5,7.1-6.5c4-0.1,8,0,12,0C112.1,105,112.7,105,113.5,105z"/>
	<path class="st2" d="M174.7,67.3c0.3,0.3,1.1,0.7,1.5,1.3c0.9,1.7,1.6,3.4,2.3,5.2c0.5,1.3,0,2.5-1.1,3c-1.1,0.5-2.4,0.1-2.9-1.2
		c-0.8-1.7-1.6-3.4-2.3-5.2C171.6,68.9,172.6,67.3,174.7,67.3z"/>
	<path class="st2" d="M183.6,67.6c1.9,0,2.9,1.2,2.3,2.7c-0.7,1.9-1.5,3.7-2.4,5.5c-0.5,1.1-1.5,1.5-2.6,0.9c-1.1-0.6-1.5-1.4-1-2.6
		c0.7-1.7,1.4-3.4,2.2-5.1C182.5,68.3,183.3,67.9,183.6,67.6z"/>
	<path class="st2" d="M191.5,77.7c-0.3,0.3-0.8,1.1-1.5,1.5c-1.2,0.7-2.6,1.2-3.9,1.7c-1.3,0.5-2.5,0-3-1.1c-0.5-1.2,0-2.4,1.2-2.9
		c1.4-0.6,2.8-1.2,4.2-1.7C190,74.5,191.5,75.6,191.5,77.7z"/>
	<path class="st2" d="M168.9,74.8c2.1,0.9,3.9,1.6,5.7,2.6c0.9,0.5,1,1.7,0.4,2.4c-0.5,0.6-1.6,1.1-2.2,0.9c-1.6-0.4-3-1.1-4.5-1.8
		c-1-0.5-1.4-1.4-1-2.4C167.5,75.9,168.3,75.4,168.9,74.8z"/>
	<path class="st2" d="M171.3,88.5c-0.4-0.3-1.3-0.7-1.5-1.3c-0.3-0.6-0.2-1.8,0.2-2.2c1-1.1,2.3-2.1,3.6-3c0.9-0.6,2-0.3,2.5,0.6
		c0.4,0.7,0.6,2,0.2,2.4c-1.1,1.3-2.6,2.2-3.9,3.3C172.2,88.4,171.9,88.4,171.3,88.5z"/>
	<path class="st2" d="M181.3,87.8c0,0.5,0,0.9,0,1.4c-0.1,1.3-0.9,2.2-2.1,2.3c-1.2,0.1-2.2-0.9-2.3-2.2c-0.1-0.9-0.1-1.9,0-2.8
		c0.1-1.4,1-2.3,2.3-2.2c1.3,0,2.1,0.9,2.2,2.3C181.3,87,181.3,87.4,181.3,87.8z"/>
	<path class="st2" d="M183.7,81.7c0.7,0.3,1.2,0.4,1.6,0.7c0.9,0.6,1.7,1.3,2.5,2.1c0.9,0.8,1.1,2.1,0.4,2.9c-0.8,0.9-1.9,1-2.8,0.3
		c-1-0.7-2-1.4-2.8-2.4c-0.4-0.5-0.6-1.5-0.4-2.2C182.3,82.6,183.1,82.2,183.7,81.7z"/>
</g>
<image style="overflow:visible;" width="212" height="212" xlink:href="megabox2.png"  transform="matrix(1 0 0 1 0.215 0.215)">
</image>
</svg>
